<svg xmlns="http://www.w3.org/2000/svg" viewBox="0 0 79.95 278.01"><g id="Layer_2" data-name="Layer 2"><g id="Layer_1-2" data-name="Layer 1"><path d="M51.16,256.57c.49-.23,1.08-.36,1.48-.6h.09l-.84-1,.07,0-1.38-.79-1,.3s0,0,0,0v0l-1.22.38A13.35,13.35,0,0,1,51.16,256.57Zm-3.66,8.05,1.87.31c0-.11-.06-.2-.15-.24l-.64-.27Zm-3.71-.52,0-.82-.4-.21-2.19.67c.07.17.12.33.19.51l1.75-.41Zm-7.73-4.93h0Zm11.43-5.44.87-.27-.47-.38ZM46,258.9a7,7,0,0,1,1.76,0c.26,0,.51.43.77.66l-.12.25L47,259.37l-.11.27.58.6.59.05,9.71-3,.68-.78L55,255.21l-.81-.1-.37.15,0,.18c.09.37,0,.56-.28.65l.3.07c0,.13,0,.26.05.4l-2.35,1c0,.45-.16.92-.15,1.38l-.79-.08c-.19-.38-.38-.76-.57-1.16a33,33,0,0,1-4.07.2Zm19.35,8.83c.52.13.8.3.75.62l1.17-.37s0-.07,0-.11l.18.06,2.35-.74c.13-.31.26-.62.38-.94s.3-.63.14-.89a.93.93,0,0,1-.18-.78,11.17,11.17,0,0,1-2.43-.66l-.3,0c-.34.37-.7.74-1.09,1.09s-.87.19-1.32.28l-.29-.39,1.57-1.35c.14-.27.29-.54.44-.81l-1.18.37c.55.34-1,1-.76,1.38-1.47-.07-1.89-.28-1.94-.52l-.85.26-.08,0v.62l.86,1.05.67-.41h0l.09,0,3.61.29,0,.71,1.37.36a16.67,16.67,0,0,1-2.42.17,2.44,2.44,0,0,1,.21.36l-1.55-.32C65.18,267.26,65.34,267.49,65.35,267.73ZM32.53,251.91l0,1.11,2,2.42,1.28.41c-.29-.37-.53-.73-.79-1.1a3,3,0,0,1,1.1.43l.06-3.74a3.71,3.71,0,0,1-1.09-1.27l-2.53-.82,0,2,2.29.95-.48.46Zm43.6,8.35c-.41.13-.81.27-1.23.39a6.51,6.51,0,0,1-.93.13,1.65,1.65,0,0,0-.14-.26L68.2,262.3l.16.08c0,.14.06.31,0,.43h0l1.27-.82.68,1,.42,0,1.66-.76-.35-.53.56-.1.46.31,1.08-.49c.84.57.8,1.25.18,1.65a.56.56,0,0,1,0,.08l.92,0c.29-.61.21-1.29.78-1.82Zm.35-22.43-.28.39.27-.08ZM41.51,273a.05.05,0,0,0,0,0h0l0,0a1.64,1.64,0,0,0-.47-.57c-.33-.06-.63-.14-.92-.22l0,2.23a11.16,11.16,0,0,0,1.47.77l1.39-.3c-.76-.39-1.58-.74-2.22-1.14-1-.67-.66-.9.77-.73.07.75,1.07,1.2,2.14,1.62l0-2-1.94-.19C41.66,272.68,41.56,272.84,41.51,273Zm17.89.65-.84.51a5.54,5.54,0,0,1,1,.24v-.61l-.09,0C59.46,273.72,59.45,273.68,59.4,273.65Zm.34-8.25v-.64l-1.06.33Zm14.75,10.88-1.18.79a9.21,9.21,0,0,0,.76.94h.29a2.74,2.74,0,0,1,.43-.08c-.19-.17-.37-.34-.37-.49A8.51,8.51,0,0,1,74.49,276.28Zm-6.64-55.63,8.94-2.82.09-5.42-14,4.41-.26.13,0,2.11,2.32-1.2H63.11L65,216.54l2.55.14a27.15,27.15,0,0,0-.33,3.24C67.21,220.16,67.52,220.42,67.85,220.65Zm-5.62,22,12.88-4.06.59-1,.78.12.08-4.92-3,.94c-.39.48-2.14.75-1.59,1.42l-1.54.45c.07.18.12.24.13.3a3.09,3.09,0,0,1,0,.86,3.24,3.24,0,0,1-.77.08,3.19,3.19,0,0,1,0-.87c.11-.4.42-.76.38-1.16l-7.75,2.44-.09,0Zm7.32-5.28.62.31-1.56,1-.67-.33ZM67,237.11c-.75,1.07-.57,2.25-2.47,2.9C65.79,239.2,64.45,237.72,67,237.11Zm-4.28-27-.09,5.43.1,0,1.57-1.62c2.6,1.3,2.4-.71,3.8-.87a4.9,4.9,0,0,1,.57.62l6.53-2.06a3.33,3.33,0,0,1,1.69-1.35l.08-4.6-14.17,4.47ZM33.21,270.26l.28-.2-.74-.24C32.9,270,33.07,270.11,33.21,270.26Zm35.54-48.55c.46.82,1,1.95.82,2.1a3.34,3.34,0,0,1-.48.22l-.36-.86-.48,0-.9,1.48-2.56.82c.38-1,.68-1.67.91-2.22-.45-.06-.88-.1-1.3-.13l-1.79.56-.09,0-.08,5.43,12.33-3.89.9-.51c0,.07,0,.15,0,.23l1-.32,0-1.28-3.39,1.51-.21-.07,3.21-2.57-1.73.14c-.31-1.64-.07-2,2.16-1.91v-.62a5.66,5.66,0,0,1-1.2-.24Zm7.33,41.66a2.52,2.52,0,0,0-.18.68l.16.12Zm-13.5-43.09a4.68,4.68,0,0,1,1,.17c1.27.36,1.6.27,2.18-.34l-2.22.11c.15-.37.25-.63.34-.83l-1.33.2ZM28.16,248.53l-1.09-.33a6,6,0,0,1-2.65-1l-4.72,1.74c.68.19.29.72.37.88a19.22,19.22,0,0,1,3.7,1.81A16.17,16.17,0,0,1,25,250.38l-.86-.81.63-.14.78.43a7.92,7.92,0,0,0,.86-1c.2.62.37,1.19.56,1.78l2.08,1.15c-1.52,0-2.63.5-2.82,1l4.12,1.32,0-2.56-.34-.06c.12-.51.24-1,.37-1.53l0-1.27L28.37,248C28.31,248.17,28.24,248.34,28.16,248.53Zm20.52,22.4-1.89-2.17-.95.3v.56a4.27,4.27,0,0,1,.91.49A4.85,4.85,0,0,0,48.68,270.93Zm-23.57-3.56h0l.82.7-.81.06,1.35.37.87-.3,2.65,1,.14-.08v-.05a.44.44,0,0,1-.08-.11Zm-7-17.21,4.06,1.31a4.2,4.2,0,0,0-2-.73,5.88,5.88,0,0,1-2.13-.78C18.11,250,18.14,250.11,18.14,250.16ZM16.5,255.3a1.7,1.7,0,0,1,.39,0l-.38-.19Zm12.65,1.29-2.82-.14-2.49-2.31-.7.26,0,0a19.6,19.6,0,0,0,1.85,2.1,2.22,2.22,0,0,0,.32.24l.2,0,0,.13c.42.25.93.49,1.37.74l.54.26c0-.15.16-.3.52-.42l2.35,1.2,0-2.1-1.05-.05Zm-29,10.12c.05.26.09.51.13.76a37.37,37.37,0,0,0,4.22.2L.13,266.24Zm22.5-2a4.78,4.78,0,0,1-.23.45l.58.18.79.05a0,0,0,0,1,0,0,1.14,1.14,0,0,1-.21-.79,6.3,6.3,0,0,1-.77,0l-.16.12Zm24,8.56c-.29-.21-.53-.4-.79-.6l0,1.83,2.51-.78ZM34,271.08l.09.1-.23-.05-.36.12.7.62,1.23-1-.19-.23Zm20.78-9.16-.25.13-2.6-.82,1.74,1.68c1,.32,1.27.68.9,1.06a1.19,1.19,0,0,0-.37.59l.6.39,4.38-1.35ZM20.11,266l.06.36,1,.66.16,0,1.35-.5-.93-.3c-.08.16-.16.3-.24.47L20.23,266Zm38.33.74-1.65,0a6.53,6.53,0,0,0,1.33,1.73,3.19,3.19,0,0,0,1.1.42.81.81,0,0,0,.15-.26c0-.07.11-.13.15-.2l.18-.32v-.84l-2,0A8.75,8.75,0,0,1,58.44,266.78Zm-28.95,3.05-3.71-.25c.24.38.41.63.71,1.09l-2-.76h0c-.15.11-.22.25-.41.3l-.12,0,.85.39-.31.2L23,270.57c-.34.16-.5.36-.3.65.69,0,1.39-.05,2.08-.06l-.21-.12.47-.23,3.3.95c-.23.05-.45.1-.65.16s-.32.35-.46.56l1.87.47c.06-.44.1-.71.15-1.08l.84.11,0-1.45-1,.43A.71.71,0,0,1,29.49,269.83Zm19.92,2.8a1.83,1.83,0,0,1-.32.14l.67.47.33-.1.31-.26c-.39-.44-.78-.88-1.16-1.33l-2.36-.33,1.92,1.35ZM59,266.2c0-.27-.38-.6-.78-1l-1.54.48a4.33,4.33,0,0,0,2.3.54S59,266.21,59,266.2Zm-.51,9.35.95.37v0l.11-.06v-.4c-.34,0-.68.07-1,.07ZM20.1,269l-.73.27a7.45,7.45,0,0,0,1.84.35.77.77,0,0,0,.19-.62,7,7,0,0,1-1,0Zm2.55-4.44h.07l-.06,0Zm9.65,1.73.26.08-.26-.27Zm-14.21,1.35.55-.31c-.23-.21-.46-.43-.68-.66C17.74,266.94,17.77,267.26,18.09,267.62ZM28.72,265a5.07,5.07,0,0,0-.6.11,7.39,7.39,0,0,0,2.06.66v-.53a6.27,6.27,0,0,0-.9,0A1.34,1.34,0,0,1,28.72,265Zm-6-.42,0,0h0Zm-2.1,8.3,1.57.44.08,0-1.6-.52ZM26,263,26,263s0,0,0,0Zm-8.55,8.75a1.55,1.55,0,0,1,0,.21l1.77.47.09-.16L18,271.89Zm.17-3.3.12,0-.29-.08A1.25,1.25,0,0,0,17.64,268.48Zm12.19-22.69.07,0,0-.06Zm3.25,18.76c0-.29.06-.56.09-.84-.22-.07-.43-.15-.66-.21l.69-.15c0-.06,0-.12,0-.18l-.87-.28,0,1.78a7.26,7.26,0,0,1,2.2,2.18,6,6,0,0,1,1.09.44l.32-.33v-.49c-.28-.2-.58-.4-.84-.61s.23-.52.38-.78l.48.21v-.69a18.24,18.24,0,0,1-1.82-.55C33.85,264.21,33.51,264.37,33.08,264.55Zm-18.79-3.89v-.27l-.14.25ZM0,274.61l4.83.72.38-.4L0,274.11Zm17.84-4.79-.35.12-.11.1-.16.12c.34,0,.7,0,1.09,0A2.44,2.44,0,0,0,17.84,269.82ZM40,277.58h0v.26h.57ZM17.31,260.22l-.73.77c.42.08.82.17,1.19.28C17.62,260.92,17.47,260.57,17.31,260.22Zm5.27,13.17,0,0-.07,0Zm2.54.91c-.17,0-.37-.11-.57-.23l-.17.07a2.09,2.09,0,0,1,.05.42,2,2,0,0,1-.22.75l.64.06,1.32-.86-.78-.25Zm10.73-1.52v-.29a2.93,2.93,0,0,1-.43.23Zm-22-15.63a9.27,9.27,0,0,1,.27,1.1.39.39,0,0,1-.1.26l.26-.21,0-1-.09,0ZM36,261.63l0-.91c-.45-.43-.9-.85-1.38-1.27a5.59,5.59,0,0,0-1.23-.39c0,.2-.11.41.08.58a9.34,9.34,0,0,0,1.26.8l-1.43-.16c0,.12.1.24.16.36a1.79,1.79,0,0,1,0-.23,6.32,6.32,0,0,1,1.71,2l.78.25v-.56l-1-.53,1,.12S36,261.67,36,261.63Zm-3.54-6.85.23.07c-.08-.14-.15-.28-.22-.42ZM35,263.87l.17-.06-.38-.12C34.9,263.75,35,263.83,35,263.87Zm-4.87-1h0v-.64l-.57-.18A4.08,4.08,0,0,1,30.17,262.85Zm22.14,11.81-1.31.6c.12-.28.22-.54.33-.8l-.69-.15-4.76,1.47.78.63-.93.18v.08l.23.08.53,0a.78.78,0,0,0,0,.16,2.64,2.64,0,0,0,.3.1c.41-.06,1-.19,1.81-.37l1.23.43a8.81,8.81,0,0,1,2.08.46l-.19.32,0,0H52c.23-.15.45-.3.68-.43l.37-.18c-.73-1-4-1-5.77-1.73,3.62.24,5.12.48,6.72,1.28l.38-.18a1.51,1.51,0,0,1,0-.63c0-.16.35-.27.77-.37l-2.55-1ZM24.89,253.75h.2l-.1,0Zm1-2.07a7.13,7.13,0,0,1-.81-1.05c0,.68-.05,1.24-.07,1.75l.53.18C25.69,252.25,25.8,252,25.92,251.68Zm-7,19.14,1.06.34a3.79,3.79,0,0,0,.38-1.05l-1.18-.21C19.06,270.27,18.82,270.59,18.89,270.82Zm-2.28-22.15.52-.19c0-.07,0-.14,0-.21l.16.11a16.53,16.53,0,0,1,1.23-1.29,7.42,7.42,0,0,1,1.2.44l3.36-1.24-.6-.19a7.87,7.87,0,0,1-1.78.58c.08-.41.14-.71.16-.83l-3.71-1.46-.44-.14Zm1.32-46.2,13.18,4.24.08-5.43-5.35-1.72Zm6-10.33-.17-.06.13.07Zm7.31,7.8,0-1.55-1.75,1Zm-.64,40.61Zm-.52-45.25-3-1.19H30l-4-1.3-.72.27a1.41,1.41,0,0,1,.29.31c.82,1.4-1.6,1.56-2.06,2.17-.11-.53-.23-1.1-.35-1.7L18,195.7l10.59,3.41c.68-1.34,1.4-1.49,2.61-.79l.06-3.81-.23-.07Zm-12.8,12.75,6.44-2.37-6.37-2.05Zm2.81,12.43,3-1.12-.24-.35-2.49-.8,2,1.12C21,219.41,20.37,219.84,20.06,220.48Zm8.74-5.55-2.08-.84.71-.41-1.81-.58L17.72,216l13.17,4.23.09-5.42-1.89-.6ZM17.43,196.86l-.07,4.42,6.44-2.37ZM62.21,244l-.09,5.43,14.25-4.49v-.35l-6.77.91c-.06-.09-.13-.17-.2-.26l7-1,.07-4.7L62.29,244Zm-29.5-3.62h1.55l-1.54.9,3.61,1.16.08-5.42-3.63-1.17Zm-.08,5.19,3.62,1.56.06-3.35-3.21-1,1.17.85a8.06,8.06,0,0,1-1.61-.3Zm.28-17.84,3.63,1.16.09-5.42L33,222.27Zm.19-12.2L33,220.93l3.64,1.17.08-5.43ZM26,234.23c-.07-.23-.15-.45-.22-.66l-.5-.16-6.73,2.48-.71.58L23,238.13l-1.26-.55.59-.25c1,.73,3.51.82,3.84,1.82l3,1c0-.09,0-.17-.05-.25l.59.42.22.07h.57l.08-5.24-2.89-.93Zm-6.81-4.13,1.32-1.66-3,1.11ZM27,227.86l-.82.56c-.79-.39-2.11-.74-2.37-1.18l-2.4.89-1.6,2.15,5.54,1.78c0-.15-.09-.29-.14-.45l3.73,1,.48.79,1.3.41.09-5.42L26.44,227ZM26,229.37l2.51,2.22C25.29,230.85,25,230.6,26,229.37Zm-8.42-6.59L21.37,224a2.32,2.32,0,0,0,.13-1.87l1.66-.18a3.75,3.75,0,0,1-.76,2.38l2.59.83c.05-.06.11-.12.15-.18l.48.18-.08.18L30.79,227l.08-5.43-5.35-1.72ZM63.78,144a15.12,15.12,0,0,0,3.3-.87l-.26-.3-3,.49Zm-47,91.13,6.44-2.38-6.37-2Zm47-95.09c.74-.52,1.59-1,.88-1.75l-.86.23ZM33.12,214.16l3.63,1.17.09-5.43-3.63-1.17Zm35.33-75.11a11.25,11.25,0,0,0-1.44,1l3.22-1A1.72,1.72,0,0,0,68.45,139.05Zm-3.81-50c1.27.52,2.31.34,2.84-.47l.94-1.51-3.37,1.06a4.82,4.82,0,0,1,.7.31l-1.11.34Zm-.92,58.8,7.65-2.41-.1,0a3.73,3.73,0,0,1,2.94-.86L78,143.36v0l.09-5.4v0l-1.12.35-1.47,3.59c-1.59.26-3.18.51-4.76.78-1.22.2-2.39.4-2.81,1.21-.09.16-.94.23-1.46.3a20.08,20.08,0,0,0-2.16.24l-.5.17Zm8.47-4.93.41.39c-.71.76-2.27.59-3.39.91-.09-.11-.2-.21-.3-.32Zm-7.67-31.58a.63.63,0,0,0-.23.12l0,1.64,1-.25c-.08.34-.15.62-.2.88l13.45-4.24.08-5.42-14.16,4.47h-.09v.92a5.57,5.57,0,0,1,3.47-1.82,10.53,10.53,0,0,1-.09,1.59C67.42,110.58,66.93,110.88,64.52,111.34Zm2.32,31.11a16.19,16.19,0,0,0,2.42-.58c.35-.14.32-.57.46-.86l-1.32,0-.21.07.82.54-2.43.5C66.67,142.19,66.75,142.32,66.84,142.45Zm7.53-18.17a6.19,6.19,0,0,1,2.69-.84l1.22-.39v-.28c-.36,0-.72-.07-1.08-.12.05-.14.09-.29.14-.44l.94.08.08-4.66v0l-4,1.25.18.34-1.8.51-1.65.47a.66.66,0,0,1-.17-.24l-6.76,2.14-.09,0L64,127.54l1.38-.43c0-.06-.06-.12-.14-.18l.74-.2,2.94-.79c-2.13-1.46-2.72-1.55-4.86-.84.05-.45.09-.89.13-1.23l6.47-2.57-.58-.73.4-.17L73,121.63c-1.34.79-4.54.67-3.47,2.39.84-1.24,2.88-1.08,4.89-1.16l-2.64,2.25ZM63.8,142.63l2.61-1-2.52.8H63.8ZM16.51,254.79c.49.05.91.11,1.27.18l1.79-.66c-.44-.32-.71-.62.21-.78a4.93,4.93,0,0,1,1.79,0l1.2-.44h0a.31.31,0,0,1-.1-.15l-4.83-1.55.5,1.25a17.84,17.84,0,0,1-1.55-1.59h-.22l0,2.17.39.44-.4-.05Zm32.38,7.78.11.1a.56.56,0,0,1,0-.12Zm-25.73-23-6.37-2-.06,3.59a5.88,5.88,0,0,1,1.48.08l-1.44-2.26c1.55.85,2.4,1.53,2.59,2Zm-8.58,2.88v-.06h-.21Zm49-88.17v.39l14.25-4.49v0l.08-5.4v0l-6.43,2,.06,0-.7.16-7.09,2.23-.08,0-.07,4,.54,0a2.08,2.08,0,0,1-.2,1A.91.91,0,0,1,63.62,154.23ZM12.74,240.44l1.85,1.21,0-1.2L13,240.22A1.79,1.79,0,0,0,12.74,240.44ZM69.65,134.52l-1-.37L64,135.61l-.09,0,0,1.47a3.74,3.74,0,0,1,1-.39c1.71-.38,3.14-.81,5,0l-3.44,1.54a27,27,0,0,0,4.75,0c1.52-.11,1.61-.75,1.52-1.43,0-.23-.21-.55,0-.67,1.13-.72,2.19-1.61,4.53-1-.16.23-.22.55-.54.75-1.1.69-1.32.89-.42,1.19l1.76-.55,0-2.33L77,134.07c.24-.34.51-.57.56-.81a2.94,2.94,0,0,0-.12-.87,1.47,1.47,0,0,1,.27-1.1l-8.24,2.6a1.44,1.44,0,0,1,.73.21,2,2,0,0,1,.49,1.25c0,.18-.46.37-.71.56l-1.17-.48,1.38-.68Zm3.93,59.6L75,192.79l-8.69,2.74-1.81,2.09L63,196.89,62.87,202l14.24-4.49.07-4.38L74,194.35Zm-5.46,2.34-.57-.2,1.87-1.55C70.09,195.77,68.91,196.05,68.12,196.46ZM17,221.59,18.6,221c-.57-.44-.55-1.08-.66-1.59l2.29-1.25-3.12-1ZM54.8,172l.52.2.09,0a.53.53,0,0,1,.22.14l4.74,1.81a6.39,6.39,0,0,1,.81-.2l.06-3.92Zm3,5.83-3,.94,6.37,2.44.06-4.23c-.1.26-.21.51-.31.77C59.22,178.13,58.34,178.17,57.75,177.8Zm-4.9-12-5.41,1.67-.08,5.42L56.84,170l-.64,0c.28-.69.48-1.16.67-1.64l.41-.12,1.13,1.3,2.25-.7-3.72-1.42a2.45,2.45,0,0,0-.32.09,3.56,3.56,0,0,0-.85.59l-.6-.26c.35-.23.68-.47,1-.71Zm-5.62,15.21-.09,5.42,13.31-4.11-7.81-3Zm5.19,11.87L47,194.59,46.93,200l13.3-4.11ZM61,188l.07-4.43-6.44,2ZM33.23,207.39l3.63,1.17.09-5.43L33.31,202ZM54.91,165.2l2.7,1c.06,0,.1-.07.15-.09a4,4,0,0,1,1.78.17c.17.05.22.58,0,.66l1.72.66.07-4.43Zm5.94,29.52.07-4.43-6.43,2ZM62,260.39l1.08-.14a8.49,8.49,0,0,1-1.07-.58ZM46.72,213.55,60,209.44l-7.81-3-5.41,1.67Zm13.33,32.19,0-1.29-1.42.44Zm-5.67-46.69,6.37,2.44.06-4.43Zm22,47.21-14.17,4.46-.08,0L62,256.17l4-1.26a8.33,8.33,0,0,0,1-1.82c.28-1.11,3.18-.52,3-1.64-.27-.23-.64-.53-.53-.75a1.65,1.65,0,0,1,.65-.66l-1-.76c.6.17,1.11.34,1.58.51.95-.28,2.22-.25,3.3-.45L75,251.1l1.28-.78Zm-4,2.72a6.78,6.78,0,0,1-1.52.07c0-.09,0-.19,0-.28l2.48-.73.51.26A7.44,7.44,0,0,1,72.34,249Zm3.92,2.7v-.54l-2.35,1.27ZM59.7,218.56c.49,1.16-1,1.55-2.35,2.06l2.43.93c-.33-.32-.66-.66-1.06-1,.64,0,1.23,0,1.72,0l.05-2.57C60.14,218.17,59.64,218.41,59.7,218.56Zm.94-10.3.07-4.43-6.44,2Zm-6.48,4.33L60.53,215l.07-4.43Zm-7.34-5.81,13.31-4.11-7.81-3-5.41,1.67ZM34,161.32l-.09,5.45,3.64,1.17.08-5.22v-.23Zm-.11,6.79-.08,5.43,3.63,1.17.09-5.43Zm-.18,11.77a4.59,4.59,0,0,1,2.53-2.73c-.7,1-1.39,2.11-2.16,3.28l3.25,1,.09-5.43-3.63-1.17Zm8,82.4a3.25,3.25,0,0,0-.47-.1l.29-.27,1.22,0,1.17-.36v-.37a10.19,10.19,0,0,1-1.37,0l.49-.32c-.39-.11-.53-.29-.57-.48l-2.08-.51,0,2.31.62.28Zm-8-78.94-.05,3.74,3.63,1.17.09-5.43L34.7,182A1.89,1.89,0,0,1,33.6,183.34Zm-.16,10.51L37.07,195l.09-5.43-3.64-1.17Zm-.11,6.77L37,201.79l.08-5.43-3.63-1.17Zm.3-18.7c0-.07.1-.15.15-.22l-.15,0ZM46,256.72c1.26.25,2.57.7,4.05,1l-1-2-1.41.65-.79-.45c.1-.28.18-.51.26-.72l-.64.2-.46.76Zm.07-4.68a1.66,1.66,0,0,1,.67.36c.88-.64,1.75-1.27,2.64-1.9.56.67.83,1.13.8,1.5l1.58.4,7.58-2.34-7.81-3-1,.3.41.14c-1.45,1.11-2.7,2.1-4,3.06a2.44,2.44,0,0,1-.89.16Zm8.27-25.75,5.94,2.27.07-4.42L54.5,226C54.47,226.07,54.42,226.18,54.38,226.29Zm-7.77-6,9.86-3a2.29,2.29,0,0,1,1.52-.46l1.92-.6-7.8-3L46.7,214.9Zm8.33-1.23-.88.27.46.18A1,1,0,0,1,54.94,219.09Zm5.27,16.24,0-2.19a1.31,1.31,0,0,1-.12.11,5.34,5.34,0,0,1-1.22.57c-.14-.28-.51-.59-.4-.83a3.41,3.41,0,0,1,1.76-1.58v-.5l-6.43,2ZM46.5,227.09l4.15-1.28c.37-.9.74-1.8,1.1-2.7l.75.9c.81-.74,1.41-1.63,3.21-.68.18.09.73-.05,1,0s.68.16,1,.26l2.07-.64L56,221.54l-.25.19c-.43-.16-1.49-.46-1.44-.56a.54.54,0,0,0,.09-.24L52,220l-5.41,1.67Zm-.34,22.14h0Zm13.43-12.71-7.8-3-5.41,1.67-.05,2.73c.27-.14.54-.28.77-.43a8.15,8.15,0,0,1,2.61-1.23l1.21-.65.32.42-.39.23c.19.69.36,1.28.53,1.86l-1.76.31,1.28.41c.76-.12,1.56-.25,2.43-.41l.76-.23,0,0,2.87-1.62.61.34-1,.56Zm-13.35,7.19a16.91,16.91,0,0,1,1.77.14l2-.89-.27-.18-.11.15a3.4,3.4,0,0,1-.16-.34l-.86-.58-.57.24h0l-.22.08-1.55.63h0Zm14-219.52,3.29,1.26,0-2.74h-.44c-.14-.34-.28-.66-.36-.83a12.85,12.85,0,0,1-2.21.21c-.11,0-.22,0-.33,0l-.29.09A16,16,0,0,1,60.59,24S60.38,24.15,60.22,24.19ZM54.58,37.28a.66.66,0,0,1-.16.26c-1.51,1.32-3.94,2.26-4.12,4.15,0,.36-.39.71-.9,1.05l0,1.43A6.18,6.18,0,0,1,53.83,41c-1.22-.46-.63-.79.34-.89a2.46,2.46,0,0,0,2-1,2.76,2.76,0,0,1,1.14-.93l-2.46-.94Zm6,25.41,2.38.29v-.77l-.54.06A16.15,16.15,0,0,0,60.54,62.69Zm2.23,10.15,0-2.12-1.89,1.41Zm.1-13.59.11-.08.07-4.3-6.43,2Zm-7.95-3.38.2.11,7.35-2.27-5.42-2.07-.59.37c-.08-.24-.17-.46-.26-.69l-1.54-.59-3.13,1,.72.95-.32.3c-.47-.15-1.18-.25-1.32-.47s.11-.34.36-.61l-1.72.53-.08,5.42,5.17-1.6Zm6.85,11.28.46.11h0l-7.8-3L49,65.94,49,71.36l12.53-3.87ZM60,78.57a4.35,4.35,0,0,1,.79-.25s0-.06,0-.09c.63-.53,1.25-1.06,1.94-1.56l0-1.49-6.44,2Zm1.87,2.14L60,81.42l2-.63Zm-.46,4.84a6.22,6.22,0,0,1-.6-1.26L62,84.13l-.19-.26-1.59-.14a14.37,14.37,0,0,1,.85-1.29l-4.86,1.5,5.9,2.26A4.59,4.59,0,0,1,61.37,85.55Zm1.3-6.29,0-1.76s0,0,0,.06C62.44,78.54,62.36,79,62.67,79.26Zm-8.43-1.45-5.41,1.67-.09,5.42,9.19-2.84L57.84,82l1.65-1.48-.86,0a7.12,7.12,0,0,0,.34-.87Zm9.17-45.59.07-4.43-6.44,2ZM60.27,49l-3.55,1.09,6.37,2.44,0-1.8-.2-.21.2,0V49.6c-.75,0-1.51-.12-2.43-.19A.7.7,0,0,0,60.27,49Zm1.34-29.67-2.41-.92c-.62.4-1.39.76-1.12,1.39,0,0-.06.05-.15.08a4.51,4.51,0,0,0,1.3.4c.23,0,.42,0,.63.07Zm-8.2,30.44,9-2.76a.52.52,0,0,1,.11-.1L54.77,44,49.4,45.62l0,0,0,2.35,1.77-.1c.36,0,.69-.2,1-.24,1.26-.15,2.53-.27,3.8-.4-.36.55-.72,1.1-1.1,1.64,0,0-.19,0-.44.11,0-.26-.09-.5-.12-.67-2.32-.45-3.18.79-5,1.29v.58l4.11-.54A.37.37,0,0,0,53.41,49.77Zm8.92,186.09,7.29-2.3c.13-.43.84-.8,1.75-.95,1.31-.21,2.85-.36,2.23-1.48,0-.07.43-.22,1.08-.53-.1.65-.16,1-.21,1.42h0l2.08-.65.09-5.42-1.1.34c-.06,1.18-.13,2.35-.2,3.51l-3.28.72c-.91-.66.83-1.93-1.78-2.12.29-.23.57-.48.86-.72l-8.66,2.73-.09,0v.16l1.15-.36a4.49,4.49,0,0,1,1.25,0c0,.1,0,.19.05.3a17,17,0,0,0-2.46.61ZM55.92,42.26l6.76-2.09-3.93-1.5c-.69.51-1.34,1-1.94,1.49-.27.22-.5.54-.42.78A1.54,1.54,0,0,1,55.92,42.26Zm7.27,3.5.07-4.42-6.43,2ZM63.3,39l.07-4.43-6.44,2Zm-14,12.06.8-.24-.79-.5Zm14.3-29.27V21l-.82.25C63,21.44,63.31,21.61,63.57,21.78ZM56.16,118a3.87,3.87,0,0,1,.37-.48l-.87.27h0ZM59,119.09l.74-.83-2.26.24ZM48.1,125.54l9.07-2.8c-.3,0-.6,0-.91,0l4.84-1.43-4.23-1.62L55.15,121c-.17-.82-.27-1.29-.43-2l.86.2-1.2-.46a2,2,0,0,1-2.12.12l-4.07,1.26Zm.11-6.77,5.14-1.58a2.06,2.06,0,0,1,.12-.26c.52-.7,1.12-1.38,1.69-2.06l-.41-.15-2,.57c.56-1.28,2-1.59,5-1.26l-2.84,2,1.75,0-.67.43,3.48-1.07h-.07l.81-.26c.3-.18.59-.36.86-.56,0,.12-.07.22-.1.33l.61-.19-4.68-1.79a3,3,0,0,1-3.53.23l3.25-.34-2.85-1.08-5.41,1.67ZM48,132.31,61.3,128.2h0l-5.85-2.24-2.33,1.31.26.19L55.7,127c-.39.56-.54,1.13-.86,1.16a4.64,4.64,0,0,1-2-.34c-.31-.12-.51-.66-.31-.78a26,26,0,0,1,2.54-1.2l-1.62-.62-5.41,1.67Zm21.08,123,.68.21-1.53,1.69,1.24.62L67,259.43c.08-.72.84-1.28.68-1.81l-.77.79c-.2-.28-.66-.65-.55-.82a2.22,2.22,0,0,1,.74-.58,1.46,1.46,0,0,1,.31-.47c.28-.33.59-.66.88-1l-6.16,1.94-.09,0,0,1.19.33,0-.33.36v.32l6.87,1.34,7.32-2.31.09-5.41Zm.42,5c-1.55-.32-1.55-.49.35-1.43C69.73,259.28,69.61,259.75,69.49,260.24ZM61.7,140.5l0,0,0,0v-.06ZM48.31,112l1.66-.51.25-.79.58,0c-.07.19-.14.37-.22.55l4.82-1.49c-.57-1.42,2-1,2.93-1.52a1.58,1.58,0,0,1-.16.67l2.73-.84.35-.37-1.64-.62c-1.2.44-1.85.45-2,0-.07-.22.06-.45.32-.64l-4.16-1.59-5.41,1.67Zm7.31-6.3c.37.71.61,1.2.73,1.43l-3.29,1.27c-.24-.18-.63-.47-1.1-.8Zm-.15,25.66h0l6.36,2.44v0l0-1.64a.61.61,0,0,0,0-.12h.06l0-2.66-6.44,2Zm-5.33,135,1.28-.4-.22-.07-1.49.44ZM60.61,117.7a3.35,3.35,0,0,0,.34,1,1,1,0,0,1-.06,1.15l1.13.44.07-4.09a1.38,1.38,0,0,1-.66.54C60.56,117,60.6,117.32,60.61,117.7Zm.76,3.7,0,.06.07,0h0Zm-2.85-9.32,2.33-1c.09.66-.41,1.11-1.43,1.36l2.71,1L62.2,109l-6.44,2Zm-2.94,12.49h0L61.92,127v0l.08-4.41v0l-6.44,2Zm6.08-30.18.17-.06-.06,0Zm-.73-5s0-.08-.06-.13l-4.79,1.48,6.27,2.4h.1l0-1.3L61.33,92C61.21,91,61.45,90.08,60.93,89.36Zm-.65,16.58h.5l-.32.06,1.18.45c-.29-.27-.55-.51-.5-.53.34-.14.72-.27,1.11-.4l0-3.27-6.43,2Zm-11.86-.73,13.3-4.11-7.8-3-5.41,1.67Zm13.92-5.29.07-4.43-6.43,2Zm-13-50.76c.08-.1.17-.2.24-.3h-.23Zm10-25.31c-.36-.38-.68-.79-1-1.2L57.15,23l2.2.85ZM37.69,155.72l-3.63-1.17L34,160l3.64,1.17v0l.08-5.4Zm.53-33.85-3.63-1.17-.09,5.45,3.64,1.17v0l.08-5.39Zm-3.84,12.37,0,1.14.67-.89c0,.73,0,1,.06,1.39l1.54-.35c-.05,1.54-1.47.83-2.29,1.05l-.05,3.11,3.63,1.17v0l.08-5.41v0Zm.42-27.08-.08,5.43,3.63,1.17.08-5.43Zm.53-33.84-.08,5.42,3.63,1.17L39,74.48Zm-.19,12.19,3.64,1.17.08-5.43-3.63-1.16Zm-1,61,3.64,1.17.09-5.45L34.27,141Zm.22-13.54L38,134.09v0l.09-5.4v0l-3.64-1.17Zm-16.25,56,4,1.29c.74-1.17,1-2.24,1.89-2.79s2.29-.46,3.95-.74c-1.09,1.18-3.47,1.23-2.31,2.9l-3.48.65,7.66,2.46c0-.17,0-.34,0-.51l.35,0,.85.92.29.1.07-4.65-1.89,1.94c-1-.6-1.29-1.3-.33-2a1.79,1.79,0,0,1,2.23-.2v-.52L26.05,186ZM.77,225.63.69,231l11.05,3.63-1.63-1.42.54-.1,2,1.63L14.48,233l.25.15,0-2.89-.08,0Zm2.37,2.59,1,2.17C1.72,229.06,1.67,228.19,3.14,228.22ZM13.26,238c-.49.09-.7.26-.48.55A5,5,0,0,1,13.26,238Zm-.51,5.16-.93.14c0,.27,0,.6,0,.92l-.8-.05c-.08-.35-.38-.76-.18-1a1.55,1.55,0,0,1,.61-.41l-3.95-1.3.4,1.34.3-.46,1.55.62-2,1.07-.63-.13.39-.57c-.51-.37-1.08-.75-1.21-1.1s.35-.55.78-.9L.56,239.16l0,1.37,1.82,1.06,1.48-.14c.85,1.07,2.19,2.11,2.27,3,.1,1.19,1.46,1.8,3.29,2.45l-.35.48,5.42,1.78.09-5.42-.09,0Zm1.94-7.53,0-1.87-1.5,1.39ZM14,239.48l.66.47V239c-.2.14-.4.29-.62.43Zm4.27-30.38c.29.13.64.33,1.12.6l-.05,0,9.61,3.08h0l.68.15,0,.08,1.42.46.05-3.2-1,.54c-.46-.81-.46-1.07,1-1.29l0-1.48-5.36-1.72ZM35.12,86.86,35,92.28l3.63,1.17L38.76,88ZM16.93,228.36l1.5-.55a2.83,2.83,0,0,1,.07-1c.08-.27.48-.49.75-.73,0,0,0,0,0,0h.07a6,6,0,0,0,1.26-.94L17,223.93l0,1.89.39.17-.4.33Zm2.32-2.29a2.53,2.53,0,0,1,.45,1.27L23.37,226l-2.07-.66a4.93,4.93,0,0,1-2,.71l0,0ZM34.7,113.93l-.09,5.45,3.64,1.17v0l.08-5.3v-.12ZM58.05,9.26l-.69.21.52.2.45-.34Zm-7.39,2.28.29-.06v0Zm4.16-1.28a5.06,5.06,0,0,1-1.73.75l-.28-.13-1.5.46,5.65,2c0-.32,0-.57,0-.84l.21,0a.87.87,0,0,0,.13-.15l.7-1.22-2.7-1ZM51.29,15.9l2.33-1.11a4.51,4.51,0,0,0,.22.44.76.76,0,0,0,.11-.14l1.12.49.51-.16s0-.08,0-.09L56.3,15a3.78,3.78,0,0,1-1.12-1c-.65-1.1-2.19-1.5-4.17-1.85l-.31.25c.17,1.07.36,2.17.58,3.5ZM64.57,93.67l14.25-4.49.08-5.42-5.39,1.7-1.36,1.15,3.64-.28c.21,1-1,1.59-2.27,2a8.34,8.34,0,0,1-2.49-.5c.32.83-1,.85-2.35,1l2.65.75L69.15,92c-.1-1-.18-1.77-.26-2.53a22.27,22.27,0,0,1-2.63,1.41,14.76,14.76,0,0,1-1.66.48ZM52,18.52c.18.68,0,1.36.48,1.54a5.85,5.85,0,0,0,.75-.16,2.26,2.26,0,0,0,1-.45Zm3.81-1.42a3.14,3.14,0,0,0-.18.31l-.43-.52-2.37.73A8.59,8.59,0,0,1,55,18.73a9.16,9.16,0,0,1,2.75-.88Zm-1.62-1.24.13,0-.38-.46A4.65,4.65,0,0,1,54.16,15.86ZM55.24,22l1.55-1c.07-.34.15-.69.22-1.07-1.29-.09-2,.69-3.44.65.74.46,1,1,1.61,1.46ZM40.45,250.78c0-.1.09-.21.13-.31l-.12,0Zm14.6-92.36h0l4.3,1.65a1.38,1.38,0,0,0,.24-.33l.58.06c0,.18-.11.35-.16.52l1.4.54v0l.07-4.42-6.43,2ZM34.93,99.05l3.64,1.17.08-5.43L35,93.62ZM59.85,64.69c-1-.76-.52-1.42-.13-2l-3.21,1,6.37,2.44,0-2.6C61.6,63.62,59.92,63.5,59.85,64.69Zm-4.69,87h0l6.36,2.44.07-4.45-6.44,2ZM41,250.35l2.75.42c.19,1.11-1.15,2.31-3.32,3l0,.9.89.84-.9,0v.43l2-.61-1.15-1.2.7-.12.92.85c.09-.14.18-.28.28-.41a.5.5,0,0,1,.29-.1c.21-1.33.41-2.66.62-4v-.52a8.11,8.11,0,0,1-1.72.12ZM59.11,73a2.42,2.42,0,0,0,1.21.35l-1.42-.54Zm1.75-3.82-.21-.06L56.4,70.4l3.8,1.45,2.29-1.52.32.14,0-2.06L61,69Zm-5.6,75.73h0l5.89,2.25a5.49,5.49,0,0,1,.47-.31,0,0,0,0,0,0,0l0-1.53c-.28.1-.55.21-.83.3l-.31-.27a3.27,3.27,0,0,1,1.15-.72l0-1.72-6.44,2Zm.08-6.78h0l6.18,2.37.18-.06,0-1.35-.38-.35a2,2,0,0,0,.39-.12l0-2.48v0ZM54,91.35,48.61,93l-.08,5.42,11.35-3.5-.1,0c.31-.34.6-.68.91-1ZM9.25,263.75l-.51.21,1.34.66a.34.34,0,0,1,0-.1ZM4.79,259v0L3,258.06l-.21.09-.06.11,1.83.71ZM.21,261v0l0,.05.19.05Zm5.59-2.41.28.06a4.37,4.37,0,0,0,.18-.46C5.89,258.3,5.79,258.45,5.8,258.62Zm-.39-1.21.92.54a1.5,1.5,0,0,0,0-.42c0-.07,0-.15-.07-.23Zm1,8.17.53.11.08-.06a.86.86,0,0,1,.37-.31l-.9-.19ZM3,260.39l-.19-.07-.06.05Zm73,6.84V267a1.06,1.06,0,0,1-.19.11Zm-62.65-.74.82.46v-.48l-.56-.13ZM5.14,254.28.92,252.89a1.82,1.82,0,0,1,.29.22c1.16,1.24,2.17,2.5,3.21,3.75l1.88.43a4.23,4.23,0,0,0-.62-1.36l-.9-.31C4.71,254.77,4.68,254.34,5.14,254.28Zm-5,9.37.29.05-.29-.21Zm68,7c.18,0,.38,0,.54.09a4.86,4.86,0,0,1,1.17.52l-.41-.76-1.77-.21h0Zm-.66-1.4-1.21.38a3.48,3.48,0,0,0,1.4.68v0h0C67.62,270,67.56,269.62,67.49,269.26Zm4-.17c.18-.43.34-.84.5-1.24l-2.42.76c.4.13.8.25,1.14.39Zm4.56-2.4v-.12h0A.37.37,0,0,0,76,266.69ZM4.89,266.2l.85.15A1,1,0,0,0,4.89,266.2Zm-.81-21.38-.4.81-1.53-.51h0l5.36,1.76Zm9.57,15.06a4.6,4.6,0,0,0-.43-.69l.48-.39a3.62,3.62,0,0,1-1-.37c-.18-.22-.33-.44-.48-.66-.11.1-.17.18-.3.28,0-.29-.09-.58-.13-.87-.2-.31-.41-.61-.62-.92h0l-1,.44c-.3-.29-.9-.63-.85-.86a.55.55,0,0,1,.08-.15l-.82-.27a1.15,1.15,0,0,0,0,.71,1.86,1.86,0,0,0,.4.5l1.87.54L9,258.87l-.4-1.95-1.26-.43a2.39,2.39,0,0,1-.15,2.44L12,260a18.13,18.13,0,0,1-3.13.38l-1.21-.1-.16.24.62.21a5.18,5.18,0,0,1,2.86.21.54.54,0,0,0,.26,0,1.55,1.55,0,0,0,.71-.43,2,2,0,0,1,.58-.05C12.92,260.25,13.31,260,13.65,259.88ZM65.33,278H67l-1.9-.16ZM.36,259.8v0l-.12-.07v.42l1.1.08ZM13.81,265l-1.8-.53s0,0,0,.06l1.68.62Zm38.51,5.14-.5.43a10.09,10.09,0,0,0,1.51.72C53,271,52.66,270.56,52.32,270.18Zm2.25.53a2.24,2.24,0,0,0,.2-.53,1.38,1.38,0,0,1,.14-.39,9.56,9.56,0,0,0-1.11-.34c-.06-.14-.12-.27-.19-.41l-.72.64a3.91,3.91,0,0,0,1,.5A1.78,1.78,0,0,1,54.57,270.71Zm-1.34-2.52,0,0h-.85c.23.45-.06.86.33,1.32l.25-.18-.34-.7.35,0A3.46,3.46,0,0,0,53.23,268.19ZM16.43,260c.14-.19.28-.39.43-.58l-.35-.42-.06-.07Zm35,10.37.65-.44a14.56,14.56,0,0,0-1.3-1.31,7.3,7.3,0,0,0-2-.42l-.12,0c.63.51,1.23,1,1.91,1.54C50.78,270,51.09,270.15,51.41,270.34Zm3.53-3.64-.78,0a1.77,1.77,0,0,1-.06-.17l-.78.24,1.23.47,1-.27A3.89,3.89,0,0,0,54.94,266.7Zm-6.06.08.75-.23-.4,0Zm6.46.74,1.29.5a1.58,1.58,0,0,0-.81-.92ZM52,263.13l0,0h0v0Zm-1.77-.72-.58.65-.42-.15c.34.33.69.67,1.11,1.06l.29.06-.19,0,.25.23L52,263.11v-.06l-1.58-.66Zm-28.32.9a4.48,4.48,0,0,0,.44.19,1.36,1.36,0,0,0,.4-.11A1.67,1.67,0,0,0,23,263c0,.22-.09.45-.13.67a5.29,5.29,0,0,1,.82.36l.17.12a1.88,1.88,0,0,1,.65-.18l-1.18-.84,1.89-.08a1.56,1.56,0,0,1,.11-.57c.17-.38.66-.7,1-1l-.6-.23L23,263a2,2,0,0,1,0-.55c.22-.67,1.15-1.19,1.48-1.87l-3.36,1.24Zm5.93,2.89.05.08H28Zm-6.09-6,1.07-.4-.56-.18A1.22,1.22,0,0,1,21.77,260.23Zm-1.26.38,0,.07.43-.16C20.83,260.56,20.66,260.58,20.51,260.61Zm30.33,1.73c.41.05.78.11,1.13.17,0-.1,0-.19,0-.3Zm-5,5,.63.19.83-.25a.73.73,0,0,1,.18-.82s0-.09.07-.13q-.91-.12-1.65-.27l0,0Zm7.64-3.63-1.34-.56H52l1,.66ZM53.42,260l.93.35a2.62,2.62,0,0,1,.74-.59l-.77,0Zm-7.51,5,1.29.25c-.54-.58-.76-1.21-1.27-1.35ZM.28,256.7v.59l1.53.6.4,0,.16-.2L.89,257l-.38-.17h0ZM56.41,239c-.35.43-.7.87-1.06,1.29l4.76,1.82.07-4.42-3.65,1.13A1.13,1.13,0,0,1,56.41,239Zm3.08,4.3-5.15-2c-.17.16-.31.34-.49.49a12.68,12.68,0,0,1-2.73,1.48,2.46,2.46,0,0,0-1.28,1l.27.1c.47.21,1,.47,1.15.75a.82.82,0,0,1-.17.7l1.47-.45a.25.25,0,0,1,0-.07c-.22,0-.39-.07-.39-.11a2.92,2.92,0,0,1,.36-1.05l.63.06a13.89,13.89,0,0,1,.86-1.43c.24-.33,1.13-.4,1.94-.66L53.85,245Zm-5.09-3.37a3.19,3.19,0,0,0,1-.75l-1.61.5Zm-2.17.6-.55-.22-1.46.45a.9.9,0,0,0,0,.16,8.78,8.78,0,0,1,1.5-.34Zm4.58,4.94-3.18,1L60,248.87l0-2.36c-.92-.19-1.84-.37-2.74-.58C57.08,245.88,56.81,245.6,56.81,245.46ZM74.55,268l-.27.63-.51.07-.48-.54a2,2,0,0,1-.29,1.09l.27,0a3.75,3.75,0,0,0-1,.58,6.19,6.19,0,0,1,.89.88,4.07,4.07,0,0,1,.4.65H74a7.39,7.39,0,0,1,2-2l0-1.95-1.32.61Zm-10.3-7.31-.82.49-.32-.77-1.17.35,0,1.15.62-.22.29.23-.92.76v.25l5.87-1.85A10.31,10.31,0,0,1,64.25,260.7Zm-46.6-3.89-.18-.32-.38.14ZM.56,265l.48.16s0-.09,0-.13L.81,265Zm32-17,3.63,1.17V249l-3.62-2.49Zm-5.17,9.89a4.31,4.31,0,0,1-2.16-.05c0,.14-.06.28-.1.42a2.72,2.72,0,0,1-.22.5l-.71,0c.1-.34.18-.68.28-1a4.92,4.92,0,0,0-1.51-.08c-.38-1-.71-1.9-1-2.78h-.06l-.56.21v.71l-.59-.49-1.33.49a1.42,1.42,0,0,1,.22.93l-1.15-.59-.16.06-.24.77h0l3.87,1.25.48-.68a2.48,2.48,0,0,0,0,.82l1.3.42-.2-.18,2.95.78v.28l2.87.93-1.93-1.42.25-.12,2.65,1.22v-1.37C28.42,258.6,27.46,258.23,27.42,257.89Zm1.71-16.44c-.22.49-.45,1-.67,1.49a4.27,4.27,0,0,1-1.26-1.82,2.1,2.1,0,0,1-.06-.31l-1.94-.63L18,242.84l.13.09a1.57,1.57,0,0,1,.61.62l5.76,1.85a3.24,3.24,0,0,1-.13-.31,8.28,8.28,0,0,0,1.26-.49l0,0c-.27-.38.38-.56.83-.79L24,242.31l2.7-.89c-.07.91-.12,1.62-.17,2.32.2-.11.35-.24.32-.4,2.57.9,2.1,1.18,1.26,1.4a3.18,3.18,0,0,0,2.4-1.06l0-1.45a4.22,4.22,0,0,1-.53-.5Zm-15.81,8.7c-.14.29-.27.57-.42.87l-1.6-.26.21-.64c-1.53.22-1.45.4-.11,1s1.64,1.23,1.14,1.93c-1.72-.33-3.93-1-3.42-1.59s-.53-1.24-.53-1.85l-.78.35-2.32-1.42,1.2-.55,5,1.79.07-.16L.45,245.93l-.08,5a7,7,0,0,0,1.26.31c.43.06.82.6,1.23,1l1.16.38c.79-1.08-2.13-2.19-3-3.37,3.38,1.58,4.17,2.17,4.61,3.91l1.61.53v0a11.11,11.11,0,0,1,1.3-1.81l2.1,2.65-.13.26,3.83,1.25,0-2.56-.14,0a19.62,19.62,0,0,1-1.16-2c-.13-.27.09-.53.15-.8.38.19.86.36,1.18.56v-.6l-.09,0ZM30,256a4.85,4.85,0,0,0-.67-.44c-1.17-.55-2.07-.5-2.51-.11l2.39.84Zm20.68-3.3a6.87,6.87,0,0,1-1.13,0,5.67,5.67,0,0,1-.67.28c.05-.15.1-.27.14-.4a1.08,1.08,0,0,1-.58-.49c-.12.19-.23.39-.35.59a8.09,8.09,0,0,1,1.12.48Zm3.09.57h0l.21.09.11,0,.79-.32c.13.3.24.54.34.75l2,.76.12-.83,2.12-.25.44.22,0-2.55-6.43,2Zm-4.33-1.83L49,251.3c-.06.11-.13.22-.2.33l.6.15C49.39,251.68,49.43,251.58,49.46,251.48Zm-8.76,8.17,1.6.38c-.06-.13-.17-.22-.45-.25Zm3.09.73.06,0,0-1.13c0-.15-.06-.24-.12-.28-.54-.38-1.42-.68-1.57-1.12s.63-.88,1-1.34c0,0,0,0,0-.05l-1,.29-.56.4-.29-.05.07-.11-.55.17c.88,1.09,2,2.14,2.83,3.23Zm-27.33-2.31,3.12.79.81,1.53.77-1.1-4.69-1.5Zm55.22,16.6-.17.06.3.08-.11-.12Zm-13.93-2.56.34,0a.35.35,0,0,0,0-.11Zm12.4-8.47-.39.05c.22.24.41.44.56.62a2.39,2.39,0,0,1,1-.41l0-.06Zm-6.32,14.17.41-.06-.68-.05Zm2.32-1.39c0,.13,0,.26,0,.39l.73.13.33-.81,3.45.85c-.17-.6-.34-1.2-.52-1.81Zm.15-1.4-.08-.12v.15Zm5.63-2.9c-.18-.27-.37-.53-.56-.79l-.82.37c.29.21.58.42.9.61Zm2.57,1.67-1,.31.52.16a1.56,1.56,0,0,1,.75-.15,4.54,4.54,0,0,1,1,.53l.09,0v-.51a2.34,2.34,0,0,1-.12.3Zm-2.77-.48.64-.2L71,272.73ZM26.81,247.5l-.27-.08a1.07,1.07,0,0,1,.16.14Zm15.12,18.06,1.43-.49a11.57,11.57,0,0,0-1.73-.27l.12.33-1-.19a.74.74,0,0,0-.4.52l0,0c0,.13-.06.26-.09.39v.57l3,1.77a7.1,7.1,0,0,1-3-1l0,1.59.56.07,1.1-.56c.34.13.7.24,1.06.35l.84-.26,0-2.25A9.14,9.14,0,0,0,41.93,265.56Zm-9.51-7.21a6.67,6.67,0,0,1,3.66,0v-.16a10.15,10.15,0,0,1-2-1.57l-1.59-.51Zm-4.91-12,.9.29.11-.06.11.13,1.84.59v-.47c-.73-.37-1.43-.76-2.18-1.18ZM57.88,258.6l-.75.4a8.5,8.5,0,0,1,1.23-.19l1.43,1.05-1,.85a3.73,3.73,0,0,0-.47-.33l-.08.11H58l-.14-.35c-1.08-.42-1.89.12-2.73.5l4.67,1.78.05-3.3-1.16-.76ZM27.14,245.55c-.35.12-.69.27-1,.37l1.06.35C27.17,246,27.16,245.8,27.14,245.55Zm28.6,13.71h.47l0,0-.11-.07s0,0,0,0Zm4.11-.82V258l-1,.32Zm0-2.8,0-1.84-2,1.09Zm-1.29.93c0,.17,0,.33,0,.47l.69-.21ZM75.62,6a14,14,0,0,0,2,1.25,9.2,9.2,0,0,0,2,.17l-3.62-1.5ZM33,7.64l-.57.1c.08.72.14,1.44.21,2.11l1.59.51,0-1.12a3.22,3.22,0,0,1-.32-.32l-.38.17c.07-.13.13-.26.19-.39C33.44,8.35,33.24,8,33,7.64Zm1.31-2.1v-.6l-.81-.26ZM31.94,153.87l-.06,0c-.54.61-1.1,1.2-1.64,1.81l-.48-.2,1.34-1.86-4.52-1.45-7.9,2.91h0l13.17,4.24Zm-13.73-6.75,3-1.12-.17-.07c.51-.52,1.43-1,1.46-1.56a1.33,1.33,0,0,1,.06-.3l-4.32-1.39Zm-.11,6.77,6.44-2.37h0l-6.37-2.05ZM30.54.06h-.62c-.26.56-.52,1.13.07,1.76C30.17,1.23,30.36.65,30.54.06Zm-2.2,8.42,3.05,1c.5-.4.55-.83-.08-1.09a12,12,0,0,0-2.69-.48C28.52,8.08,28.43,8.28,28.34,8.48Zm5.9-.86V7l-.31-.17C33,6.22,32.19,5.6,31.15,5.05l-.06,0-.47.65c1.23.65,2.43,1.29,3.62,1.94Zm-2-4.68.36,0L32.55,3l1.75.56V3.2c-.11-.28-.22-.56-.34-.85l.35-.08,0-1.09L33.76.66,33.28,2l-.8-.12c-.06-.59-.13-1.19-.19-1.78H30.87l.6,2.62ZM18.63,120l6.44-2.37h0l0,0-6.37-2Zm13.84,0-5.36-1.72-5.46,2,.39.18-1.11,1.3,11.45,3.68Zm-8.62,24.45-2.2,1.38,3-1.1h0l0,0Zm-3.6-22.9c.29-.36.59-.71.89-1.07l-1.93.71h0l0,0ZM27.78,6a.61.61,0,0,0,.35.75,2.6,2.6,0,0,0,1.37-.09l-.22-.4Zm-9,107.3,6.44-2.37-6.37-2Zm-.32,20.33,6.44-2.37h0l0,0-6.37-2Zm13.54,19L32,147.1l-5.35-1.72-7.9,2.91h0Zm-13.38-29c.26-.31.52-.63.79-.94l-.78-.25Zm0,3.25L25,124.44h0L20,122.83l-.9,1-.55-.21Zm14-13.56-5.35-1.72-7.9,2.91,2.16.7h-.07l11.08,3.56ZM24.75,138h0l-6.38-2.05v0l-.07,4.4v0Zm7,28.11.09-5.45-5.35-1.72L18,162.05v.58H21ZM19.07,106.38h0l6.21-2.28-6.38-2-.07,4.42.13,0Zm.05-17.86-.06,4.42,6.44-2.37Zm5.22,19c-.07-.53-.14-1.06-.2-1.6l-4.72,1.74,13.18,4.24.08-5.43-5.36-1.72-2.51.93c.65.51.87,1.1.17,1.78Zm-1.5,85c-.05-.26-.11-.52-.16-.79l-5.15-1.65-.07,4.42Zm-5.46,17.92-.06,0-.11-.07-.07,4.41,6.44-2.37ZM20.49,1.81v.42L20.72,2Zm3.84,163.25L18,163l-.06,4.42ZM23.5,0h-.28l.48.15ZM26,13.41l-.84.29-2-1a6.55,6.55,0,0,1-.85.61l.68.22.89-.38c0,.23.07.46.1.7l5.55,1.78c-.07-.27-.13-.48-.18-.69.91.48,2.29.94,2.49,1.43l.14,0c.65-1,1.5-1.24,2.12-.86V15l-.21,0,.22-.54V14.1l-1.45-.75c.56,0,1,.06,1.46.11l0-1.75L28.82,10l-3.36,1.24c-.3.28-.52.71-.8,1l-.61.05A4.81,4.81,0,0,0,26,13.41Zm6.54-1.89.63.31L30.45,14.4,30,14.18Zm-4.33-.88.53,0c.18.71.35,1.42.53,2.13l-.5.11-1.87-1.08Zm-6.85,2.24-.18-.07-.24.09.41.12A.71.71,0,0,1,21.33,12.88Zm8.08-9.07c0-.14.07-.27.11-.4l-.6-.2-.29.11c-.05.21-.09.41-.14.62A3.14,3.14,0,0,1,29.41,3.81Zm-.59.46-.39-.1c-.05.23-.11.47-.16.7A2.5,2.5,0,0,1,28,5.5l1-.11a.61.61,0,0,1,0-.14c.06-.28.15-.57.24-.85ZM28.63.07s0,0,0,0h-.93a4.5,4.5,0,0,0-.23.43l.24.05ZM21.36,12.73a.49.49,0,0,1,0,.12l.29-.22Zm0,.12,0,0h0Zm1.11-1.93a2.15,2.15,0,0,0-1-.85c0,.4,0,.78,0,1.16l.14,0Zm.41-5.41-.06,0-1.11.4.52.29C22.44,6,22.66,5.73,22.87,5.51Zm-.83,35,.81-1.36L20.49,40ZM25.61,83.8l-3.24-1c-.42,1-.76,1.83-1.1,2.63Zm7.82-24.7-5.36-1.73-7.9,2.92,13.17,4.23Zm-.11,6.76L28,64.14l-6.59,2.43a2.22,2.22,0,0,1-.57.72l9.62,3.1c.1-.64.21-1.29.32-2,1.24.67,1.27,1.5.18,2.15l2.31.74Zm-.11,6.77-5.35-1.72L20,73.82l13.17,4.24ZM34,25.25l-4.53-1.46-.84,1.08L28,24.64l.84-1-.2-.06c-.46.17-.93.34-1.42.49h0L26,24.5c-.05.33-.09.67-.15,1l.29.09-.31.07c0,.17-.05.33-.07.51a3.22,3.22,0,0,0-.55-.36l-1.64.38h0l-.59.94,2.46.8.16-.12L25.5,28l4.8,1.54s0-.08,0-.12l.71.13a.5.5,0,0,0-.08.2l2.92.94Zm-.43,27.07L28.18,50.6l-7.9,2.91,11.25,3.62s0,0,0,0a2.17,2.17,0,0,1,.83-1,10.41,10.41,0,0,1,1.13-.72Zm.22-13.54-4.89-1.56-.78,1.19a2,2,0,0,1-.47-1.06L24.2,38.61l-.36,2.44,9.82,3.16Zm.1-6.77L31,31.1c.06.56-.06,1.08-1.17,1.4a3.1,3.1,0,0,1-1.11-.16c0-.05,0-.11,0-.16l1.11-.12c.07-.44.14-.85.21-1.26l-1.58-.51L20.59,33.2l7.72,2.49a7.06,7.06,0,0,1,2.61-1.63c-.46.7-.9,1.37-1.33,2l4.18,1.34Zm-.21,13.55-5.35-1.73-.54.2c-.45.8-.88,1.59-1.41,2.54a2,2,0,0,1-.28-1.92l-5.68,2.09L33.56,51Zm-.17,10.89c-.4.18-.84.34-1.17.52.07.17.12.32.17.46l1,.32ZM20.39,8l.22-.22-.21-.06Zm-.16,10.45,2.89-1.06H21c-.22-1-.38-1.47-.71-1.72Zm.06-3.76.89-.38-.88-.28ZM19.8,45.55l6.44-2.37L22.41,42l-1.63.65.58-1-1.49-.48v.5l.27.12-.27.35ZM33,84.83l.06-4-.16.3-1.08-.63-1.77,1-.3-.3c1.18-.35,1.45-1.58,2.55-2.08l-4.57-1.47L21,80.17a2.81,2.81,0,0,1-.41.66l5.61,1.81c.39-.42.79-.83,1.19-1.25l.64.36-1.19,1.09Zm1.09-69-1.45.85,1,.31a5.36,5.36,0,0,1,.48-.24Zm-7.59.33-2.27-.52c.07.43.13.85.19,1.29Zm-2.3-.76.08-.05-.09,0A.25.25,0,0,0,24.22,15.39Zm-.64,5.16,6.18,2,.71-.87.46.19-.66.85L34,23.9l0-2.65-1.88-.8-.55.55-2.05-.92,1.14-.25-2.25-.95a8.81,8.81,0,0,1,3.89.6l.36-.07.3.21-.12.11a6,6,0,0,1,1.17.75l0-2-5.35-1.73-5.15,1.9.34.5-1.32.45A8,8,0,0,1,23.58,20.55ZM19.16,86.17l2-.73-.45-.12c.14-.84.26-1.67.47-2.5,0-.07.33-.11.81-.19l-2.75-.88Zm13.12,46.07.08-5.45L27,125.07,19.1,128h0l4.77,1.54a1.77,1.77,0,0,1-.16-1.06c.09-.3.91-.47,1.7-.84l-.66,2.18L29,131.18a6.23,6.23,0,0,1,1.94-1,5.89,5.89,0,0,0-.44,1.5ZM19.28,79l1.95-.94a4.09,4.09,0,0,1,.07.6L25.71,77l-6.37-2Zm.2-13.14,6.44-2.37-6.37-2.05Zm-.09,6.25a1.11,1.11,0,0,1,.27.42l6.16-2.27-6.37-2.05Zm.6,8.43-.14,0,.09,0A.56.56,0,0,0,20,80.54ZM19,99.71l6.44-2.37-6.37-2Zm13.84,0L27.43,98l-7.9,2.91,13.17,4.24ZM33,86.17l-5.36-1.72-7.9,2.91L32.92,91.6Zm-.19,12.2.08-5.43-.47-.15-1.79,1.35a1.45,1.45,0,0,1,.84-1.66l-3.93-1.26-7.9,2.91ZM19.91,38.78l1.94-.71a1.68,1.68,0,0,1,1.86-.69l2.64-1-2.06-.67c-.34,1.43-1.92,0-2.9.16a1.34,1.34,0,0,1,.49-.93L20,34.36Zm.14-9.08c.07,0,.17-.06.23-.1,1.16-.93,1.93-1,2.64.13l1.18-.85-3.59-1.16c-.16.28-.3.55-.44.8Zm1.29-3.06-.13-.21-.08.14ZM19.59,59.09,26,56.72l-6.37-2ZM20,32l6.44-2.37-1.54-.5a2.19,2.19,0,0,1-2.51,1.16c-1-.29-2-.33-2.26.36a1,1,0,0,1-.12.16Zm.12-7.73a4.25,4.25,0,0,1,1.51-.39l-.66,1,4.43-1.63a1.36,1.36,0,0,0,.25-.34l.36.12.53-.2L23.88,22c0,.3.05.59.08.86l-3.66.42c.22-.48.71-1,.59-1.34a1.84,1.84,0,0,1-.06-.92l-.64-.2Zm2.08-5.13-1.41.51.63.21A9.11,9.11,0,0,1,22.22,19.15ZM19.7,52.32,26.14,50,19.77,47.9Zm2.05-3.26c.28,1.81-.31,2.46-1.78,2.35ZM1,212.09.9,217.5l14,4.59.09-5.42-.09,0ZM22.81,185c-.51.4-1,.8-1.54,1.17a6,6,0,0,1-2,.31l-.15-.42a6.54,6.54,0,0,1,.85-.81c.4-.26.81-.52,1.23-.77l-3.56-1.14-.07,4.42L24,185.37ZM13.72,17.54l1,.33.71-.28-.5-.63ZM18.39,0H17.17a11.2,11.2,0,0,1-1.1.35c0,.11-.06.22-.1.33l2.4.69ZM18.11,18.2l-.52.61.5.17ZM16.72,7.61l-.42.7,1.07-.11C17.17,8,17,7.8,16.72,7.61Zm.77,3.63-.51.57,1.22.4,0-1.71a3.28,3.28,0,0,0-2.49-.19Zm-3.7-4.73c-.2.18-.42.35-.64.53a1.75,1.75,0,0,1,.29.18A2.47,2.47,0,0,1,13.79,6.51Zm-.09,4.22c.23-.25.49-.5.7-.76a3.82,3.82,0,0,0-1.13.62ZM17.07,3,17,3h.1l.3-.29-1.77-.44A3.2,3.2,0,0,0,16,4.08ZM15.49,7.4l.33-.47c-.38-.26-.78-.52-1.19-.77.14.36.27.72.4,1.06ZM5.34,21.57h0l2.14.7a3.6,3.6,0,0,1,2.14-1c.22.24.48.49.93,1a6.26,6.26,0,0,1,.24-1.67,2.86,2.86,0,0,1,1-1.42,11.77,11.77,0,0,1,1.07-.52l-1-.32c-.85.29-1.74.52-2.62.78A2.29,2.29,0,0,1,10.51,18l.16-.08L7.76,17l-1.89,4.1c0,.17,0,.37,0,.64l-.45-.16ZM15.79,9.17l.1.06.89-.43-.59-.31ZM10,46.1c.33-.3.7-.57,1.07-.85l-.8-.26-2,1.78.73.42A12.91,12.91,0,0,1,10,46.1Zm1.7-7.16.2-.22L10,38.09A11.18,11.18,0,0,1,7.2,39.57l.34.26ZM18,25.75l.08-5.43-.09,0-1.45-.47a3.08,3.08,0,0,1-2,.47c-.4.91-.71,1.65-1.05,2.42l1,.6c-.36.31-.69.64-1,1l1.53.5a16.91,16.91,0,0,1,2-.06l-.87.44ZM4.05,46.57c-.15.06-.32.1-.47.15l0,1.28c.19-.22.4-.43.58-.65S4.09,46.83,4.05,46.57Zm9.1-38.2-.1,0,.12,0c.05-.22.11-.44.16-.67a4.93,4.93,0,0,1-1.15.26,2.89,2.89,0,0,0-1.06,2l.73.24A2.47,2.47,0,0,0,13.15,8.37Zm5.21-6.78-1.6,0,1.59.88Zm0,2.55h0l-.64,0h0ZM14.9,15.74a1.09,1.09,0,0,1,.1-.25l-.16-.07H15a13.31,13.31,0,0,1,1.61-1.64l.3,1.25.35,0c.12-.53.24-1.06.37-1.69L16,12.85l-3.49,3.8.49.27C13.85,16.74,14.8,16.87,14.9,15.74ZM2.26,130.82l0,.78.6-.59ZM11,137c-.06.68-.13,1.37-.2,2.1l5.36,1.76.08-5.45-.09,0L14.92,135l-2,1.48a1.73,1.73,0,0,1,.93-1.85l-8.3-2.72-1.58,1.33a9,9,0,0,1-1.71.35l0,.83c.27-.16.59-.31.85-.47l.36.33c-.17.47-.34,1-.64,1.75-.19-.2-.4-.39-.58-.56l0,.79v0l7.55,2.48C9.37,138.36,9.78,137.86,11,137ZM3.71,38.76v.48L4.13,39l-.29-.29Zm5.2,62.44.64.31-2.17,2.41,9.16,3,.17-.17.08-5.2-.08,0L2.79,97l-.09,5.41,4.15,1.36C7.11,102.72,7.2,101.61,8.91,101.2Zm-4-.42-.61.15c-.22-.52-.44-1-.69-1.66C5.48,99.43,5.48,99.43,4.93,100.78ZM3.42,122.44a3.26,3.26,0,0,1-1,.13v.15l4.1,1.35L6,123.7c3.26-.18,1.5-1.06,1.24-1.88.62.14,1.28.38,1.31.65a4.43,4.43,0,0,1-.37,1.87A8.48,8.48,0,0,1,7,124.23l9.41,3.09.08-5.45-.08,0-4.17-1.37c-.53,1-2,1.22-2.77,2-.23-.36-.46-.6-.41-.64.68-.54,1.38-1.06,2.18-1.66l-3.91-1.29c-.43,1-1.75.94-2.82,1.09l2.22-1.29-4.24-1.38v0l-.07,4.74Zm8.46-.5c.19,0,.51.23.77.36l-1.39,1.5-.62-.32C10.32,122.67,10.87,122.18,11.88,121.94Zm-9.49,2.12h0v0ZM11.54,227.8c.18-1.89.68-2.23,2.31-2.21-.56.82-1.09,1.57-1.68,2.41l2.62.86,0-1.24-.27.11.28-.49.06-3.8-.09,0L.87,218.85l-.08,5.42ZM1.76,162.55v.79l4,1.31a6.68,6.68,0,0,1,1.46-.53l.37.42-.45.56,4.6,1.51c-.69-1-.3-1.43,1.34-2-.2.67-.41,1.35-.66,2.17l3.36,1.11.09-5.45-.09,0-9.61-3.15s0,.05,0,.08c-.07.22-.34.4-.54.63l-.75-.67a5.56,5.56,0,0,1,0,1.5,2,2,0,0,1-.73.82,1,1,0,0,1-.6-.12,2.37,2.37,0,0,1,0-1,4.41,4.41,0,0,1,.5-1.44c.09-.14.21-.27.32-.41l-2.5-.82v0Zm6.49-1-.34,1.11,1.67.52-2.95.39C6.6,161.76,6.6,161.76,8.25,161.59Zm1.1,79.1c-1-.84-1.28-1.55-.72-2.18l2.24,1.63.69-.11c.19-.5.43-.92.09-1.09-1.78-.95-.85-1.9-2.24-2.79l.51-.13,3.77,1.61a8.62,8.62,0,0,1,1-.65h0l-.08,0L.66,232.39l-.09,5.42Zm-6.69-5.82c0,.34,0,.67-.05.85a12.69,12.69,0,0,1,2.24.11c1.23.3,2.4.72,3.48,1.06L7,238.79a6.62,6.62,0,0,0-1.72-1c-2.85-.68-3.16-1.88-4.35-3.14Zm-.31-29.14-1.26-.42,0,1.28ZM3.86,75.53h0L14.44,79h0v0l2.67.88.09-5.43-.09,0-9.28-3c-.59.44-1.27.83-2,1.31.75.89,0,1.4-1.85,1.7.33-1.1.61-2,.87-2.86l2-.34v-.12l-2-.64-.13,0h0l-.3-.1c-.45.69-.91,1.38-1.37,2.07l-.05,2.69.57.17C3.76,75.35,3.81,75.44,3.86,75.53Zm0-46.25v.37L4,29.33ZM1.53,176.88,7,178.66a2.48,2.48,0,0,1,2.9,0L8,179l7.53,2.47.08-5.43-.08,0L1.62,171.47ZM8,10.22l-.35-.12c-1,1.17-2.06,2.35-3.18,3.47a.67.67,0,0,1-.36.15v.66l.88.29Zm3.77,6.68a1.55,1.55,0,0,0,.07-.23c.16-1.18,1-2.3,1.6-3.45.13-.37-.13-.83-.21-1.28l-1-.31c-.17.3-.23.58,0,.71,1.19.86.28,1.18-.51,1.71l-.49-.69-1,.64-.37-.17,1-1.73a10.75,10.75,0,0,1-1.74-.41c0,.1,0,.18,0,.27,0,.84.25,1.68.16,2.52,0,.39-.53.82-1,1.09-.18.11-.7-.09-1.26-.22Zm-.42-5.58-1.63-.53s-.07,0-.1,0a.56.56,0,0,0-.24.22l1.68.79ZM7.82,89.71,8.4,90c-.12.19-.24.36-.35.55l8.87,2.91L17,88l-.09,0-2.46-.81c-.25,1.39-.49,2.76-.74,4.21H11.67c2.47-2,2.5-3.74,1-4.09.06-.22.13-.43.19-.64l-2-.65h0L8.08,87.45c.78-1.12,1.4-1.65,1.95-1.71l-7-2.3-.08,5.41,4.47,1.47ZM7.59,54.13s.1,0,.31-.13c.06-.25,0-.78.24-.89a13.87,13.87,0,0,1,2.95-.92c.27,0,.83.51,1.06.86.09.14-.37.47-.58.71l-.44.09-.06-.91-.48.11-.6.59a20.41,20.41,0,0,1,2.16,2.79c.18.35-.14.86-.33,1.32l5.63,1.85.09-5.43-.09,0-.74-.24c-.77.34-1.77.55-2.6.85l-.32-.4,1.45-.9-.14-.08L8.59,51.25A15.43,15.43,0,0,1,7,52.56c-1.46-1.15.68-1.16.67-1.63L3.54,49.59,3.45,55l.83.28C4.35,54.2,4.8,53.38,7.59,54.13ZM4.73,30l-.89-.15v.72A2.84,2.84,0,0,1,4.73,30Zm-.09-2,1.5.25v.43l11.15,3.65c.06-.8.12-1.53.17-2.23a3.41,3.41,0,0,1,.46-.05l0-1.91c0,.22-.09.45-.13.67L16.11,28l-1.41.49c-.12-.14-.24-.27-.37-.4a5.17,5.17,0,0,1,1.47-.65,8.27,8.27,0,0,1,1.89.2c.06-.2.13-.38.2-.57h0L14.56,26l-.67.34h-.34a6.33,6.33,0,0,0,.36-.54l-1.5-.49a5.11,5.11,0,0,1-1.2.74A2.54,2.54,0,0,0,9.3,28.87l-1.5.18c.58-1.26,1.14-2.46,1.75-3.76l-1.46.27c0-.39-.06-.69-.07-1l-1.88.79c.25-.64.37-1.32.61-1.95L4,22.51l-.08,5.42.68.22S4.61,28,4.64,28Zm.23,96.89-.15.29c-.19.37-.38.74-.61,1.17l-1.77-.48,0,.93c.27.84.5,1.58.75,2.32,0,0,.21,0,.35.06L4.17,128l.93,1.3,4.51-2.9Zm11.41,9.21.09-5.45-.09,0-5.91-1.94c-.18.6-.32,1.1-.64,1.18-1.34.34-1.34,1.09-1.61,1.81l0,0s0,0,0,0l5.3.24c-1,.24-2.41.26-2.86.76a2.56,2.56,0,0,1-2,.89l7.5,2.46h.13s0,0,0,0ZM2,147.71l.26-.34.54.2c-.13.76-.28,1.54-.43,2.36l1.59.53a3.9,3.9,0,0,1,.14-.59c.59-1.65,2.48-1.36,4.29-1.36a6,6,0,0,1-1.6,1.63,11,11,0,0,1-1.53-.81l-.75,1.31L16,154.4l0-1-1,0,.37-.7-1.83-.1L16,151.1l0-2.15-.09,0-9.59-3.15c0,.35-.07.69-.11,1l-.86,0-1.18,1.47-.46-.15c.05-.41.09-.81.14-1.28l-1.43-.24c.23-.75.41-1.36.59-2l-.85-.28-.16,0Zm4.66-16.78.88.28.62-1.54h0Zm9.85-10.38.08-5.45-.09,0L10,113a2.06,2.06,0,0,0,.91,1.06l-1.4,1.34,1.4-.16.12.32-3.49.57c.08-1.31.15-2.47.23-3.72l-1.6-.26c.13-.11.22-.19.33-.3l-3.95-1.3L2.49,116l.21.07c-.09-.14-.13-.38-.05-.44.87-.64,1.79-1.24,2.65-1.81l1.1,1.93c-.84.17-1.71.36-2.61.51a2.3,2.3,0,0,1-.46,0l2.55.84a2.27,2.27,0,0,1-.49-1l2.86,1.37c-.63,0-1.09-.06-1.45-.1ZM3.68,114c.14-2.11.14-2.11.66-2.42l1.06,1.12C5,113,4.4,113.43,3.68,114Zm10.14-6.57a6.8,6.8,0,0,0-3.9,4.16l6.68,2.2.09-5.43h-.06l-1.74.92-.33-.28,1-1ZM5.58,92.89l1-1.47L2.9,90.21l-.08,5.41,14,4.59.08-5.42-.09,0L7.32,91.65c-.68,1-1.35,2.1-2.05,3.14-.13.19-.51.3-.8.41-.07,0-.38-.17-.36-.22a2.69,2.69,0,0,1,.38-.65C4.85,93.85,5.24,93.38,5.58,92.89Zm8,1.93c-.23.74-.42,1.37-.62,2l-.57-.11C12.24,96,11.33,95.13,13.62,94.82Zm-1.57-.5a14,14,0,0,0-.9,1.7,5.74,5.74,0,0,0-.2,1.37l-.6-.06C10.71,96.29,9.83,94.9,12.05,94.32ZM2.6,109.16l.93.31c-.31-.23-.62-.46-.92-.7ZM17,86.68l.08-5.43-.08,0-3.16-1c-.3.6-.58,1.18-.93,1.87-.3-.82-.45-1.24-.63-1.77l.67-.4L3.11,76.67,3,82.08l10.19,3.34s0-.1,0-.15l1.47.37c0,.09,0,.18,0,.27ZM2.62,108.08c1.29.47,2.09,1.2,2.08,1.77l2.94,1,.38-.34c0-.78.05-1.43.08-2.09h.32L9,109.88a14.84,14.84,0,0,0,2.56-2.39,3.63,3.63,0,0,1,.51-.67l-9.38-3.07Zm-1.4,89.11,14,4.6.08-5.43-.08,0L1.3,191.77Zm.21-13.54,11.83,3.88c0-.91.05-1.82.13-2.72,0-.16.58-.28.89-.42.09.25.29.51.27.77-.05.83-.15,1.67-.27,2.51,0,.06,0,.12,0,.18l1.19.4.09-5.43-.09,0L1.51,178.24Zm-.1,6.77,14,4.59.08-5.42-.09,0L1.41,185Zm14.4-21.14-.09,0L1.73,164.7l-.09,5.41,14,4.6Zm.13-8.11.08-5.45-.08,0L1.94,151.13l-.08,5.21L4,155.83l.35.39-.64.95,1.61.53.06-.07a2,2,0,0,1,1,.22c0,.07,0,.14,0,.2Zm-8.19-6.92L8,157.33C5.88,155.36,5.86,155.2,7.67,154.25Zm8.49-12.07-.09,0L2.15,137.59v0l-.08,5.2a.91.91,0,0,0,.07-.14l.91.68.77.25c.68-1,.77-1,1.84-.22L5.1,144l.77.25.69-.26c0,.17,0,.31,0,.47l9.56,3.14.06-3.86-.08,0,.08,0Zm-13,14L2,156.62l.88.29C3,156.69,3,156.44,3.13,156.15ZM1,210.73l14,4.59.08-5.42-.09,0L3.44,206.09a4.58,4.58,0,0,1-2.39,1.34ZM1.11,204l2.34.77c.19-.25.39-.56.68-.94A4.32,4.32,0,0,1,4,204.91l11.1,3.65.09-5.43-.09,0L1.19,198.54ZM11,47a14.21,14.21,0,0,0,1.6,0c.67-.09,1.36-.25,2.35-.45l-3.39-1.11a3.17,3.17,0,0,1-.16.37C11.23,46.18,11.11,46.59,11,47Zm6.59,5v-.18L16,51.59a6.36,6.36,0,0,0,.25-.61l1.31-.29.06-3.29-.09,0-2.36-.77-1.47,1.61L13,47.51a16.92,16.92,0,0,0-3.39,2.72l2.54.84c-.28-.56,0-1,.7-1.45a2.67,2.67,0,0,1,1.95,2.32l1.87.61Zm-3-2.3-.7-.35,2-2,.58.26Zm-8.24-.57L6,48.65l-.55.2Zm2.75-4.54L7.28,44l-.81.67L6,44.46c.16-.23.35-.47.53-.7l-2.88-.94,0,2.55a4.85,4.85,0,0,1,.55.17c1.38.55,2.38.82,2.48,2.15A7.19,7.19,0,0,1,9.09,44.61Zm6.19,8.83-.06,0s0,0,0,0Zm-10-5.65.66.86H6ZM4,32.12a2.19,2.19,0,0,1-.17.41v1c.25-.17.51-.35.77-.5a5.44,5.44,0,0,1,1.31-.37c-.09.34-.06.75-.3,1s-.77.8-1.2,1.21l1.72.57C7.44,34,7.58,34.07,8.73,34.3L6.46,35.58l3.17,1a1.67,1.67,0,0,0-.19-.68c-.59-1.22.22-2.2,2-2.79-.17.32-.5.78-.41.82,2,1.08,0,1.21-.31,1.39-.13.56-.17,1.08-.25,1.54l2.35.77.53-.58.56.21c-.08.22-.16.44-.25.65l4.08,1.34,0-2.1-.64.74c-.58-1.3-.42-2,.66-2.44l0-1.08a6.79,6.79,0,0,1-2-.51L17,33.59,6.15,30v1.89C4.47,31,4.2,31,4,32.12ZM8.23,38a4.9,4.9,0,0,0,.56-.26l-5-1.65,0,1.44c.23-.31.54-.51,1.21-.21.89.39,1.44,1.2.51,2-.6.54-1.22,1.07-1.78,1.62v.53l.64.21c1-1.1,1.91-2.19,2.91-3.25A2.92,2.92,0,0,1,8.23,38ZM5.3,69.22l.93.3.25-.16c-.23-.32-.44-.63-.66-.93h0C5.64,68.69,5.47,69,5.3,69.22ZM17.75,40.63l-.09,0-.39-.13-.94,1-2.44-.31c-.05-.09-.1-.19-.14-.28l2.54-.68-3.06-1c-.17.45-.35.91-.53,1.4-1.28-.92-3.29-1.07-3.72-.36-.34.56,0,1.36.11,2.32L8.47,43l2,.64c.69-.44,1.41-.86,2.12-1.29l.39.24L11.39,44l6.28,2.06,0-1.25-.67-.3A1.45,1.45,0,0,1,17.71,43ZM5.86,42.19l1.21.39c0-.68-.47-1-1.22-1C5.86,41.78,5.86,42,5.86,42.19ZM3.33,63.13l0,.69a4.57,4.57,0,0,1,.18.68l.63-.08L4,63.7l.73-.12Zm6.73-6,1,.34c0-.39-.09-.79-.15-1.29Zm-2.76,5c.55-.2.86-.75,1.42-1.28.13.78.22,1.31.3,1.83l2.13-.23-1.51,1.3,7.71,2.53.08-5.43-.08,0L7.84,57.8c-.57,1-1.12,2.08-1.72,3.11-.09.17-.45.26-.65.41s-.73.52-1.09.79l.82.27L5,62.18A8.36,8.36,0,0,0,7.3,62.22Zm1.63,8.19,8.31,2.73.06-3.69c-.53.33-1.06.66-1.63,1-.21.11-.65,0-1.15-.05,1.06-.69,2-1.25,2.79-1.8l0-.84-.09,0-6.89-2.26a2.53,2.53,0,0,1-.84.73c-.19-.44-.34-.81-.48-1.16l-.71-.23a1.45,1.45,0,0,0,0,.77c.23.61.47,1-.75,1.2-1,.16-1.95.7-1.75,1.7h0L9.28,66.9a9.16,9.16,0,0,1,.14,2.63A2.16,2.16,0,0,1,8.93,70.41ZM3.34,61.77l.31.1a1.42,1.42,0,0,0,.08-2.34c-.25-.22-.26-.58-.33-1.07Zm6.14-5L7.24,55.57l-.48.52,2.43.8Zm-3.68.36-.2.22.82,0Zm-1.57-.52-.8-.26v.46l.28.39c.24-.15.47-.22.49-.32A2.51,2.51,0,0,0,4.23,56.62ZM63,195.24l.19-.06c.84-2.06,1.69-4.12,2.53-6.19l-2.55.81h-.08Zm-2.8-179-1.35.34c-.26-.18-.54-.35-.82-.52l-.75.23,6.37,2.44,0-1.33ZM63.9.72l-2.16.66,2.13.91Zm-.22,13.89L62,14.77h0l1.68.35ZM55.84,1.46c1.23-.33,2.44-.67,3.65-1L58,.19H55.86c.12.31.18.6-.27.75L51.79.16h-1l4.37,1.22A2.1,2.1,0,0,0,55.84,1.46ZM60.11.54,59.59.47l.33.14ZM63.5,161.39l14.25-4.49.09-5.44L66,155.19c.27.48-.39,1-.85,1.52-.07-.39-.14-.79-.2-1.18l-1.27.39-.08,0v0l-.09,5.4ZM60.81,10.79h0l1.09-1.53c-.13-.07-.24-.15-.39-.22L58.6,10ZM57.89,2.87,61,4.05l.18-.15L57.84,2.66C57.86,2.74,57.87,2.8,57.89,2.87ZM77,204.29l.08-5.42-14.16,4.47h-.09l-.08,5.43ZM69.16,7.76a2.07,2.07,0,0,0-.76,1L69.94,8ZM66.56.51,66.44.23H66V.57h.53S66.57.54,66.56.51Zm3,5.4-.07,0-.8.25.27.1ZM66.85,7.28l1.19.4.27-.16c-.7-.2-1.4-.4-2.12-.59L66,7l-.09,0V8Zm6.8,123.79,1.19-1.65.62.14c.09.67,0,1-.45,1.26l3.17-1,.06-4.31h0c-1.09.5-1.57.88-1.07,1.65l-1.72.21c.1-.33.18-.57.26-.81-3.06-.27-4,.1-5.38,1.72a9.8,9.8,0,0,1-2.41,1.29l-1.76-1.26c-.47.28-1.11.64-2,1.12a.71.71,0,0,1,.17-.68l-.27.09H64l0,2.77.59-.1c.07.15.15.31.22.47l-.82.12,0,2.17v0L74.58,131A8,8,0,0,1,73.65,131.07ZM65.13,57.75c.83-.47,1.81-.94,1.77-1.39-.12-1.29,1.36-2.12,2.1-3.15h0l-3.75,1.18-.09,0v0l1.28.68L65.18,55ZM65,83.83l-.28,0,0,3,.29-.09s0-.09,0-.14a6,6,0,0,1,1-.88,9.16,9.16,0,0,1,.93.4l2.5-.79a3.62,3.62,0,0,0,.2-.33h.83l4-1.25-.32-.76c3.51-.43,3.49-.43,4.47-2.37a1.66,1.66,0,0,1,.4-.5L79,77,68,80.48l.14.19a7.94,7.94,0,0,0-1.36.2c-.66.21-1.32.42-2,.65l0,2.17Zm6.1-2.24c1.08-.65,2.2-1.28,3.39-1.85A18.63,18.63,0,0,1,76.71,79l.23.21-5.61,3.16-.46-.14C70.94,82,70.87,81.72,71.1,81.59Zm8.65-52-3.25,1,.52.13a6.54,6.54,0,0,1-1.79,2.5l.63.62-1-.31c-.08,0-.14.11-.22.15l-.72-.19.21-.23c-1.07-.45-1.32-.91-1-1.59l-7.49,2.36-.09,0-.08,5.42L79.67,35ZM59.59.47l-.06,0h.06Zm1.93,73.32c-1,.8-1.76.92-3.36.72,0-.57,0-1.15,0-1.91l-2.71,1.18-.44-.3c.47-.26.92-.55,1.42-.8a2.84,2.84,0,0,1,1.23-.37L54.35,71l-5.42,1.67-.08,5.42L62.15,74ZM49.45,40v.56l0,0a23.92,23.92,0,0,0,3.32-2.73l-3.33,1v.72l.38.26Zm12.2,20.62c.07-.14.1-.26.15-.37L54.55,57.5l-5.41,1.67-.08,5.42,13.28-4.1ZM56.47,31a4.63,4.63,0,0,1,.86,1.22c.05.16-.63.39-1,.58l-1.32-1-.86.21-1-1.06-3.64,1.12-.09,5.42L62.79,33.4ZM54.94,35.1c1.6-1.48,1.6-1.48,2.84-1.14C56.48,34.08,56.9,35.39,54.94,35.1ZM47.68,152.62,61,148.51h0l-1.64-.63c0,.14.08.28.13.43l-2.26-1,.27-.15-4.3-1.65-5.41,1.68v0l-.08,5.4Zm.1-6.77,13.3-4.11h0l-.74-.28a5.81,5.81,0,0,1-3.05.27l2.14-.62-6.15-2.36-5.41,1.68v0l-.09,5.4ZM56.47,31l-.31-.12-.09.22ZM54.13,84.58l-5.41,1.67-.09,5.42,13.31-4.11ZM61.19,135h0l-7.81-3L48,133.64v0l-.08,5.4v0ZM49.89,11.78v.09l.61-.28ZM60.23,25.62c.07,1-1.13.91-2.46.7l-.6.67-.61-.08c.29-.44.37-1,.91-1.31a12.33,12.33,0,0,1,1.15-.6l-3.53-1.35L54,24l2.71,1.36-.47.18L53.4,24.17,50,25.23a3.37,3.37,0,0,1-.29.37l-.08,5.14,13.3-4.1Zm-8.31,2.82-.77-.18,1.53-1.92.68.18Zm-2-18.35v.34l.71-.22ZM50.23,17l-.14,0a.52.52,0,0,0-.19.06Zm0-7.81a1.34,1.34,0,0,1,.11.14l.58-.45,1.88.66,3.84-1.19C53.16,7.43,52.37,6.88,51,4.94l3.34-.11C51.54,6.47,55,7.2,57,8.23l2-.62.23-.13a3.62,3.62,0,0,0-.79-.36h-.88a1.41,1.41,0,0,0,0-.2L57,6.84l-.09.29-.79-.37A9.14,9.14,0,0,1,54.53,6l.41-.31a4.12,4.12,0,0,0,.82.4c.31-.23.67-.45,1-.67l.56.2c-.07.2-.13.41-.2.65.46,0,.91-.13,1.35-.2L59.76,5l-1.57-.6A5.77,5.77,0,0,1,58,5.57a13,13,0,0,1-2.29-.66c-.61-.37-1.19-.75-1.78-1.13L50,5,49.93,8.9l.31.25Zm1.07-5.92,1.29-.4c-.74-.49-1.48-1-2.23-1.47a1.58,1.58,0,0,1-.12.15l-.16-.05,0,1.32L51.1,3ZM50,18.54l-.26.25v.26h1.56Zm2.29,4.62h0l1.29-.4a.54.54,0,0,1,.08-.53l-2.5-.57c.15.19.27.36.16.45-.51.46-1.08.9-1.65,1.33V24l2.55-.78Zm-2-1.69.22,0,.35-.15a.18.18,0,0,0,0,.07c1-.23,1.22-.53,0-1l-1.24-.51,0,2,.71-.31ZM77.3,185.33,65.74,189a6.37,6.37,0,0,1,.63-.11c.68-.08,1.37-.14,2.06-.21,0,.4.36.86.11,1.19-.66.82-.1,1.2,1.53,1.35l-2.15,2.48,4.36-1.38A3.26,3.26,0,0,0,73.81,190c.16-1.25,1.29-1.94,3.45-2.06ZM64.78,80.13l.58-.18-.57-.3Zm3.43-4c-2.1.4-2.91,1.66-2.14,2.7a3.51,3.51,0,0,0,.91.61l12-3.8.07-4.48a1.92,1.92,0,0,1-.24,0,4.81,4.81,0,0,0-3.42.85c-.84.55-1.74,1.08-2.62,1.62l-.34-.19-4.1.72a4.06,4.06,0,0,1,.62-.75l-4,1.28-.08,0v.74a11.29,11.29,0,0,1,2.69-.78c1-.16,2-.29,3.17-.46A3,3,0,0,1,68.21,76.13Zm9.27,6.73,1.44-.45,0-1.18A6.43,6.43,0,0,1,77.48,82.86ZM60.84,155.27h0l-7.81-3L47.66,154l-.09,5.42v0l13.3-4.11Zm4-76.7c.07-.62.14-1.24.21-1.88h-.19Zm6.13-25.29c1,.06,1.77.14,2.59.15.29,0,.82-.14.85-.26.3-1,2-.93,3.42-1.42-.13.47-.21.77-.29,1.08l-2-.24,1.17,1.54c-.56.36-1.5.71-1.68,1.16-.11.29.69.68,1.18,1l3.16-1,.08-5.42L72.8,52a7.3,7.3,0,0,1,1.32.4C72.75,52.43,71.42,52.42,70.94,53.28ZM65,66.59l4.71-1.48-.77-.93L70.15,64l-.35-.27a5.36,5.36,0,0,0-1.44.71,4.53,4.53,0,0,1-3.22,1.71l-.14,0Zm-.1,6.77,6.66-2.1L70.92,71l1.32-1.08.74.29c-.41.33-.83.65-1.25,1L75.54,70a.94.94,0,0,0,0-.16c-.07-.91-.2-1.6,1.19-1.81.21-.82.39-1.47.56-2.12a4.76,4.76,0,0,0,1.84.81l0-3.27L65.06,67.92H65ZM66,64.12c.36-.71-.13-1.32-1-1.75l0,2.38.25-.19C65.49,64.39,66,64.29,66,64.12ZM77.22,190.75l0-1.94-1.51,1.51.57.71Zm-3.68,1.08a1.64,1.64,0,0,1-.22.14l2.55-.8A3.28,3.28,0,0,0,73.54,191.83ZM63.48,162.71l-.08,5.45,14.25-4.49v-.76l.07-4.66v0L63.57,162.7Zm.75-47.39-.09,5.45,14.25-4.49.09-5.44-14.17,4.47Zm8.14-1.47c.35-.65,1.74-1.13,2.66-1.68l.4.19c-.67.56-2.33.92-.91,1.91C73.3,114.39,72,114.6,72.37,113.85Zm-7.91-13.41L78.71,96l.08-5.42L68.13,93.89c-1,2-1,2-1.93,2.16l1.85-2.13L64.63,95h-.08Zm-.1,6.46,1.27-.78a.81.81,0,0,1,.38.57l12.59-4,.09-5.42-14.16,4.47-.09,0Zm2.35-4.33.38.22c-.58,1-.74,1.07-2.35.95Zm-3.42,72.36L72.64,172l.53-1.32c.36.21,1.1.54,1,.63s-.26.21-.38.31l1.48-.46H75.1l2.45-1.41.06-4.18-.46.18-.37-.21c.18-.13.34-.27.51-.4l-13.83,4.36-.08,0ZM65.63,26,71,24.28l.05,0-4-.53c0,.29-.12.57-.17.86h-.48c0-.21.06-.41.1-.74l-.81.3Zm13.51,42.4a1,1,0,0,0-.65.7l.64-.2Zm-16,113.33,14.25-4.49.09-5.42-14.17,4.47-.08,0Zm8.57-7.56,1.55-.58-.9,1.76-1.12,0C71.44,174.91,71.6,174.52,71.75,174.14Zm-8.67,14.33L77.32,184l0-2.28-3.82.82c.64-.63,1.18-1.11,1.64-1.62a2.32,2.32,0,0,1,2.2-.46l0-1.88L69.6,181a9.23,9.23,0,0,0,.87.55c1.31.71.88,2.84-.6,3.48a19.59,19.59,0,0,0-2.23,1.33c-.31.19-.72.32-1.08.49q1.14-2.81,2.29-5.61L63.25,183l-.09,0ZM78.91,13.55a3.65,3.65,0,0,1,.64-.68L79,12.71,75.75,13.8l3,1.3,1-.3c-.28-.16-.58-.31-.85-.47S78.79,13.8,78.91,13.55Zm1,3.67c-.82-.14-1.64-.26-2.46-.38l-.77.24,3.21,1.26Zm-5-.92.08,0,0,0Zm5,2.76a2.72,2.72,0,0,0-1.37-.3c-1.86.36-2.13-.22-2.79-.79l1.36,0-.82-.71-2.23.7-.09.16,1,.38.42-.54.29,0-.06.75.93.35L77,19l-.22.19c.78.19,1.89.16,2.78.37l.31.1Zm-9,1.76c-.56,0-1.29,0-1.92-.05l.43.82a13.44,13.44,0,0,0-1.59.22C70.7,22.11,71,22,70.9,20.82Zm-5.22,2,.74-.85c-.16-.49-.53-1.14-.37-1.18a10.79,10.79,0,0,1,1.42-.26c-.17-.11-.35-.22-.55-.33l-1.12.36-.08,0Zm13.94,1.48-2.69-.51-1,.31A4.82,4.82,0,0,0,79.62,24.27Zm-6.81-9-5.58-1.93-1.32.41-.09,0,0,2a3.47,3.47,0,0,1,1.14.62,10.3,10.3,0,0,1,1.32,2l1-.31A7.15,7.15,0,0,1,68.45,17a11.33,11.33,0,0,1-.63-1.86,2.78,2.78,0,0,1,1.52,1c.3.47.46.78,1.85,1.09l.48.13L74,16.6l.43-.69-.24-.21c-.14-.13.48-.37.89-.65l-1.51-.77ZM78.06,45.5l-.54-1.44,2,.07,0-1-9,2.82.61.09c-1,.57-1.23,1.23-2.74.87l-.57-.1-2.51.79-.09,0,0,2.35,2.18-.51L66.25,51.1,68.06,51l-2.37,1.51L65.22,52v1l14.25-4.49.05-3.84Zm-2-22.82,2.71-.86L75.46,20a2.94,2.94,0,0,1-1.59-.12c.15-.18.27-.35.41-.53l-1.75-.95-1.08.34a1.89,1.89,0,0,0,0,.23,3.71,3.71,0,0,0,.45.11,11.41,11.41,0,0,1,2.83,1.51l-2.26-.22-.18.16,3.7.95C76,21.8,76,22.23,76.07,22.68ZM65.24,50.79h.09l-.09-.09Zm.07-4.51.16-.05.88-1.72.5.09c-.19.73-.26,1,.21,1.13l12.5-3.94.09-5.42L65.48,40.84l-.08,0v.69l.74,0,.15.27-.9.46Zm3.26-6.17.57.13-2.54,3.3-.73-.16Zm10.74,18-.91.08c0-.09-.06-.18-.1-.28l1-.66v-.57L75.79,57.8a7.62,7.62,0,0,1-4.19,3.3c1.05,1.28.58,2.43-.52,3.57l8.16-2.57Zm-.76,2a6.41,6.41,0,0,1-3.65.78c1.08-.55,1.74-.92,2.46-1.25a6.89,6.89,0,0,1,1.13-.29C78.52,59.6,78.77,59.94,78.55,60.1Zm1.22-31.9c-1.44-.49-2.78-1-3.1-1.92-.12-.34-1.19-.68-1.83-1,0-.19.23-.4.06-.57a1.28,1.28,0,0,0-.24-.22l-5,1.57-.38.32a.8.8,0,0,1,0-.21L65.7,27.3l-.09,0v.59c1.32.64,1.32,1.15.24,1.29a3,3,0,0,1-.25-.25l-.06,3.79,14.24-4.49Zm-6.85,1.61-3.62-2.2.53-.16,3.83,2.13Zm1.37-6.57,1.53-.48-4.18-1,1.24,1.94.66-.21C73.45,23.22,73.76,23.16,74.29,23.24Zm2.11,7.42-2.88.91,1.11,1.1ZM45.11,180.36l.09-5.42L41.63,176l-.08,5.42ZM40,8.08l0,0,0,0ZM36.43,3.8v.47l.07,0A1.4,1.4,0,0,0,36.43,3.8ZM39.27,9a3.85,3.85,0,0,1-.36,1A10.58,10.58,0,0,1,40,10.1l0-1.7-.22-.23-2.4,1-.6-.53,2.66-.83h0l.29-.09L40,8V6.79L37.69,6c-.19.09-.37.16-.56.23.72.29,1.46.58.5.92a4.64,4.64,0,0,1-1.26.23l0,2.13a4.48,4.48,0,0,0,1.47.36ZM37.71,1.15a2.26,2.26,0,0,0,.87-.29,4.15,4.15,0,0,1,1.5-.75l-3.56,0,.57.57A3.62,3.62,0,0,0,37.71,1.15Zm2.34,4.29,0-1a5.76,5.76,0,0,1-.44.41l-.38.28Zm-.2,12.87,0-2.8c-.42-.09-1.39-.56-1.33-.71.13-.3.78-.52,1.35-.81v-.43l-3.64-1.17,0,1.62a1.13,1.13,0,0,1,.48,1.45l-.5-.26,0,1.45c.36.23.23.43,0,.63v.53l2.72.88Zm-2.72,1.15-1-.3V20s0-.05.06-.07A8.46,8.46,0,0,1,37.13,19.46Zm-.8-9.32v.65l.78-.47Zm2.81.67-.76-.19a3.13,3.13,0,0,1-1.75.52L40,12.21v-.6C39.16,11.53,39.29,11,39.14,10.81ZM44.77,202l-3.57,1.1-.08,5.42,3.56-1.1Zm-5-178-.69.06c.22-.18.47-.34.7-.51v-.93c-.8-.15-1.47-.39-1.65-1-.06-.18.4-.35.63-.53l.26.06-.13.61.9.22,0-1.69L38.66,20a1.89,1.89,0,0,0-.56.73c-.17.4-1.13.7-1.72,1l-.23,0,0,2.9,3.64,1.17Zm4.9,184.79-3.56,1.1L41,215.31l3.57-1.1Zm-.1,6.77L41,216.66l-.08,5.42,3.56-1.1Zm.32-20.31-3.57,1.1-.09,5.42,3.57-1.1ZM40.1,2.57A2.91,2.91,0,0,0,38.69,3c.6,0,1.06.09,1.4.13Zm1.26,246h1l1-.3c-1.38-.55-2.05-1.33-1.52-2l2.22,1.47v-.38l-.52-.94-1.23-.19,1-2.51.78,0v-.21l-.11-.09,0,0a3.35,3.35,0,0,1-.54,0l.24-.6-3.17,1-.08,5.42.73-.22Zm3.09-26.23-3.57,1.1-.08,5.42,3.57-1.1Zm-.21,13.54L40.67,237l-.08,5.42,3.56-1.1ZM45,188.48l-3.56,1.1-.05,2.85a2.66,2.66,0,0,1,2.29,0l-2.3.75,0,1.8,3.57-1.1Zm2.48-22.32,10.82-3.34,3.07,0v-.58l-1.79-.68,0,.16-.82-.08a.62.62,0,0,1-.25-.51L53,159l-5.41,1.68v0l0,2Zm-29.68,8,6.44-2.37-6.37-2.05Zm18.74,56L32.89,229l-.09,5.43,3.63,1.17Zm-4.8-62.78-5.35-1.72-7.9,2.91,5.39,1.74.93-1.67c.22.82.38,1.42.57,2.15l2.48.79.35-.11.21.3,3.24,1Zm-2.58,16.23c.61-1,1.19-1.95,1.75-2.89l-4.74-1.52-7.9,2.91,4.39,1.41a9.45,9.45,0,0,0,1.3-1c1.19-1.12,2.53-1.27,4.43-1.09a11.77,11.77,0,0,0-2.2.9c-.72.53-1.42,1.09-2.11,1.64l7.36,2.37.07-4.21A2.92,2.92,0,0,1,29.14,183.66Zm2.48-9.46L29,173.36a11.32,11.32,0,0,1-1.6,1.95c-.55-.52-.46-1.14-.82-1.52A5,5,0,0,0,25,173l-4.24,1.56c.29.1.61.19,1,.31l-2.51.85,12.29,4,0-1a2.16,2.16,0,0,1-.35.21C32,177,30,177,28.73,176.31c1.81-.45,1.13-1.15.61-1.65l2.26.63Zm-13.56-18L18,160.66l6.44-2.37h0l0,0Zm.45,19.12-.15,0,.07,0ZM23.26,143a22,22,0,0,1,3.1-1.59,1.87,1.87,0,0,1-.79,1.21,7.28,7.28,0,0,1-1.62.6l8.11,2.61.09-5.45-1.91-.61-.07.14-1.8-.75-1.31-.42c-.23,1.18-1,1.51-2.47,1.12l.43-.55-6.13,2.26h0Zm-5.59,38,6.44-2.37-6.36-2Zm22-150-1.9-1.46,1.45-.76-.3,0-1.71-1.39L39.31,27l-3.23-1L36,31.35l3.64,1.17ZM34.08,153.23l3.63,1.17v0l.09-5.4v0l-3.64-1.17v0l-.08,5.41Zm3.77-95.76A2,2,0,0,1,37,58.88l.56.18,1.12-1.53a4.56,4.56,0,0,1,0,1.89l.55.18.09-5.43L35.65,53l-.08,5.43.37.12A3.31,3.31,0,0,1,37.85,57.47Zm1.49-6.8-.83,1.74-.46-.08a21.63,21.63,0,0,1-.85-2.08c-.05-.14.24-.43.46-.5a15.58,15.58,0,0,1,1.7-.34l0-2-3.63-1.17-.09,5.42,3.64,1.17Zm.27-16.81L36,32.7l0,2.45h0c.14,0,.58.3.88.46a5.59,5.59,0,0,1-.9.3l0,2.21,3.63,1.17Zm-.11,6.78-3.63-1.17-.09,5.42,3.64,1.17Zm-1,66.35.09-5.43-3.64-1.17-.09,5.43Zm.72-46-.35-.11-1.15.71a2,2,0,0,1,.5-.92l-.44-.14a3.19,3.19,0,0,1-1.4.22c.13-.19.26-.36.39-.54l-1.18-.38,0,2.92.94-.41.25.19-1.2,1.13,0,1.59,3.63,1.17Zm-.1,6.77-3.64-1.16L35.35,72,39,73.14ZM44.34,229.1l-3.56,1.1-.09,5.42,3.57-1.1ZM43.71,43.71v.85A6.7,6.7,0,0,1,45.16,44Zm3.72-11-3.57,1.1-.08,5.42,3.57-1.1ZM47.3,41l-.27.13-.57-.4.85-.37v-.84l-3.56,1.1,0,2.83c1.2-.57,2.43-1.12,3.58-1.68Zm.24-15-2.89.89.51-.05L44,28.26v.51a9.34,9.34,0,0,1,1.38-.47l-1.39,1.13,0,3.07,3.56-1.1Zm-.37,23.35a3.19,3.19,0,0,0-1.5,2.41c-1.93-.54-2.1-1.06-.75-1.86.43-.26.59-.66.87-1-.1-.09-.21-.17-.33-.26l-1.83.21L43.58,52l.2-.11.65.33-.86.4v.17l3.56-1.1Zm.41-26.21a19.53,19.53,0,0,0-2.7-.65l2.72-.82,0-2.44-1.55.48c.5.4,1,.8,1.48,1.18a18.11,18.11,0,0,1-2.4-.9l-1.09.34,0,1.4c.36-.08.68-.17,1.07-.23-.42.29-.79.5-1.07.7L44,25.74l3.57-1.11ZM47,58.48l.08-5.42-3.56,1.1-.09,5.43Zm.08-13.8.13.1V44c-.26.15-.52.3-.75.45s-.69.11-1,.22c-.63.23-1.23.5-1.84.75v.18l.07.05ZM47,59.83l-3.56,1.1-.09,5.42,3.57-1.1ZM44.88,48.14a6.57,6.57,0,0,0,1.77,0l.54,0,0-1.81-2.12.65h0l-1.45.44v.16A4.38,4.38,0,0,0,44.88,48.14ZM45,15.59l-.19.08,1.35.27c0,.62-.58,1.23,0,1.62a4.06,4.06,0,0,1,.65.57l.87-.27v-.22l-.8-.31.81-.07,0-2.09-.7.58-.46-.14,1.17-1.17v-.67a2.09,2.09,0,0,1-.51.52C46.54,14.75,45.79,15.17,45,15.59Zm.07,166.12-3.57,1.1,0,1.85,1-.38-1,1.2,0,2.75,3.57-1.1Zm15.25,7.42-7.81-3-5.41,1.67L47,193.24Zm-.19-13.41a.68.68,0,0,0,0-.3l-4.82-1.84a5.15,5.15,0,0,1-.82.57,15.77,15.77,0,0,1-2.32.77c-.07-.11-.15-.21-.23-.32l1.85-1.28L51.38,173l-4.05,1.25-.08,5.42Zm-3.72-1.18.45.11c-.48,1.69-.48,1.69-1.51,1.53Zm-2.22,1c-1.69,1.15-2.65,1.3-4,.51C51.74,176.14,52.41,174.89,54.21,175.56ZM44.86,6.6a16,16,0,0,1,3,.36V6.27l-.6-.41Zm2.88,6.22v-.38l-3.57,1.1v1a1.27,1.27,0,0,1,.12-.1C45.41,13.88,46.58,13.35,47.74,12.82ZM45.35,9.1l-1.09-.26,0,3.36,1.27-.4c-.12-.16-.11-.39.09-.69a3.41,3.41,0,0,0,.59,0c.54,0,1.08-.1,1.61-.16v-.26l-1.45,0L47.79,10V9.71l-1.25-.22c.58-.17,1-.3,1.26-.41V8.85a4.45,4.45,0,0,1-1.87.2l1-.75-.05,0c-1.69-.43-2.17-.94-2-1.68l-.55.17v.8c.3.25.59.49.84.74S45.28,8.84,45.35,9.1Zm-.71-5.78.73-.57c.43.24,1.17.48,1.23.7s-.3.64-.49,1l-1.77-.57,0,1.6L46,4.91V4.44c.44,0,.88,0,1.33.06l.56-.18V4l-.29,0c-.14-.3-.15-.61-.44-.88a9.77,9.77,0,0,0-1.61-1l2.37.38,0-2.34h-3c-.18.2-.37.4-.56.59l0,2.38Zm-.3,13.84a1.33,1.33,0,0,1-.21-.09l0,1.5c.06,0,.09-.08.16-.12C45.09,18,45.46,17.54,44.34,17.16Zm9.41,210.32c-.65,1-1.16.84-3.73-.13h0l-3.55,1.1,0,2.11,1-1.24.69.38-1.72,1.54,0,2.63,13.3-4.11ZM43.69,72.7l-.15.33,3.27-1,.09-5.42-3.57,1.1-.07,4.9Zm2.14-5c.62,1.31-.09,2.11-1.73,2.74Zm-.1,73.34v0l-3.57,1.1-.08,5.44,3.56-1.1Zm0-1.37.08-5.4v0l-3.57,1.1-.09,5.44,3.57-1.1Zm.11-6.75v0l.08-5.4v0l-3.57,1.1v0l-.08,5.4v0Zm-.56,35.2-3.56,1.1-.09,5.42,3.57-1.1ZM26.64,137.23l.41-.51c0,.24,0,.45.06.66L32.17,139l0-2.43-1,.78c-.17-.15-.51-.41-.48-.44.49-.42,1-.81,1.53-1.21l0-2.15-2.34-.75a2.64,2.64,0,0,1-1.41.77,1.66,1.66,0,0,1-.25-1.3l-1.36-.44L19,134.75h0Zm0-4.72c.23,1,1.45,2.31-1.7,2.09Zm18.87,22.1L42,155.71v0l-.09,5.4v0l3.57-1.1Zm0-1.33v0l.09-5.4v0l-3.56,1.1L42,154.36v0Zm-.22,13.54.07-4.06,0-1.36v0l-3.57,1.1v.26l-.08,5.18Zm1.37-86.68-3.57,1.1L43,86.66l3.57-1.1Zm-.11,6.77L43,88l-.08,5.42,3.57-1.1Zm.21-13.54-3.56,1.1-.09,5.42,3.57-1.1Zm-.4,25.73.08-5.42-3.56,1.1-.09,5.42ZM46,126.18l.09-5.4v0l-3.57,1.1-.08,5.44L46,126.2Zm.32-20.31.09-5.42-3.57,1.1L42.72,107Zm0,1.35-3.57,1.1-.08,5.42,3.57-1.1Zm-.19,12.19.06-4.16,0-1.26-3.56,1.1-.09,5.45,3.57-1.11Z"/></g></g></svg>