<svg xmlns="http://www.w3.org/2000/svg" viewBox="0 0 188.33 100.77"><defs><style>.cls-1{fill:#ef4444;}</style></defs><g id="Layer_2" data-name="Layer 2"><g id="Layer_1-2" data-name="Layer 1"><path class="cls-1" d="M6.72,59.65,6.55,60l-.25-.25a3.59,3.59,0,0,1-2.65-1.07l-.17.24a10,10,0,0,1-1.74-2.15l.33-.25-.16-.42-.25.09L1,55l.16-.5A3.42,3.42,0,0,1,.5,52.85H.58l.25.33.17-.5-.34-.41L.33,50.48A13.76,13.76,0,0,1,.08,48.2a1.49,1.49,0,0,1,.17-.91L0,46.46H.58c0-.05,0-.33-.08-.83s-.1-1-.13-1.53,0-.9,0-1.12l.5.16v-.25l-.42-.5.17-.82.25.08v-.42l-.25-.49H1a8.38,8.38,0,0,1-.13-.83,7,7,0,0,1,0-.75l.33-.25-.33-.25.41-2-.16-.08a1.66,1.66,0,0,0,.37-.87,7.25,7.25,0,0,1,.13-.87l.33-.09-.09-.83h.25l.25-.74c-.16.11-.25,0-.25-.21s0-.35-.16-.29a3.9,3.9,0,0,0,.45-1.25A3.33,3.33,0,0,1,2.9,30.2l-.24-.5.33-1,.41.08.25-.25H3l.08-.33L3.9,28v-.41l-.66-.09c0-.11.11-.23.16-.37s.06-.23,0-.29l.33-.41-.08-.34.58-.91,1.25.33L5.31,25h.08a7.58,7.58,0,0,0,1.5.92,1.54,1.54,0,0,1,.83,1.41H8.3a1.16,1.16,0,0,0,1.07,1,2.09,2.09,0,0,1,1.42.79l.41-.33.91.58-.16.41a5.59,5.59,0,0,1,2.11.25,1.71,1.71,0,0,1,1.12,1.75l.5-.42a2.3,2.3,0,0,1,.91,2l-.33.08.17.92a1,1,0,0,0-.63,1.16,1.24,1.24,0,0,1-.37,1.24h-.25a2.34,2.34,0,0,1-1.28,1.62,4.8,4.8,0,0,0-1.7,1.45L12,39.41H12l-.09.66-.83.58v.25l-.58.25.09.08H10a4,4,0,0,1-.83.63,7.59,7.59,0,0,1-.91.45l.08-.25a3.37,3.37,0,0,0-.62.63,1.75,1.75,0,0,1-.71.53L7,43l-.58.33.25.16-1.41.17-.09.08.09.83-.67.08c.39.06.58.56.58,1.5a7.8,7.8,0,0,1-.2,1.7A4.25,4.25,0,0,1,4.56,49h.5v.41l-.17-.08a6.45,6.45,0,0,0,.3,1.95,16.21,16.21,0,0,1,.45,2l-.16-.08a2.27,2.27,0,0,0,.33.95,1.76,1.76,0,0,0,.66.79l-.17.75h.09l.25-.34.83.59v.49c.61,0,1.2,0,1.78,0a10.53,10.53,0,0,0,1.7-.21l-.16-.58.83-.41.08.5.25-.92h.16v.5h.09v-.66h.08l.08.5.67-.67-.25-.16,1.57-1.83h.33l.59-1.08.33.08-.33-.24a2.65,2.65,0,0,1,.49-.79c.22-.25.42-.49.58-.71l.25.09.25-.75.25.16a2.12,2.12,0,0,1,.21-.87,4.87,4.87,0,0,0,.29-.78l.33.08a2.56,2.56,0,0,1,1.41-2.32l-.41-.34.41-.41.83-.17v1.33h-.33l.16.5-.49.25.33.33-.25.75H19.5c-.23,0-.34.08-.34.24a2.24,2.24,0,0,1-.08.59l-.33-.5v.33a3.42,3.42,0,0,1-.25,1.24l-.75-.25a.7.7,0,0,1,.17.5,1.31,1.31,0,0,1-.41.92l.33.24c-.17.23-.25.27-.25.13v-.29l-.17.16.09.42h-.42l-.5.5.33.49-.33-.08a9.73,9.73,0,0,1-.87,1.66c-.47.78-.9,1.19-1.28,1.25A2,2,0,0,1,14,56.29a4.22,4.22,0,0,1-1.08,1v-.67l-.66.58c0,.22.08.28.25.17a.84.84,0,0,0,.33-.42l.08.58a1.53,1.53,0,0,0-.83.42,1.12,1.12,0,0,1-.83.33,1.66,1.66,0,0,1-1.37,1.33,6.63,6.63,0,0,1-2,.16l-.08.17L7.3,60v-.25ZM5.56,40.82a2.23,2.23,0,0,0,.08.75l1.41-.34a.82.82,0,0,1,.17-.58c.11,0,.19-.08.25-.25l.41.34c.11-.45.33-.7.67-.75l-.25-.17q.4-.33.87-.66A7.87,7.87,0,0,0,10,38.5l.16.08.08.25.21-.21.13-.12a1.21,1.21,0,0,1-.17-.42,1.27,1.27,0,0,0,.66-.83l.42.08-.17-.41a.88.88,0,0,0,.34-.08.83.83,0,0,0,.24-.17l-.24-.17a.71.71,0,0,0,.49-.24,1.58,1.58,0,0,1-.08-.59l.08-.08a1.19,1.19,0,0,1,.29,0,.88.88,0,0,0,.29,0,1,1,0,0,1-.33-.74,1.17,1.17,0,0,0,.58-.08,4.12,4.12,0,0,1,0-1,8.42,8.42,0,0,0,0-1,.5.5,0,0,1-.33-.46.75.75,0,0,0-.25-.54l-.16.17-.42-.25.08-.33a2.71,2.71,0,0,1-.66-.29,1.22,1.22,0,0,0-.66-.21V30.7a1.41,1.41,0,0,1-.71-.17,1.22,1.22,0,0,0-.62-.16c0-.5-.25-.7-.75-.59a.82.82,0,0,1-.29.67,1,1,0,0,0-.21.91.33.33,0,0,0-.24.08.84.84,0,0,1-.25.17c.11.17.08.61-.09,1.33a13.22,13.22,0,0,1-.66,2.11,5,5,0,0,1-.66,1.29h.41A11.85,11.85,0,0,1,6,38.45,8.6,8.6,0,0,0,5.56,40.82Z"/><path class="cls-1" d="M15.6,67.12l-1.29.75a5.43,5.43,0,0,1-1.45.58v-.67c-.06,0-.14,0-.25.17l-.25-.33a2.19,2.19,0,0,0,1-1l.83-.17.16-.49-.16-.67a1.37,1.37,0,0,0,1.16-1h.83v-.17l-.5-.5a6.53,6.53,0,0,1,.91-.74,5.5,5.5,0,0,0,.91-.75l-.33-.33A4.51,4.51,0,0,0,18.71,60a2.32,2.32,0,0,1,1.78-1.36l.17.24a2.83,2.83,0,0,1,.74-1.7,3.68,3.68,0,0,0,.92-1.53c0,.06.05.08.16.08s.17,0,.17-.08c0-.61.23-.94.7-1A1.5,1.5,0,0,0,24.47,54l-.16-.75c.72-.38,1.08-.77,1.08-1.16s.3-.61.91-.66v-.67l1.16-.49a2,2,0,0,0,.17-.87c0-.36.16-.49.49-.38l-.16-.5h.83c0-.11-.09-.16-.25-.16a1,1,0,0,1-.42-.08,11.73,11.73,0,0,0,1.17-1.17,1.25,1.25,0,0,0,.16-1.49h-.33L29,44.8l.5-.33a.32.32,0,0,0-.33,0l-.33.16a9.25,9.25,0,0,0-.21-1.11c-.08-.31-.18-.65-.29-1l.5-.33-.67-.34.34-.16h-.17a2,2,0,0,0-.37-.79,3.69,3.69,0,0,1-.46-.71h-.17l-.83,1.5-.16-.5a4,4,0,0,1-.29,1,8.93,8.93,0,0,0-.37,1l-.5.33a2.55,2.55,0,0,1-.33,1.62,14.51,14.51,0,0,1-1.17,2.12,3.59,3.59,0,0,1-1.16,1.24l-.33-.33a3.45,3.45,0,0,0,.21-1.45,1.87,1.87,0,0,1,.45-1.37l.34.33V44.3l.66.17a5.11,5.11,0,0,1,.46-2.78q.61-1.36,1.2-2.7c0,.06,0,.09.08.09s.32-.27.46-.79a2,2,0,0,1,.62-1.12l-.17-.67.83-.66A2.26,2.26,0,0,1,28,33.93a21.83,21.83,0,0,1,1.74-1.41h.67a3,3,0,0,1,1.28,2,8,8,0,0,1,0,2.44c.11,0,.2.13.25.38a2.92,2.92,0,0,1,.09.45,2.27,2.27,0,0,1,.37,1.45,3.06,3.06,0,0,0,.29,1.54c-.33.16-.54.1-.62-.21s-.1-.23,0,.21l.16,1,.83.34.75-.67-.17-.5a1.82,1.82,0,0,0,.58-.45,5.37,5.37,0,0,0,.42-.54l.16.16.34-.49-.34-.5A7.35,7.35,0,0,0,37,36.05a10.46,10.46,0,0,1,2-3.28V32h.5l-.17-.74a6.22,6.22,0,0,1,.79-1.16A1.56,1.56,0,0,0,40.49,29a2.5,2.5,0,0,0,.7-1.45c.14-.7.3-1.37.5-2s.51-1,1-1.08v-.16l-.49-.83.33-.17a1.48,1.48,0,0,1,1.16,2l.5.17v1.66l-.5.5a4.16,4.16,0,0,1-.5,2.78,28.21,28.21,0,0,1-2.2,4.1,30,30,0,0,1-2.74,3.74,5.5,5.5,0,0,1-2,1.74v.66c-.39.22-.58.4-.58.54s-.08.18-.25.13l-1,1.66h-.67v.83H33.1c-.11,0-.1.13,0,.24a.46.46,0,0,0,.46.09l.25,1.16-.25,1,.75.67-.5.16,3.48,6.31.67.33.16.66H39l.5.5a3.35,3.35,0,0,1,1.2-.91,1.78,1.78,0,0,0,1-1h.16l.67.92.16-.17L41.81,53l.5-.58a.22.22,0,0,0,.25.25c.28,0,.25-.22-.08-.66A3.58,3.58,0,0,0,43.6,50.4,2.11,2.11,0,0,1,45,49c-.23-.16-.21-.29,0-.37s.34-.13.29-.13A5.2,5.2,0,0,0,45.92,47a6.13,6.13,0,0,1,.66-1.7,1.64,1.64,0,0,1,1.54-.79c.05.06,0,.24-.17.54l-.33.62.5.17L47,47.29l.16.5a6.83,6.83,0,0,1-.83,1.74H45.8a4.86,4.86,0,0,1-.5,1.12c-.22.36-.45.73-.67,1.12l.34.17-.83.33a5.47,5.47,0,0,1-1.54,2.82,11.93,11.93,0,0,1-3.15,2.45,7.1,7.1,0,0,1-3.28,1v-.08l.5-.5a2.32,2.32,0,0,0-1.08.25l-.75-.75.34-.25A4,4,0,0,1,33.43,56a3,3,0,0,1-.49-1.2A1.05,1.05,0,0,0,32.6,54l-.25-.08-.08-1.41-.66-.25-.25-.75-.08.42-1-3a8.17,8.17,0,0,1-.7.62,3.19,3.19,0,0,1-.79.46v1l-1.5,2.24L27,53a3.82,3.82,0,0,1-.62.67c-.25.22-.21.39.12.5a1.37,1.37,0,0,0-1.24,1c-.22.61-.46,1.2-.71,1.79A1.77,1.77,0,0,1,23,58a2.43,2.43,0,0,1-.62,1.66c-.36.33-.82.72-1.37,1.16l.17.5-1,.17v.83l-.83,1.16h-.5l-.5.83-.83.33.34.17-.34.49-1.16.5-.49,1c0,.11-.06.16-.17.16a.23.23,0,0,1,0-.25.26.26,0,0,0,0-.25c-.06,0-.16,0-.29,0s-.18.18-.13.29Z"/><path class="cls-1" d="M57.66,100.72a2.59,2.59,0,0,1-1.54-.17,10.69,10.69,0,0,1-1.45-.66l-.33-.83-.33.17a4.25,4.25,0,0,1-1.45-1.58c-.36-.66-.74-1.3-1.12-1.91l.33-.16a3.34,3.34,0,0,1-1-2,25.39,25.39,0,0,1-.7-3.41c-.17-1.19-.28-2-.34-2.53.06.22.14.16.25-.2s0-.41-.41-.13c-.06-.77-.09-1.59-.09-2.45a12,12,0,0,0-.24-2.44h.16a.51.51,0,0,0,.58-.58c0-.56-.25-.75-.74-.58a5.09,5.09,0,0,1-.09-1V79a22.46,22.46,0,0,1,.17-2.69,4.29,4.29,0,0,1,.58-2,1,1,0,0,1-.58-1,2.88,2.88,0,0,1,.21-1,8.1,8.1,0,0,1,.37-.87l-.33-1.49.5-.66a1.51,1.51,0,0,0-.5-.09h-1a1.51,1.51,0,0,0-.5.09l-1.32-1.83h-.5l-.5-2.32L47.37,63a.53.53,0,0,0,.29.12c.14,0,.15,0,0-.12l-.33-.17h.17a5.41,5.41,0,0,1,1.2-1.28c.47-.36.95-.71,1.45-1l.33.33.42-.66c.11-.06.11-.08,0-.08a.32.32,0,0,1-.25-.09,3.15,3.15,0,0,0,.46-1.57,12.56,12.56,0,0,0,0-1.75l.34-.16c-.12-.17-.09-.69.08-1.58a28.81,28.81,0,0,1,.75-3c.33-1.13.65-2.18.95-3.15s.51-1.59.62-1.87l-.58-.16.17-1.08.58-.17q-.42-.08-.42-.33c.45-1.1.86-2.21,1.25-3.32a18.75,18.75,0,0,0,.83-3.4l.16.17c.11,0,.21-.1.29-.29s.15-.35.21-.46l-.16-1.16,1-1.49a1.48,1.48,0,0,1-.17-.67,1.72,1.72,0,0,1,.34-1l.83-.42a1.42,1.42,0,0,1-.25-.74,4.11,4.11,0,0,1,.29-1.46,2.21,2.21,0,0,0,.12-1.36,1.9,1.9,0,0,1-1.74-.21c-.61-.36-1.13-.68-1.58-1a.43.43,0,0,1-.33.09,1.43,1.43,0,0,1-.83-.42,1.47,1.47,0,0,0-.83-.41c-.22,0-.36.19-.41.58L51.44,28v-.33h-.59v-.33l-1.32.33c0-.22-.06-.39-.33-.5a.72.72,0,0,1-.5-.5v-.08c0-.33.21-.5.62-.5a1.53,1.53,0,0,0,.71-.08v-.5l1.57-.16v.5l1.83.33.16-.83,1.41.16.33.5,1-.16.33.33h1l-.33-.17a8.14,8.14,0,0,1,3,.83.93.93,0,0,1-.25-.66,2.75,2.75,0,0,1,.5-1.45,3.63,3.63,0,0,0,.58-1.54,1.81,1.81,0,0,1-1.08-1.66,3.05,3.05,0,0,1,.21-1.12c.14-.36.26-.7.38-1h.66l.41-1-.33-.83c0-.11.22-.17.67-.17l.41-.5a6.25,6.25,0,0,1,2.12.63,2,2,0,0,1,1.2,1.7H66c.34,0,.5.41.5,1.24a4,4,0,0,1-.08.79,2.46,2.46,0,0,0-.08.54h-.5a5.62,5.62,0,0,1-.62,2.2,6.76,6.76,0,0,0-.71,2.2l-.16-.17c-.17,0-.28.28-.34.83a4.42,4.42,0,0,1-.16,1,3.46,3.46,0,0,1,1.74.66A8.22,8.22,0,0,1,67,29.78a6.89,6.89,0,0,1,4.11,1.5,23.25,23.25,0,0,0,3.69,2.4l-.17.83h1.16l1.17,1.33-.34.66a2.35,2.35,0,0,1,1.66.71,7.17,7.17,0,0,1,1.25,1.53c-.45.06-.67.2-.67.42,0,.06,0,.08.09.08.22,0,.47-.16.74-.5l.17,1.17c-.06-.11,0,0,.08.24a4.76,4.76,0,0,1,.25,1.25h.5l.16,1.82H81a2.31,2.31,0,0,0,.91-.2,5.6,5.6,0,0,1,.83-.29v-.5l2-1a1.09,1.09,0,0,0,.5.09,1.66,1.66,0,0,0,.75-.17,5.06,5.06,0,0,1,.58-.25.33.33,0,0,0-.08.25c0,.06,0,.08,0,.08s0,0,0,.09-.07.12-.21.2-.45.27-.95.54v.5l-1.33,1h-.66l.16.25a17.8,17.8,0,0,1-2.11,1.12,14.89,14.89,0,0,1-1.79.7v.5h.83c.33,0,.28.19-.16.58l-1,1.33.33.33c-.33.22-.66.47-1,.74s-.31.59.08.92l-.5.83-.66-.17a1.78,1.78,0,0,1-.42,1.74A7.22,7.22,0,0,0,76.08,54a.29.29,0,0,0-.17-.08c-.11,0-.21.08-.29.25a.44.44,0,0,0,0,.41l-1,.75v.5l-1.16.82v.5l-1.58,1-.16.5-1,.49-1.57,1v.5c-1.39.83-2.82,1.63-4.32,2.4s-2.93,1.58-4.31,2.41L60,65l-.17.17.34.66a8.79,8.79,0,0,0-2.45,1.08,2.6,2.6,0,0,1-2.37.41l-2.07,2,.17,2.4c-.61,0-.92.53-.92,1.58a11,11,0,0,0,.13,1.57,10.27,10.27,0,0,1,.12,1.41c.11.06.18,0,.21-.16s.07-.22.13-.17.12.2,0,.42-.21.3-.38.25q.09,1.24.09,2.49v2.4c0,.83,0,1.66-.05,2.49a20.79,20.79,0,0,1-.2,2.41.29.29,0,0,0,.33-.05A.36.36,0,0,0,53.1,86c0,.5.11,1,.16,1.5A12.4,12.4,0,0,1,53.34,89a4.62,4.62,0,0,1-.41,2.08h.66L54,92.26l-.42.16-.16,1a2.38,2.38,0,0,1,1.37,1.33c.3.66.62,1.29,1,1.9a2,2,0,0,0,1.41,1.08,2.6,2.6,0,0,0,1.91.67,5.59,5.59,0,0,0,1.62-.25,7.63,7.63,0,0,0,1.37-.58l.58.33-.17,1-2,.67c.44.22.4.41-.13.58a9.23,9.23,0,0,1-1.45.33.48.48,0,0,1-.33.17.33.33,0,0,1-.25-.09,4,4,0,0,0,.58-.08,1.41,1.41,0,0,0,.13-.41c0-.17,0-.23-.21-.17l-1.66.33Zm-3-37.17a2.24,2.24,0,0,1,.83.17l.17-.34q-.26-.08-.21,0c0,.06,0,0-.13-.16h.5c.11.22.18.3.21.25s.13,0,.29.08v-.29A.43.43,0,0,1,56.5,63l1-.17a1.47,1.47,0,0,1,0-.66A6.1,6.1,0,0,0,58.82,62a.25.25,0,0,0,.17-.24c0-.12.16-.25.49-.42l.17.17c.44-.39.72-.64.83-.75s.47-.14,1.08-.08v-.17a.79.79,0,0,1,.45-.79,2.31,2.31,0,0,0,.79-.54l.33.34a3,3,0,0,1,1.21-1.41c.63-.45,1.31-.89,2-1.33a3.38,3.38,0,0,0,1.41-1.41H68a.68.68,0,0,0,.16.5l.33-.17a1.67,1.67,0,0,0,0-.37.93.93,0,0,1,0-.46l.34.66h.16v-.66c-.22,0-.36,0-.41-.12s0-.13.25-.13a11.15,11.15,0,0,1,.87-1,2.2,2.2,0,0,1,1-.75c.28-.11.43-.08.46.08s.15.08.37-.25l-.33-.33a1.75,1.75,0,0,0,.58-.5,1,1,0,0,1,.67-.33l.16-.83a2.18,2.18,0,0,0,1-.75,2.3,2.3,0,0,1,1-.74V49l-1.49-.16v.49a4.25,4.25,0,0,0-.91.09,4.16,4.16,0,0,0-.83.25v.66a2.68,2.68,0,0,0-1.16.41,1.07,1.07,0,0,1-1.08.09V51l.33.33c-.22.06-.58.19-1.08.38s-.8.23-.91.12A5.39,5.39,0,0,1,66.33,53a2.47,2.47,0,0,1-1.54.54,1.24,1.24,0,0,1-.33,0l-.33-.12v.49l.33.17a2.33,2.33,0,0,0-1.16.33,5,5,0,0,1-1.24.5v.5a3.25,3.25,0,0,0-1.21.79,2.56,2.56,0,0,1-1.2.7,12.73,12.73,0,0,0-3.11,1.7,6.29,6.29,0,0,0-2.2,2.78,1.47,1.47,0,0,1,.66,0,1.38,1.38,0,0,0-.29,1A5.84,5.84,0,0,1,54.67,63.55Zm1.5-8.38a3.07,3.07,0,0,1-.09.71,3.28,3.28,0,0,0-.08.62h.17L58,55.34l.17.5.16-.67c.11.22.17.32.17.29s.11,0,.33,0v-.33l-.33-.33a3.32,3.32,0,0,0,1.78-1,1.89,1.89,0,0,1,1.79-.62l1.07-.79c.34-.25.67-.48,1-.7l.33.33a10.26,10.26,0,0,1,1.25-1,4.11,4.11,0,0,1,1.41-.53v-.34H68c0-.27-.06-.44-.17-.49a8.83,8.83,0,0,0,2.7-1.08l2.4-1.5a5.75,5.75,0,0,1,2.7-.83v-.66a3.9,3.9,0,0,0,.58-1.2,5,5,0,0,0,.16-1.29,9.59,9.59,0,0,0-.41-2.74l.17-.49a2.23,2.23,0,0,0-.54-1,1.41,1.41,0,0,1-.29-1.2l-1-.17c-.11-.77-.37-1.16-.79-1.16a1.19,1.19,0,0,1-1-.67c-.12-.27-.1-.42,0-.45s.07-.1-.21-.21c0,.33,0,.47-.08.42a.64.64,0,0,1-.09-.42,10.88,10.88,0,0,1-1.41-.66v-1h-.25l-.16.67h-.33a6.09,6.09,0,0,0-1.21-1,4.15,4.15,0,0,0-1.28-.71c0,.23.09.32.12.29l-.29.21a2.67,2.67,0,0,0-1.86-.91,2.55,2.55,0,0,1-2-1.25A2,2,0,0,0,62.06,32a12.72,12.72,0,0,0-.34,2.08A3.4,3.4,0,0,1,61,36l-.17-.5a10.81,10.81,0,0,1-.33,2.07c-.17.61-.33,1.33-.5,2.16-.22.06-.35.12-.37.21a.77.77,0,0,1-.29.29c.27.11.4.23.37.37a3.29,3.29,0,0,0,0,.62L59,41.4c.22.06.33.07.33,0s0,.07.16.29a6.29,6.29,0,0,0-.66,1.62,21.21,21.21,0,0,0-.54,2.32c-.14.8-.24,1.43-.29,1.87l-.5.33V49.7a3.31,3.31,0,0,0-.83,1c.22.06.33.07.33,0s.06.07.17.29a2.63,2.63,0,0,0-.46,1.87,1.39,1.39,0,0,1-.87,1.53A.9.9,0,0,1,56.17,55.17Z"/><path class="cls-1" d="M99,63.72a.59.59,0,0,0-.25-.46c-.16-.14-.3-.15-.41,0a1.24,1.24,0,0,1-.91.33A4.33,4.33,0,0,1,95,62.68a13.18,13.18,0,0,1-1.86-1.45h-.34l-.16-.58h-.5A12.9,12.9,0,0,1,91,58.86a18.54,18.54,0,0,1-1.25-2.57,6.61,6.61,0,0,1-.54-2.36,1.82,1.82,0,0,1,.17-.92,1.72,1.72,0,0,1-.79-1.16A7.39,7.39,0,0,1,88.35,50a15,15,0,0,1,.17-2.41l-.25-.33V41.65a1.33,1.33,0,0,0,.37-.33c.14-.17.29-.14.46.08l-.66-1.16a.79.79,0,0,0,.41-.17c.17-.11.25-.22.25-.33a1.81,1.81,0,0,1-.41-1.33V38a.88.88,0,0,1,.08-.42l.41-.33a1.2,1.2,0,0,1-.41-1,5.25,5.25,0,0,1,.12-1.08c.09-.39.16-.69.21-.92s.19-.23.58-.2.5-.13.33-.46l-.41-2,.58-.33a1.56,1.56,0,0,1-.33-1,6.74,6.74,0,0,1,0-.79c0-.24.07-.48.12-.7h.17l.66.75a.33.33,0,0,0,.09-.25c0-.17-.12-.29-.34-.38a.6.6,0,0,1-.41-.45c.39-.11.52-.49.41-1.12a1.33,1.33,0,0,1,.59-1.45L91,24.56a.87.87,0,0,0,.41-.13.38.38,0,0,0,.25-.37l-.49-.5a4.58,4.58,0,0,0,.87-2c.24-1,.48-2.07.7-3.15A24.16,24.16,0,0,1,93.33,16q.17-.17.33.42c.06.11.13.05.21-.17s.07-.36,0-.41h-.5L94,14.68l-.34-.49a13.51,13.51,0,0,1,1-2.74,7.4,7.4,0,0,0,.7-2.74,3.83,3.83,0,0,0,.83-.58l-.33-.41a7.9,7.9,0,0,1,.62-2.2c.42-1.08.86-2.15,1.33-3.2A20.48,20.48,0,0,0,98.64.17L100.3,0l.42.83.41-.5a3.44,3.44,0,0,1,.75.62,1.67,1.67,0,0,1,.41.88l.83.33-.25.5a2.76,2.76,0,0,1,1.79,2.19,16.3,16.3,0,0,1,.49,3.74c0,1.3,0,2.33,0,3.11a1.48,1.48,0,0,1-.67-.17,7.06,7.06,0,0,1,.25.91,4.44,4.44,0,0,1,.08.92l-.83.83a1.3,1.3,0,0,1,.5,1.08,2.76,2.76,0,0,1-.45,1.41l-.88,1.41.34.33-.83,2.82-.67.41a.37.37,0,0,0-.08.25c0,.39.11.61.33.67l-.83.66.42.5a8.31,8.31,0,0,0-.87,1.45c-.25.53-.49,1-.71,1.53v-.16s-.16.28-.33.83-.31,1-.42,1.33h-.49L98.72,30c-.22-.17-.37-.18-.45,0s.07.21.45.21l-.33.83-.83.33c.28.39.18.94-.29,1.66a10,10,0,0,1-1.12,1.49l-.33-.17v.17l-.5.83c.11.06.21,0,.29-.12s.16-.21.21-.21.06.07,0,.21-.11.18-.16.12l-.67.5v.33c0,.39-.1.64-.29.75l-.58.33c-.19.11-.29.47-.29,1.08h-.66a1,1,0,0,1,.16.58,1.69,1.69,0,0,1-.33,1,3.67,3.67,0,0,0-.5,1l.5.83-.17,1a.88.88,0,0,1-.29,0l-.2,0c-.34,0-.5.08-.5.25s.11.28.33.5l.5.5a1.33,1.33,0,0,0-.17.74,3.8,3.8,0,0,0,.17,1.12,1.94,1.94,0,0,1,0,1.12h-.25l.08.91-.33.25.25,2.58a2.81,2.81,0,0,1,.46,1.53q.12,1.2.12,2.61c.22.12.4.45.54,1s.26,1.12.37,1.7.2,1,.25,1.29l.5.16.33,1,1,.58c-.22.22-.21.41,0,.58s.4.14.45-.08l1.46.83a1.7,1.7,0,0,0,.66.2c.25,0,.84.13,1.78.29l1.08-.66c0,.22,0,.3.29.25s.29-.17.13-.33c.22-.11.65-.31,1.28-.58s1-.36,1.21-.25l-.17.83h-.5a4,4,0,0,1-2,1.32l-.16-.24-1.17,1ZM93.83,33.27a1,1,0,0,1,.17.54v.62h.66q.16-.59.33-1.08a.9.9,0,0,1,.83-.58l.33.17-.83-.5h.5a2.66,2.66,0,0,1,.13-.83,8.34,8.34,0,0,0,.2-.83h.17l.16.75a4.09,4.09,0,0,1,.67-2.45,9.21,9.21,0,0,1,1.57-1.95c-.16,0-.24-.05-.24-.17a.28.28,0,0,0-.17-.25l1.16-1.32c-.22-.17-.32-.26-.29-.29s0-.15,0-.38l.46-.16.37-.17a2.05,2.05,0,0,1-.25-.83l.09-.16h.49c0-.89.11-1.41.34-1.58a3.2,3.2,0,0,0,.74-1.24l-.25-.83a2.72,2.72,0,0,0,1-1.12,6.36,6.36,0,0,0,.12-1.46,1,1,0,0,1,.33-.33.56.56,0,0,0,.25-.41l-.33.08-.17-.41a2.92,2.92,0,0,0,.71-1.54,6.8,6.8,0,0,1,.46-1.7c-.23,0-.34,0-.34-.17V12.2a3,3,0,0,0,.34-1.21c0-.52.08-1.09.08-1.7s0-1.2,0-1.78,0-1,0-1.37L103.12,6a1.15,1.15,0,0,1-.25-.37.93.93,0,0,0-.16-.29h-.17a4,4,0,0,1-.87,2,4.7,4.7,0,0,0-1,2l.16.09a.74.74,0,0,1-.37.49,1.12,1.12,0,0,0-.46.5,1.16,1.16,0,0,1,.42.75,1.43,1.43,0,0,1-.5,1,5.06,5.06,0,0,0-.75.92l.42.08.16.25a3.23,3.23,0,0,0-.66,1.74,3,3,0,0,1-.75,1.74v-.16q-.17-.16-.12-.21s-.1-.07-.38-.13a2.78,2.78,0,0,0,.21.46,2.15,2.15,0,0,1,.21.46c-.22,0-.32.08-.29.08s0,.11-.13.33l.25.08-.58.25a1.48,1.48,0,0,1,.25.92,3,3,0,0,1-.58,1.7,5.09,5.09,0,0,0-.75,1.61.81.81,0,0,1,.25.59,2.3,2.3,0,0,1-.16.78,7.55,7.55,0,0,0-.25.79,2.34,2.34,0,0,0-.5.25,3.59,3.59,0,0,0-.5.42h.34l.49.33A5.7,5.7,0,0,0,95,29.29a1,1,0,0,0-.58.78,6.31,6.31,0,0,0-.08,1c.11.17.18.22.2.17s.07,0,.13.33c-.33.33-.5.58-.5.75a1.17,1.17,0,0,0,.08.29,1.62,1.62,0,0,1,.09.62Z"/><path class="cls-1" d="M111.42,58.66h-.83l-.33-.67-.83.33-1-.66-.16-1a1.24,1.24,0,0,1-1.29-.74,3.66,3.66,0,0,1-.46-1.83,2.82,2.82,0,0,1,.34-1.32l-.67-.17a2.37,2.37,0,0,0,0-.79,5.8,5.8,0,0,1,0-.7l.67-.5h-.5v-.08l.16-.09v-.33a2.75,2.75,0,0,1,.17-1q.16-.46.33-.87l-.33-.5a3,3,0,0,0,.46-1.45,2.12,2.12,0,0,1,.54-1.37l.24.16.17-.66-.41-.33a6.21,6.21,0,0,0,1-2.08l.75-2.65a5.74,5.74,0,0,1,.87-2l.16.33v-.83h-.16a7.88,7.88,0,0,1-1,.66l-1.16.67c-.06-.11,0-.22.21-.34s.23-.16.12-.16h-.74A1.94,1.94,0,0,1,106,38.91a4.48,4.48,0,0,1-1-.12,9.29,9.29,0,0,0-1.2-.21,2.65,2.65,0,0,1-.33-1.33l.49-.5a1,1,0,0,1-.16-1h.5v-.83l.49-.33.17.49.66-.16v-.17c0-.44.28-.66.83-.66l-.33.83.17.33,2.4-.5c-.05-.22.24-.5.87-.83a6.34,6.34,0,0,0,1.12-.66l1,.33a1.69,1.69,0,0,1,.54-1,7.35,7.35,0,0,1,.79-.71c.11-.38.23-.77.37-1.16a5.47,5.47,0,0,0,.29-1.16l1-.17.33-.83a1.46,1.46,0,0,1,1.24-.25,3.19,3.19,0,0,0,1.25.09l.33.83a1.36,1.36,0,0,1,.75-.17,4.71,4.71,0,0,1,1.07.17,1.63,1.63,0,0,0,.5-.38c.06-.08.11-.12.17-.12a.85.85,0,0,1,.29,0L121,29l-.16-.49,1.82-.33.17.49.33-.66H125l-.33-.5.17-.16c.33-.06.68-.1,1-.13s.73,0,1.12,0v-.5l.91.17-.33-.33.49.33a4.91,4.91,0,0,0,1.62-.21c.8-.19,1.2-.46,1.2-.79a2.76,2.76,0,0,0,.71.09h.79a25.35,25.35,0,0,0,2.86-.17c1-.11,1.89-.19,2.78-.25l.33.66V25.8l.67.5a.46.46,0,0,1,.33-.33l.49-.17a1.85,1.85,0,0,0,.79.71l1,.29a1.26,1.26,0,0,1,.08.5c0,.49-.33.74-1,.74a8.33,8.33,0,0,1-2.4-.41c-.89-.28-1.47-.44-1.74-.5v.17l.49.16a1.42,1.42,0,0,1-1.16-.5h-.16a2,2,0,0,0-1.16.34l-1-.34a1.27,1.27,0,0,1-1.16.5v-.08a.4.4,0,0,0-.29-.37,4.89,4.89,0,0,0-.54-.21l-.33.66-3.16.5c0-.06-.08-.14-.25-.25s-.24-.08-.24.08l.83,1.5h.49A2.76,2.76,0,0,1,130,30.7a5,5,0,0,1,.29,1.74,6.3,6.3,0,0,1-.2,1.53,7.87,7.87,0,0,1-.54,1.46.25.25,0,0,1,.37,0,1,1,0,0,1,.29.33.84.84,0,0,0-.37.87c.08.3-.13.68-.62,1.12a.8.8,0,0,1,.24.58,2.07,2.07,0,0,1-.08.62c0,.2-.11.4-.16.62h-.67v1.37a1.43,1.43,0,0,1-.16.63l-.67.16.33.66-1.57,3.24-.83.17v1.32c-.22.28-.42.54-.58.79a3.52,3.52,0,0,0-.42.87,1.73,1.73,0,0,0-.79.33,1.48,1.48,0,0,1-.7.34v.49l.5.17a12.09,12.09,0,0,0-1,1.12,2.86,2.86,0,0,1-1.33.87v.17h.34a8.43,8.43,0,0,1-.67.91c-.11.11-.39.36-.83.75.17,0,.21.14.13.25s-.18.08-.29-.09c-.06.5-.25.75-.58.75a.79.79,0,0,0-.75.58h.16l-.16.25c-.39.28-.76.55-1.12.83a1.83,1.83,0,0,1-1.37.33v.66h-.08a1,1,0,0,0-.75.38,1.34,1.34,0,0,1-.83.45,11,11,0,0,1-1.49.25,12.58,12.58,0,0,1-1.5.09l-.16-.5Zm1.49-1.75a3.89,3.89,0,0,0,1.66-.58l.17.5.49-.17c.17-.82.56-1,1.17-.66a1.5,1.5,0,0,1,.49-1.08l.17.5a2.24,2.24,0,0,1,.83-1.49,8.32,8.32,0,0,1,1.33-.83,1.52,1.52,0,0,0,.83-.83c-.23-.39-.06-.93.49-1.62s.94-1.15,1.17-1.37a1,1,0,0,0,.66.33l.17-.16a1.64,1.64,0,0,1-.5-1,3.16,3.16,0,0,0,1-1.2c.22-.47.45-1,.67-1.45l.5.33a.78.78,0,0,1,.33-.67l-.29-.37a1.17,1.17,0,0,1,0-.46,4.07,4.07,0,0,0,.91-1.49,21.37,21.37,0,0,0,.87-2.45,7.54,7.54,0,0,0,.37-1.78l.5-.17c-.22-.11-.32-.16-.29-.16s0-.11,0-.33h.5l.16-.17A6,6,0,0,1,127,36c0-.61,0-1.23,0-1.87a5.72,5.72,0,0,1,.12-1.2h-.5a2.58,2.58,0,0,0-.91-1.54,2.56,2.56,0,0,0-1.41-.37,7,7,0,0,0-2.2.41,6.9,6.9,0,0,1-2.28.42,2.27,2.27,0,0,1-.66-.08v.33l.29.12a.38.38,0,0,1,.2.21,4.55,4.55,0,0,0-1.36.37l-1.29.62v.17a.86.86,0,0,1,.5.33c-.39.72-.79,1.5-1.21,2.33a13.28,13.28,0,0,0-.95,2.48c-.17,0-.28,0-.33-.08a.27.27,0,0,0-.17-.08c-.05,0-.16.28-.33.83h.17l.33-.33v.33l-.33.5-.34-.17V40.9l-.49.17c.22.11.22.45,0,1a12.08,12.08,0,0,1-.83,1.75c-.33.58-.56.95-.67,1.12a6.24,6.24,0,0,1-.29,2.07,29,29,0,0,1-.87,2.86,5.28,5.28,0,0,1-1,1.87,4.45,4.45,0,0,1,.45.79,2.05,2.05,0,0,1,.21.87,1.24,1.24,0,0,1,0,.33,1.51,1.51,0,0,1-.13.33q-.33-.17-.33.33a.81.81,0,0,1,.42.34.35.35,0,0,1-.09.49,11.62,11.62,0,0,1,1.17,1.17A1.23,1.23,0,0,0,112.91,56.91Z"/><path class="cls-1" d="M157,56.66h-1.83l-.17-.49c-.27,0-.58,0-.91,0a3.38,3.38,0,0,1-.91,0A4.3,4.3,0,0,0,152,54.55a2.92,2.92,0,0,1-.87-1.87l.33.17a10.18,10.18,0,0,1-.58-2.16c-.11-.72-.19-1.44-.25-2.16a1,1,0,0,1-.29-.62,5.8,5.8,0,0,1,0-.7c0-.06,0-.09,0-.09s0,0,0-.08a1.79,1.79,0,0,1,.24-.79,1.1,1.1,0,0,0,0-1h-.33c0-.17,0-.43,0-.79s0-.73,0-1.12a13,13,0,0,1,.08-1.37,8.9,8.9,0,0,1,.17-1l.5-.33v-.08a.54.54,0,0,0-.38-.5q-.37-.16-.12-.75a3.51,3.51,0,0,0,.21-1.24c0-.61,0-1.19,0-1.74v-.92a1.34,1.34,0,0,0-.09-.58,3.07,3.07,0,0,1-2-.2,8.46,8.46,0,0,0-2-.63c0,.39-.19.63-.41.71a2.84,2.84,0,0,0-.75.45h.33l-.16,1h.16l.17.5-.66.5c-.23.16-.17.38.16.66l-.5.66.17.33a3.43,3.43,0,0,1-.46.63.72.72,0,0,0-.2.54,1.2,1.2,0,0,0,.16.66c-.05.06-.15,0-.29,0a.35.35,0,0,1-.21-.29c-.05.39-.11.74-.16,1.08a3.2,3.2,0,0,0,0,1.07l-.5.17.17.33-1,.67a3.86,3.86,0,0,1,.25,1,3.78,3.78,0,0,1-.25,1.16l-.83.17.33.66-.66.5.16.5a7.61,7.61,0,0,1-.49,1h-.33l-.17-.66h-.17v.33l.17.67a.76.76,0,0,1-.33.12c-.17,0-.22.1-.17.21l.5.16c-.33.06-.51.14-.54.25s-.18.2-.46.25a1,1,0,0,0-.16-.62,3.19,3.19,0,0,1-.33-.54,4.37,4.37,0,0,0,.54-.91,15.18,15.18,0,0,0,.66-1.62,5.06,5.06,0,0,0,.29-1.12l.66-.33V43.56h.5l-.33-.25c.28-.11.47-.53.58-1.25a2.89,2.89,0,0,1,.75-1.66l.16.5a8,8,0,0,1,1.5-4.81l-.34-.33a2.36,2.36,0,0,0,.58-1.25c.12-.55.2-1,.25-1.41-.49-.16-.72-.36-.66-.58a1.54,1.54,0,0,0-.17-.91l-.16.17a2.69,2.69,0,0,1-.58-1.5,2.6,2.6,0,0,1,.16-.87c.11-.3.22-.65.34-1a1.68,1.68,0,0,1-.25-.91,3.11,3.11,0,0,1,.16-1H144l.17-1.33c.11-.11.19-.15.25-.13s.14,0,.25-.2v-.25q.83-2.32,1.41-2.49a1.3,1.3,0,0,0,.74-.42.48.48,0,0,0,.34.09.39.39,0,0,0,.29-.13,1,1,0,0,1,.45-.21l.25-.08c.11-.05.13,0,0,.21s-.09.29,0,.29l.33-.5.5.67a1.54,1.54,0,0,0-.33,1h.5l-.33,2.08-.5.08a.55.55,0,0,1,.41.5,1.07,1.07,0,0,1-.25.66,2.12,2.12,0,0,1-.49.5l.33.33-.83.17v.16l.66.17h-.33l-.33.33-.33,1.66c-.17-.06-.21.05-.13.33s-.1.78-.54,1.49v.34l.17.33c.11.27.37.39.79.33a2.94,2.94,0,0,1,1,0l2.33-2.32a5.93,5.93,0,0,1,2-1.37,9,9,0,0,1,3.28-.46v.08a1,1,0,0,1-.09.38,1.12,1.12,0,0,0-.08.37h1v.33l-.5.17a1,1,0,0,1,.08.41,1,1,0,0,0,.08.42l-.49.16a.7.7,0,0,1,.16.5,1.15,1.15,0,0,1-.12.5.63.63,0,0,0,0,.5l-.5.16c.27.23.4.42.37.58a5.55,5.55,0,0,0,0,.83l-.5.09a3.16,3.16,0,0,1,.33.91l-.66.08v.5h.5v1l-.5.16.33.33-.5.17a3.23,3.23,0,0,0,.42.29c.22.14.19.21-.08.21-.17.16-.2.25-.09.25s.2.13.25.41l-.66.5c.39.11.57.28.54.5a6.37,6.37,0,0,0,0,.83l-.67.16c.39.22.58.47.58.75a1.75,1.75,0,0,1-.25.87,3.35,3.35,0,0,0-.33.87c.17,0,.27.13.29.37s0,.41,0,.46a1.32,1.32,0,0,1,.34,1h-.67a.76.76,0,0,0,.38.29l.45.2c0,.28,0,.58,0,.92s.05.63.05.91a5.58,5.58,0,0,1-.17,1.33,4.48,4.48,0,0,1-.58,1.32H156a2.93,2.93,0,0,0,.29,1.21c.19.41.37.78.54,1.12l-.5.33a1.19,1.19,0,0,1,.54.08l.46.33-.5.42a3.85,3.85,0,0,1,.66,0,2,2,0,0,0,.67,0l-.17.5h.5v-.5c.11,0,.3,0,.58,0s.41,0,.41-.21c-.22,0-.36,0-.41-.08s0-.08.25-.08a19.18,19.18,0,0,1,2-2.58,6.23,6.23,0,0,0,1.49-2.9l.83.17a3.84,3.84,0,0,1,.13-1.83,4.85,4.85,0,0,1,1-1.91,2.38,2.38,0,0,1,1.54-.91.5.5,0,0,1,.25.42,2,2,0,0,1-.25.74.81.81,0,0,0-.33.17c-.06,0-.14.14-.25.25v.49a1,1,0,0,0,.08.42l-.5.17.17.33c-.22.22-.35.3-.37.25s-.07.14-.13.58a5.6,5.6,0,0,1-1.24,3.15A23.54,23.54,0,0,0,161.94,52v.5a1.9,1.9,0,0,1-1,.83V54l-.54.17c-.2,0-.18.16,0,.33a1.65,1.65,0,0,0-.95.21,4.84,4.84,0,0,0-.71.62l.33.33a3.78,3.78,0,0,1-.7.12,6.56,6.56,0,0,1-.79.05Z"/><path class="cls-1" d="M174.89,59.65l-.17.33-.25-.25a3.57,3.57,0,0,1-2.65-1.07l-.17.24a10,10,0,0,1-1.74-2.15l.33-.25-.17-.42-.25.09L169.16,55l.17-.5a3.54,3.54,0,0,1-.67-1.66h.09l.24.33.17-.5-.33-.41c-.06-.28-.17-.87-.33-1.79a12.76,12.76,0,0,1-.25-2.28c0-.5.05-.8.16-.91l-.24-.83h.58c0-.05,0-.33-.09-.83s-.09-1-.12-1.53,0-.9,0-1.12l.49.16v-.25l-.41-.5.17-.82.24.08v-.42l-.24-.49h.41a8.3,8.3,0,0,1-.12-.83,7.24,7.24,0,0,1,0-.75l.34-.25-.34-.25.42-2-.17-.08a1.68,1.68,0,0,0,.38-.87,7.31,7.31,0,0,1,.12-.87l.33-.09-.08-.83h.25l.25-.74c-.17.11-.25,0-.25-.21s-.06-.35-.17-.29a3.92,3.92,0,0,0,.46-1.25,3,3,0,0,1,.54-1.24l-.25-.5.33-1,.42.08.25-.25h-.67l.09-.33.82-.17v-.41l-.66-.09c.06-.11.11-.23.17-.37s.05-.23,0-.29l.33-.41-.08-.34.58-.91,1.24.33-.17-.58h.09a7.52,7.52,0,0,0,1.49.92,1.5,1.5,0,0,1,.83,1.41h.58a1.16,1.16,0,0,0,1.08,1,2,2,0,0,1,1.41.79l.42-.33.91.58-.17.41a5.64,5.64,0,0,1,2.12.25,1.73,1.73,0,0,1,1.12,1.75l.5-.42a2.32,2.32,0,0,1,.91,2l-.33.08.16.92a1,1,0,0,0-.62,1.16,1.26,1.26,0,0,1-.37,1.24h-.25a2.38,2.38,0,0,1-1.29,1.62,4.89,4.89,0,0,0-1.7,1.45l-.16-.41h-.09l-.08.66-.83.58v.25l-.58.25.08.08h-.5a3.76,3.76,0,0,1-.83.63,6.92,6.92,0,0,1-.91.45l.08-.25a3.71,3.71,0,0,0-.62.63,1.72,1.72,0,0,1-.7.53l-.09-.24-.58.33.25.16-1.41.17-.08.08.08.83-.66.08c.38.06.58.56.58,1.5a7.25,7.25,0,0,1-.21,1.7,4.36,4.36,0,0,1-.37,1.12h.5v.41l-.17-.08a6.77,6.77,0,0,0,.29,1.95,16.24,16.24,0,0,1,.46,2l-.17-.08a2.27,2.27,0,0,0,.33.95,1.71,1.71,0,0,0,.67.79l-.17.75h.08l.25-.34.83.59v.49c.61,0,1.21,0,1.79,0a10.67,10.67,0,0,0,1.7-.21L179,55.5l.83-.41.08.5.25-.92h.17v.5h.08v-.66h.08l.09.5.66-.67-.25-.16,1.58-1.83h.33l.58-1.08.33.08-.33-.24a2.69,2.69,0,0,1,.5-.79c.22-.25.41-.49.58-.71l.25.09L185,49l.25.16a2.1,2.1,0,0,1,.2-.87,4.06,4.06,0,0,0,.29-.78l.34.08a2.54,2.54,0,0,1,1.41-2.32l-.42-.34.42-.41.83-.17v1.33H188l.17.5-.5.25.33.33-.25.75h-.08q-.33,0-.33.24a2.75,2.75,0,0,1-.08.59l-.34-.5v.33a3.62,3.62,0,0,1-.24,1.24l-.75-.25a.7.7,0,0,1,.17.5,1.29,1.29,0,0,1-.42.92l.33.24c-.16.23-.25.27-.25.13v-.29l-.16.16.08.42h-.41l-.5.5.33.49-.33-.08a9.73,9.73,0,0,1-.87,1.66c-.47.78-.9,1.19-1.29,1.25a2.08,2.08,0,0,1-.41,1.28,4.22,4.22,0,0,1-1.08,1v-.67l-.67.58c0,.22.09.28.25.17a.75.75,0,0,0,.33-.42l.09.58a1.53,1.53,0,0,0-.83.42,1.13,1.13,0,0,1-.83.33,1.67,1.67,0,0,1-1.37,1.33,6.65,6.65,0,0,1-2,.16l-.09.17-.49.08v-.25Zm-1.17-18.83a1.92,1.92,0,0,0,.09.75l1.41-.34a.82.82,0,0,1,.16-.58c.11,0,.2-.08.25-.25l.42.34q.16-.68.66-.75l-.25-.17.87-.66a6.12,6.12,0,0,0,.79-.66l.17.08.08.25.21-.21a1.33,1.33,0,0,1,.12-.12,1.33,1.33,0,0,1-.16-.42,1.27,1.27,0,0,0,.66-.83l.41.08-.16-.41a.8.8,0,0,0,.33-.08,1.08,1.08,0,0,0,.25-.17l-.25-.17a.73.73,0,0,0,.5-.24,1.39,1.39,0,0,1-.08-.59l.08-.08a1.19,1.19,0,0,1,.29,0,.85.85,0,0,0,.29,0,1,1,0,0,1-.33-.74,1.2,1.2,0,0,0,.58-.08,3.63,3.63,0,0,1,0-1c0-.25,0-.57,0-1a.5.5,0,0,1-.33-.46.79.79,0,0,0-.25-.54l-.17.17-.41-.25.08-.33a2.71,2.71,0,0,1-.66-.29,1.28,1.28,0,0,0-.67-.21V30.7a1.37,1.37,0,0,1-.7-.17,1.28,1.28,0,0,0-.63-.16c0-.5-.24-.7-.74-.59a.86.86,0,0,1-.29.67,1,1,0,0,0-.21.91.37.37,0,0,0-.25.08.72.72,0,0,1-.25.17c.11.17.09.61-.08,1.33a15.63,15.63,0,0,1-.66,2.11,4.64,4.64,0,0,1-.67,1.29h.42a14,14,0,0,1-.5,2.11A8.29,8.29,0,0,0,173.72,40.82Z"/></g></g></svg>