<svg xmlns="http://www.w3.org/2000/svg" viewBox="0 0 208.63 137.81"><defs><style>.cls-1{fill:#004467;}</style></defs><g id="Layer_2" data-name="Layer 2"><g id="Layer_1-2" data-name="Layer 1"><path class="cls-1" d="M101.92,17.58c-.06.2-.11.39-.18.59a.24.24,0,0,1-.17.06.74.74,0,0,1-.29-.12,2.43,2.43,0,0,1-.26-.29,2.58,2.58,0,0,1,.31-.13c.16-.06.33-.1.49-.15Z"/><path class="cls-1" d="M106.69,112.06l.83,0q3.2,8.6,6.45,17.15,3.18-8.43,6.47-16.81l.85,0V130l-.58,0V113.4q-3.3,8.37-6.5,16.8h-.46c-2.2-5.67-4.34-11.35-6.47-17"/><path class="cls-1" d="M129.66,129.16,140,128.9v.62l-11.15.29v-.52q4.92-7.93,10-15.76l-9.57-.24v-.63l10.37.27v.44Q134.59,121.21,129.66,129.16Z"/><path class="cls-1" d="M146.18,123.08a7.34,7.34,0,0,1,.64-3.1,4.93,4.93,0,0,1,1.81-2.13,4.69,4.69,0,0,1,2.64-.73,4.9,4.9,0,0,1,4.44,2.84,6.82,6.82,0,0,1,.67,3v.51a7.05,7.05,0,0,1-.64,3,5.11,5.11,0,0,1-1.8,2.12,4.93,4.93,0,0,1-2.64.82,4.67,4.67,0,0,1-2.65-.68,4.79,4.79,0,0,1-1.81-2.08,7.16,7.16,0,0,1-.66-3.06Zm.58.47a6.32,6.32,0,0,0,.58,2.74,4.48,4.48,0,0,0,1.6,1.92,4,4,0,0,0,2.36.64,4.18,4.18,0,0,0,3.24-1.59,6,6,0,0,0,1.25-3.9V123a6.12,6.12,0,0,0-.58-2.66,4.64,4.64,0,0,0-1.61-1.93,4.25,4.25,0,0,0-2.33-.72,3.94,3.94,0,0,0-3.25,1.53,6.09,6.09,0,0,0-1.26,4Z"/><path class="cls-1" d="M167.79,129a4.66,4.66,0,0,1-2.59-.66,5,5,0,0,1-1.84-2,6.1,6.1,0,0,1-.67-2.87V123a6.53,6.53,0,0,1,.65-2.9,4.92,4.92,0,0,1,1.77-2,4.43,4.43,0,0,1,2.47-.7,4.23,4.23,0,0,1,3.18,1.37,4.89,4.89,0,0,1,1.24,3.48v.58l-8.73,0v.62a5.59,5.59,0,0,0,.6,2.57,4.46,4.46,0,0,0,1.65,1.81,4.06,4.06,0,0,0,2.27.61,4.93,4.93,0,0,0,2-.42,4.19,4.19,0,0,0,1.46-1.18l.41.27A4.61,4.61,0,0,1,167.79,129Zm-.21-11.09a3.83,3.83,0,0,0-2.89,1.2,5.2,5.2,0,0,0-1.39,3.15l8.12,0v-.13a4.58,4.58,0,0,0-.5-2.1,3.76,3.76,0,0,0-1.38-1.52A3.68,3.68,0,0,0,167.58,117.9Z"/><path class="cls-1" d="M180.43,114.82v2.9l2.65,0v.53l-2.65,0v7.63a2.81,2.81,0,0,0,.4,1.68,1.51,1.51,0,0,0,1.35.51,9.58,9.58,0,0,0,1.15-.12l.1.5a4,4,0,0,1-1.22.15,2.18,2.18,0,0,1-1.82-.6,3.17,3.17,0,0,1-.56-2v-7.71l-2.15,0v-.54l2.15,0V114.8Z"/><path class="cls-1" d="M190.35,114.61a.48.48,0,0,1,.17-.37.56.56,0,0,1,.42-.15.63.63,0,0,1,.43.17.52.52,0,0,1,.17.38.48.48,0,0,1-.17.37.65.65,0,0,1-.43.14.61.61,0,0,1-.42-.16A.52.52,0,0,1,190.35,114.61Zm.88,13.56h-.58V117.85h.58Z"/><path class="cls-1" d="M203.41,127.54a4.66,4.66,0,0,0,2.61-.77,2.53,2.53,0,0,0,1.13-2h.58a3,3,0,0,1-1.3,2.29,5.24,5.24,0,0,1-3,.94,4.45,4.45,0,0,1-3.47-1.26,5.05,5.05,0,0,1-1.29-3.67v-.33a5,5,0,0,1,1.29-3.63,4.45,4.45,0,0,1,3.45-1.31,5,5,0,0,1,3.06,1,3.21,3.21,0,0,1,1.28,2.47h-.58a2.73,2.73,0,0,0-1.11-2.11,4.21,4.21,0,0,0-2.65-.83,3.87,3.87,0,0,0-3,1.16,4.75,4.75,0,0,0-1.1,3.35v.32a4.56,4.56,0,0,0,1.11,3.27A3.88,3.88,0,0,0,203.41,127.54Z"/><path class="cls-1" d="M90.47,112.08l-.61.41c0-.13,0-.23,0-.33v-.82a.28.28,0,0,0-.07-.13s-.07.08-.07.12c0,.57-.08,1.13-.08,1.7,0,.36-.24.51-.46.75,0-.07,0-.1,0-.13q0-1.07,0-2.13a2.8,2.8,0,0,1,0-.4.14.14,0,0,0-.14-.18,1.55,1.55,0,0,1-1.1-.83,3.93,3.93,0,0,1-.53-1.74A4.19,4.19,0,0,1,88,105.9a2.9,2.9,0,0,1,1.23-1,.71.71,0,0,1,.18-.08.65.65,0,0,1,.8.11,7.68,7.68,0,0,0,.63.5c.15.12.29.27.44.38s.17.08.2-.08a1.15,1.15,0,0,0,0-.41,5.71,5.71,0,0,1,.1-1.43,4.93,4.93,0,0,0,0-1.58,1.61,1.61,0,0,1,.08-.92,2.19,2.19,0,0,0,.12-.33,3.16,3.16,0,0,1,1.52-1.62q.42-.24.84-.45a1.29,1.29,0,0,1,.38-.12c.12,0,.15-.06.14-.17A1.91,1.91,0,0,1,95.5,97a1.25,1.25,0,0,1,1.08-.19.83.83,0,0,1,.55.45,3.37,3.37,0,0,1,.46,1.2s.07.12.12.15a2.35,2.35,0,0,0,1.08.19h.7c.21,0,.33-.08.31-.29a2,2,0,0,0-.09-.55c0-.18-.13-.2-.31-.15a3.87,3.87,0,0,0-1,.45c-.13.09-.22.07-.26,0a.22.22,0,0,1,0-.18,7,7,0,0,1,1-1,.44.44,0,0,0,.17-.34,3.66,3.66,0,0,0-.1-.81.86.86,0,0,1,.27-1,3.8,3.8,0,0,1,1.22-.7c.45-.15.9-.31,1.36-.42a3.73,3.73,0,0,1,.82,0,.26.26,0,0,1,.18.09,2.82,2.82,0,0,1,.26.44c.21.43.4.88.61,1.31a.75.75,0,0,0,.64.45c.41,0,.82.12,1.23.18,0,0,0,0,.08,0l-.17.06c-.44.11-.88.21-1.32.33-.25.06-.27.19-.11.39s.35.48.52.72a.17.17,0,0,1,0,.24,1.29,1.29,0,0,0-.17.16.45.45,0,0,0-.1.21.29.29,0,0,1-.16.27c-.11.07-.11.15,0,.24a.17.17,0,0,1,0,.26.33.33,0,0,0,0,.41l.06.13a.24.24,0,0,1-.19.36.57.57,0,0,1-.22,0,1.49,1.49,0,0,0-.73.25.3.3,0,0,0-.12.34c0,.14.14.14.25.15h.38c.29,0,.41.22.28.48s-.18.31-.27.48-.29.57-.44.86c0,0,0,.06,0,.08a.65.65,0,0,0-.06.75c.14.37.24.75.36,1.12a.75.75,0,0,1-.14.69,1.77,1.77,0,0,0-.26.41c-.1.26,0,.43.29.47h0c.39,0,.51.14.44.55a6.19,6.19,0,0,0,.19,2.87c.05.17.05.34.09.51a.31.31,0,0,0,.11.16,7.64,7.64,0,0,0,.8.29.64.64,0,0,0,.41,0,4.17,4.17,0,0,0,.66-.35.75.75,0,0,0,.36-.79c0-.39-.09-.77-.13-1.15s-.08-.63-.11-.94c0-.16,0-.22.2-.23s.45,0,.53.32c0,0,0,0,0,0,.19,0,.15.21.16.35a5.87,5.87,0,0,0,.18,1.38.53.53,0,0,1,0,.25.42.42,0,0,0,.15.41,1,1,0,0,0,.16.12.79.79,0,0,1,.38.63.19.19,0,0,0,0,.1.74.74,0,0,1,0,.72,2.52,2.52,0,0,0-.08.55c0,.18,0,.33-.26.37a.17.17,0,0,0-.13.22c.06.52.12,1,.19,1.58.09.71.21,1.42.29,2.14.12,1,.22,2,.32,3s.21,2,.33,3c.09.82.19,1.64.28,2.46.18,1.54.35,3.09.51,4.63a18.06,18.06,0,0,0,.32,2.19c.12.59.15,1.2.22,1.79a3.22,3.22,0,0,0,.11.62,8.61,8.61,0,0,1,.28,1.83c.06.42.1.84.15,1.27,0,.21,0,.23-.19.26l-.32,0a.34.34,0,0,1-.42-.31c-.14-1.09-.28-2.18-.43-3.26s-.36-2.39-.52-3.59c-.09-.68-.14-1.36-.21-2-.09-.9-.17-1.81-.3-2.71-.22-1.63-.47-3.27-.53-4.92-.06-1.38-.2-2.76-.38-4.14-.13-1-.22-2-.35-3a2.67,2.67,0,0,0-.15-.62c-.06-.19-.15-.24-.36-.22a2,2,0,0,1-.42.06,6.27,6.27,0,0,1-.87-.11c-.27,0-.53-.14-.77-.2-.08.45-.17.89-.24,1.32,0,0,0,.1.08.15h0c.34.12.36.13.29.49a10.54,10.54,0,0,1-.31,1.23,1,1,0,0,0,.08.85,6.36,6.36,0,0,0,.46.69,2.08,2.08,0,0,1,.48,1.36c0,.37,0,.74,0,1.11a14.66,14.66,0,0,0,.46,2.55,8.63,8.63,0,0,1,.33,3c-.06.52-.12,1-.2,1.54s-.13.82-.23,1.22a2.07,2.07,0,0,1-.54.94,1,1,0,0,0-.27.6,3.67,3.67,0,0,0-.07,1.1,1.5,1.5,0,0,1-.15.9.37.37,0,0,0,0,.15.71.71,0,0,1-.23.48c-.19.18-.19.26-.1.5s.26.69.37,1a.78.78,0,0,1,0,.45.85.85,0,0,0,.61,1l.86.26a.38.38,0,0,1,.32.32,8.63,8.63,0,0,1,.19,1c0,.4-.18.61-.58.64s-.64,0-1,0a7.4,7.4,0,0,1-1.88-.05c-.18,0-.37,0-.56,0l-1.46-.07a.39.39,0,0,1-.39-.42c0-.64,0-1.28,0-1.92a6.66,6.66,0,0,0-.11-1,1.77,1.77,0,0,1,.08-1,2.92,2.92,0,0,0,.24-1.24,2.82,2.82,0,0,1,.47-1.59.84.84,0,0,0,.11-.43,11.47,11.47,0,0,1,.06-1.66,5.75,5.75,0,0,0,0-.83.79.79,0,0,1,.41-.85.44.44,0,0,0,.13-.14c.06-.08,0-.13,0-.19a1.31,1.31,0,0,1-.36-.3,3.27,3.27,0,0,1-.51-1.14,3.89,3.89,0,0,0-.37-.77c-.12-.23-.28-.44-.41-.66s-.26-.56-.4-.84L100,122s-.07.08-.07.11c0,.7-.11,1.4,0,2.1a3.74,3.74,0,0,1-.1,1c0,.28-.07.56-.08.83a1.24,1.24,0,0,1-.32.8.76.76,0,0,0-.14.3c0,.14-.06.3-.12.45a16.25,16.25,0,0,1-1.06,2.28.41.41,0,0,0,0,.52.33.33,0,0,1,0,.26,2.69,2.69,0,0,1-.4.92,1.16,1.16,0,0,0-.12,1c.11.42.22.84.32,1.26a1.92,1.92,0,0,1-.07,1c-.06.19,0,.21.13.31a4.66,4.66,0,0,1,.47.3c.2.13.37.28.58.4a.91.91,0,0,1,.45,1c0,.22-.09.44-.13.66a.21.21,0,0,1-.17.17,4,4,0,0,1-1.78.08c-.53-.05-1.07-.07-1.61-.07a4.32,4.32,0,0,1-1.47-.2c-.33-.12-.34-.1-.33-.46s0-.91.05-1.37a.39.39,0,0,0-.09-.26c-.18-.19-.15-.44-.2-.67a5.69,5.69,0,0,1-.12-.7,3,3,0,0,1,.06-.51c.13-.87.26-1.75.38-2.62a.88.88,0,0,0,0-.28L94,130a2.61,2.61,0,0,1-.06-.62,1.49,1.49,0,0,1,.14-.63,2.71,2.71,0,0,0,.27-1c0-.25.06-.5.1-.75a2,2,0,0,1,.13-.42,2.15,2.15,0,0,0,.18-.87,1.21,1.21,0,0,1,.12-.45,8.67,8.67,0,0,1,.38-.82c.08-.16.18-.3.26-.45a.31.31,0,0,0,0-.18,7.23,7.23,0,0,1-.07-2.41c.06-.77.2-1.55.28-2.32,0-.21,0-.42,0-.64s0-.73,0-1.09a1.36,1.36,0,0,0-.26-1,3.58,3.58,0,0,1-.36-.59c-.06-.12-.11-.14-.22,0a3,3,0,0,1-.4.3.48.48,0,0,0-.25.45,2.73,2.73,0,0,1,0,.41,1.94,1.94,0,0,1-.12.43.56.56,0,0,1-.49.38.65.65,0,0,1-.65-.32,2.84,2.84,0,0,1-.2-.58.47.47,0,0,0-.33-.42,1.49,1.49,0,0,1-.74-.57,3.14,3.14,0,0,0-.32-.31,2.18,2.18,0,0,1-.25-.28,3.57,3.57,0,0,1-.46-1.56c0-.37,0-.74,0-1.11A.47.47,0,0,0,90.47,112.08Zm3.33,4.34-.06,0-.28.08-.19.08a.87.87,0,0,0,.16.17.33.33,0,0,0,.16.07.09.09,0,0,0,.1,0A3.38,3.38,0,0,0,93.8,116.42Z"/><polygon class="cls-1" points="105.66 72.93 107.52 70.87 107.52 70.87 109.67 68.39 208.63 109.85 144.71 0 84.27 78.68 51.3 22.31 0 110.41 53.19 81.93 79.18 102.37 105.66 72.93"/></g></g></svg>