<svg xmlns="http://www.w3.org/2000/svg" viewBox="0 0 199.24 290.16"><defs><style>.cls-1{fill:none;stroke:#000;stroke-miterlimit:10;}</style></defs><g id="Layer_2" data-name="Layer 2"><g id="Layer_1-2" data-name="Layer 1"><path d="M61.18,256.57c.49-.23,1.07-.36,1.48-.6h.09l-.84-1,.06,0c-.45-.27-.92-.53-1.37-.79l-1,.3s0,0,0,0l0,0-1.21.38A13.61,13.61,0,0,1,61.18,256.57Zm-3.67,8.05,1.88.31c0-.11-.06-.2-.15-.24l-.65-.27Zm-3.7-.52v-.82l-.39-.21-2.19.67.19.51,1.75-.41Zm-7.73-4.93h0Zm11.43-5.44.87-.27-.48-.38ZM56,258.9a7,7,0,0,1,1.76,0c.25,0,.51.43.76.66,0,.08-.07.16-.11.25L57,259.37l-.11.27c.28.3.57.59.58.6l.58.05,9.71-3,.69-.78L65,255.21l-.8-.1-.38.15c0,.06,0,.12,0,.18.09.37,0,.56-.29.65l.3.07.06.4-2.36,1c0,.45-.15.92-.14,1.38l-.8-.08-.56-1.16a33,33,0,0,1-4.07.2Zm19.34,8.83c.52.13.81.3.75.62l1.18-.37a.36.36,0,0,1,0-.11l.18.06,2.34-.74c.14-.31.27-.62.38-.94s.3-.63.14-.89a1,1,0,0,1-.17-.78,11.45,11.45,0,0,1-2.44-.66l-.29,0c-.35.37-.71.74-1.1,1.09s-.87.19-1.31.28l-.29-.39,1.57-1.35c.14-.27.29-.54.44-.81l-1.18.37c.55.34-1,1-.77,1.38-1.46-.07-1.88-.28-1.94-.52l-.84.26-.09,0v.62l.86,1.05c.23-.13.47-.28.67-.41h0l.09,0,3.61.29c0,.23,0,.48,0,.71l1.36.36a16.5,16.5,0,0,1-2.42.17,2.46,2.46,0,0,1,.22.36l-1.56-.32C75.19,267.26,75.36,267.49,75.36,267.73ZM42.54,251.91V253c.67.81,1.35,1.61,2,2.42l1.27.41c-.28-.37-.52-.73-.78-1.1a3,3,0,0,1,1.09.43l.06-3.74a3.67,3.67,0,0,1-1.08-1.27l-2.54-.82,0,2,2.29.95-.49.46Zm43.6,8.35c-.41.13-.81.27-1.22.39a6.51,6.51,0,0,1-.93.13c0-.09-.09-.17-.14-.26l-5.64,1.78.17.08c0,.14.06.31,0,.43h0l1.27-.82.69,1,.42,0,1.65-.76c-.12-.18-.23-.36-.35-.53l.57-.1a5.27,5.27,0,0,0,.46.31l1.08-.49c.83.57.79,1.25.18,1.65l0,.08.92,0c.3-.61.22-1.29.78-1.82Zm.35-22.43-.27.39.27-.08ZM51.52,273s0,0,0,0h0v0a1.51,1.51,0,0,0-.46-.57c-.34-.06-.63-.14-.93-.22l0,2.23a11.16,11.16,0,0,0,1.47.77l1.38-.3c-.76-.39-1.57-.74-2.21-1.14-1.05-.67-.67-.9.77-.73.07.75,1.07,1.2,2.14,1.62l0-2-1.94-.19C51.68,272.68,51.58,272.84,51.52,273Zm17.9.65-.84.51a5.54,5.54,0,0,1,1,.24v-.61l-.09,0C69.48,273.72,69.46,273.68,69.42,273.65Zm.34-8.25v-.64l-1.06.33Zm14.75,10.88-1.18.79a7.12,7.12,0,0,0,.76.94h.28a3,3,0,0,1,.43-.08c-.18-.17-.36-.34-.37-.49A10.4,10.4,0,0,1,84.51,276.28Zm-6.64-55.63,8.94-2.82.08-5.42-14,4.41-.26.13,0,2.11,2.33-1.2H73.13L75,216.54l2.54.14a27.13,27.13,0,0,0-.32,3.24C77.23,220.16,77.54,220.42,77.87,220.65Zm-5.63,22,12.89-4.06.58-1,.79.12.08-4.92-3,.94c-.39.48-2.14.75-1.59,1.42l-1.55.45c.08.18.13.24.13.3a3.1,3.1,0,0,1,0,.86,3.32,3.32,0,0,1-.77.08,2.55,2.55,0,0,1,0-.87c.1-.4.42-.76.37-1.16l-7.75,2.44-.08,0Zm7.33-5.28.62.31-1.56,1-.67-.33ZM77,237.11c-.75,1.07-.56,2.25-2.46,2.9C75.81,239.2,74.46,237.72,77,237.11Zm-4.28-27-.08,5.43.1,0c.48-.51,1-1,1.57-1.62,2.6,1.3,2.4-.71,3.8-.87a4.09,4.09,0,0,1,.56.62l6.53-2.06a3.4,3.4,0,0,1,1.7-1.35l.07-4.6-14.16,4.47ZM43.23,270.26a2.69,2.69,0,0,0,.27-.2l-.74-.24C42.92,270,43.09,270.11,43.23,270.26Zm35.54-48.55c.46.82,1,1.95.81,2.1a2.68,2.68,0,0,1-.47.22l-.37-.86-.48,0c-.32.55-.65,1.09-.89,1.48l-2.56.82c.38-1,.68-1.67.9-2.22-.44-.06-.87-.1-1.29-.13l-1.79.56-.09,0-.08,5.43,12.32-3.89.9-.51c0,.07,0,.15,0,.23l1-.32,0-1.28-3.39,1.51-.2-.07,3.2-2.57-1.73.14c-.31-1.64-.07-2,2.17-1.91v-.62a5.54,5.54,0,0,1-1.2-.24Zm7.32,41.66a3,3,0,0,0-.17.68l.16.12Zm-13.5-43.09a4.59,4.59,0,0,1,1,.17c1.28.36,1.6.27,2.19-.34l-2.23.11c.16-.37.26-.63.34-.83l-1.32.2ZM38.18,248.53l-1.09-.33a5.91,5.91,0,0,1-2.65-1l-4.73,1.74c.69.19.3.72.38.88a19.53,19.53,0,0,1,3.7,1.81A14.38,14.38,0,0,1,35,250.38l-.86-.81.64-.14.77.43a8,8,0,0,0,.87-1c.19.62.37,1.19.56,1.78l2.07,1.15c-1.51,0-2.63.5-2.81,1l4.12,1.32,0-2.56-.35-.06c.13-.51.25-1,.37-1.53l0-1.27L38.39,248C38.32,248.17,38.26,248.34,38.18,248.53Zm20.52,22.4-1.9-2.17-.94.3v.56a4,4,0,0,1,.91.49A4.89,4.89,0,0,0,58.7,270.93Zm-23.57-3.56h0l.82.7-.81.06,1.34.37.88-.3,2.65,1,.14-.08v-.05l-.07-.11Zm-7-17.21,4.06,1.31a4.11,4.11,0,0,0-2-.73,5.75,5.75,0,0,1-2.12-.78A1.5,1.5,0,0,1,28.15,250.16Zm-1.63,5.14a1.67,1.67,0,0,1,.39,0l-.38-.19Zm12.65,1.29-2.82-.14c-.84-.77-1.68-1.54-2.49-2.31l-.7.26,0,0a22.09,22.09,0,0,0,1.85,2.1,3,3,0,0,0,.32.24l.21,0s0,.08,0,.13c.43.25.94.49,1.38.74l.53.26c0-.15.17-.3.52-.42l2.36,1.2,0-2.1-1.06-.05Zm-29,10.12c0,.26.09.51.13.76a37.15,37.15,0,0,0,4.22.2l-4.34-1.43Zm22.49-2a4.66,4.66,0,0,1-.22.45l.57.18.79.05a0,0,0,0,0,0,0,1.12,1.12,0,0,1-.2-.79,6.3,6.3,0,0,1-.77,0l-.16.12Zm24,8.56-.79-.6,0,1.83,2.5-.78ZM44,271.08l.09.1-.23-.05-.36.12.7.62,1.23-1-.19-.23Zm20.77-9.16-.24.13-2.6-.82,1.74,1.68c.95.32,1.27.68.89,1.06a1.16,1.16,0,0,0-.36.59l.59.39,4.38-1.35ZM30.12,266c0,.12,0,.24.07.36l1,.66.16,0,1.35-.5-.93-.3-.25.47L30.25,266Zm38.34.74-1.66,0a6.79,6.79,0,0,0,1.34,1.73,3.11,3.11,0,0,0,1.1.42,1,1,0,0,0,.15-.26,1.3,1.3,0,0,1,.15-.2c.06-.11.12-.21.17-.32l0-.84-2,0A7.4,7.4,0,0,1,68.46,266.78Zm-28.95,3.05-3.72-.25.72,1.09-2-.76h0c-.15.11-.22.25-.42.3l-.11,0,.85.39-.31.2L33,270.57c-.34.16-.5.36-.31.65l2.08-.06-.2-.12.46-.23,3.31.95-.66.16c-.1.15-.32.35-.45.56l1.86.47c.06-.44.1-.71.15-1.08l.85.11,0-1.45-1,.43A.71.71,0,0,1,39.51,269.83Zm19.91,2.8a1.34,1.34,0,0,1-.32.14l.68.47.32-.1.32-.26-1.17-1.33-2.35-.33,1.92,1.35Zm9.64-6.43c0-.27-.39-.6-.79-1l-1.54.48a4.39,4.39,0,0,0,2.31.54S69.06,266.21,69.06,266.2Zm-.52,9.35,1,.37v0a.53.53,0,0,1,.1-.06v-.4c-.34,0-.69.07-1,.07A.08.08,0,0,1,68.54,275.55ZM30.12,269l-.73.27a7.36,7.36,0,0,0,1.84.35.81.81,0,0,0,.19-.62,7,7,0,0,1-1,0A2.4,2.4,0,0,1,30.12,269Zm2.55-4.44h.07l-.06,0Zm9.65,1.73.25.08-.25-.27ZM28.1,267.62l.55-.31c-.23-.21-.45-.43-.67-.66C27.75,266.94,27.78,267.26,28.1,267.62ZM38.73,265a5.07,5.07,0,0,0-.6.11,7.61,7.61,0,0,0,2.06.66v-.53a6.2,6.2,0,0,0-.9,0A1.44,1.44,0,0,1,38.73,265Zm-6-.42,0,0h0Zm-2.11,8.3c.54.14,1.05.3,1.57.44l.08,0-1.6-.52A.31.31,0,0,1,30.63,272.84ZM36,263l0,0s0,0,0,0Zm-8.55,8.75c0,.07,0,.14,0,.21l1.77.47a1.29,1.29,0,0,1,.09-.16L28,271.89Zm.16-3.3.13,0-.3-.08Zm12.19-22.69.08,0a.33.33,0,0,1,0-.06Zm3.25,18.76c0-.29.06-.56.09-.84-.21-.07-.42-.15-.65-.21l.69-.15c0-.06,0-.12,0-.18l-.87-.28,0,1.78a7.15,7.15,0,0,1,2.2,2.18,6.45,6.45,0,0,1,1.1.44c.11-.11.2-.22.32-.33v-.49c-.29-.2-.59-.4-.84-.61s.23-.52.38-.78l.48.21v-.69a18.43,18.43,0,0,1-1.83-.55C43.87,264.21,43.52,264.37,43.09,264.55Zm-18.78-3.89v-.27l-.14.25ZM10,274.61l4.83.72.38-.4L10,274.11Zm17.83-4.79-.35.12-.11.1-.16.12c.35,0,.7,0,1.09,0A2.17,2.17,0,0,0,27.85,269.82Zm22.21,7.76h0v.26h.58ZM27.33,260.22l-.73.77c.41.08.82.17,1.19.28Zm5.27,13.17,0,0-.07,0Zm2.54.91c-.17,0-.38-.11-.58-.23l-.17.07a1.58,1.58,0,0,1,.06.42,2.14,2.14,0,0,1-.22.75l.64.06,1.32-.86-.78-.25Zm10.73-1.52v-.29a3,3,0,0,1-.44.23ZM23.92,257.15a9.19,9.19,0,0,1,.26,1.1.34.34,0,0,1-.1.26l.27-.21v-1l-.08,0ZM46,261.63l0-.91c-.45-.43-.9-.85-1.38-1.27a5.59,5.59,0,0,0-1.23-.39c0,.2-.11.41.07.58a9.34,9.34,0,0,0,1.26.8l-1.42-.16c0,.12.1.24.15.36a1.79,1.79,0,0,0,0-.23,6.39,6.39,0,0,1,1.72,2l.77.25v-.56l-1-.53,1,.12S46,261.67,46,261.63Zm-3.54-6.85.23.07c-.08-.14-.16-.28-.23-.42Zm2.55,9.09.18-.06-.39-.12Zm-4.86-1h.05v-.64l-.57-.18A4.58,4.58,0,0,1,40.19,262.85Zm22.14,11.81-1.31.6c.11-.28.22-.54.32-.8l-.68-.15-4.77,1.47.78.63-.93.18v.08l.24.08.53,0,0,.16c.11,0,.2.08.31.1.41-.06,1-.19,1.81-.37l1.23.43a8.74,8.74,0,0,1,2.07.46l-.18.32,0,0H62c.23-.15.45-.3.69-.43l.36-.18c-.72-1-4-1-5.76-1.73,3.62.24,5.12.48,6.71,1.28l.38-.18a1.68,1.68,0,0,1,0-.63c0-.16.35-.27.76-.37l-2.54-1ZM34.91,253.75h.19l-.1,0Zm1-2.07a6.5,6.5,0,0,1-.8-1.05c0,.68-.05,1.24-.07,1.75l.53.18Zm-7,19.14,1.07.34a4.14,4.14,0,0,0,.38-1.05l-1.19-.21C29.08,270.27,28.84,270.59,28.9,270.82Zm-2.27-22.15.52-.19c0-.07,0-.14,0-.21l.16.11a14.85,14.85,0,0,1,1.23-1.29,7.42,7.42,0,0,1,1.2.44l3.36-1.24-.61-.19a7.76,7.76,0,0,1-1.77.58c.08-.41.13-.71.16-.83l-3.71-1.46-.44-.14ZM28,202.47l13.17,4.24.09-5.43-5.36-1.72Zm6-10.33-.17-.06.13.07Zm7.31,7.8,0-1.55-1.75,1Zm-.64,40.61Zm-.52-45.25-3-1.19H40l-4-1.3-.72.27a1.7,1.7,0,0,1,.29.31c.82,1.4-1.61,1.56-2.07,2.17-.1-.53-.22-1.1-.34-1.7l-5.06,1.86,10.59,3.41c.68-1.34,1.39-1.49,2.6-.79l.06-3.81-.23-.07ZM27.26,208.05l6.45-2.37-6.37-2.05Zm2.81,12.43,3-1.12c-.08-.11-.16-.24-.25-.35l-2.48-.8,2,1.12C31.06,219.41,30.38,219.84,30.07,220.48Zm8.75-5.55-2.08-.84.7-.41-1.8-.58L27.74,216l13.17,4.23.09-5.42-1.89-.6C39,214.45,38.92,214.69,38.82,214.93ZM27.44,196.86l-.07,4.42,6.44-2.37ZM72.22,244l-.08,5.43,14.24-4.49v-.35l-6.77.91-.2-.26,7-1,.07-4.7L72.31,244Zm-29.5-3.62h1.56l-1.55.9,3.61,1.16.09-5.42-3.63-1.17Zm-.08,5.19,3.63,1.56,0-3.35-3.2-1,1.17.85a7.93,7.93,0,0,1-1.61-.3Zm.28-17.84,3.64,1.16.08-5.42L43,222.27Zm.2-12.2L43,220.93l3.64,1.17.08-5.43Zm-7.07,18.73-.22-.66-.51-.16-6.72,2.48-.71.58,5.16,1.66-1.25-.55.58-.25c1,.73,3.52.82,3.84,1.82l3.05,1a1.23,1.23,0,0,1-.05-.25l.58.42.23.07h.56l.09-5.24-2.89-.93Zm-6.82-4.13c.44-.55.88-1.11,1.33-1.66l-3,1.11ZM37,227.86l-.83.56c-.79-.39-2.1-.74-2.37-1.18l-2.39.89c-.54.71-1.07,1.43-1.6,2.15l5.54,1.78c0-.15-.09-.29-.15-.45l3.73,1,.49.79,1.3.41.08-5.42L36.46,227C36.63,227.27,36.8,227.57,37,227.86Zm-.92,1.51,2.51,2.22C35.31,230.85,35,230.6,36.06,229.37Zm-8.43-6.59L31.39,224a2.32,2.32,0,0,0,.12-1.87l1.66-.18a3.74,3.74,0,0,1-.75,2.38l2.59.83.15-.18.48.18-.08.18L40.8,227l.09-5.43-5.36-1.72ZM73.79,144a15.21,15.21,0,0,0,3.31-.87l-.26-.3-3,.49ZM26.84,235.13l6.44-2.38-6.37-2Zm47-95.09c.74-.52,1.59-1,.88-1.75l-.86.23ZM43.13,214.16l3.64,1.17.09-5.43-3.64-1.17Zm35.34-75.11a10.58,10.58,0,0,0-1.44,1l3.21-1A1.7,1.7,0,0,0,78.47,139.05Zm-3.81-50c1.27.52,2.31.34,2.84-.47.32-.51.63-1,.93-1.51l-3.36,1.06a4.82,4.82,0,0,1,.7.31l-1.11.34Zm-.93,58.8,7.65-2.41-.09,0a3.73,3.73,0,0,1,2.94-.86L88,143.36v0l.09-5.4v0l-1.12.35-1.46,3.59-4.77.78c-1.21.2-2.38.4-2.8,1.21-.09.16-.94.23-1.46.3a19.8,19.8,0,0,0-2.16.24l-.51.17Zm8.48-4.93.41.39c-.71.76-2.27.59-3.39.91l-.3-.32Zm-7.67-31.58a.63.63,0,0,0-.23.12l0,1.64,1-.25c-.08.34-.14.62-.2.88l13.45-4.24.09-5.42-14.16,4.47h-.09v.92a5.54,5.54,0,0,1,3.46-1.82,8.44,8.44,0,0,1-.09,1.59C77.44,110.58,77,110.88,74.54,111.34Zm2.32,31.11a16.81,16.81,0,0,0,2.42-.58c.35-.14.31-.57.45-.86l-1.31,0-.21.07.82.54-2.43.5C76.69,142.19,76.77,142.32,76.86,142.45Zm7.53-18.17a6.14,6.14,0,0,1,2.69-.84l1.22-.39v-.28c-.35,0-.72-.07-1.07-.12,0-.14.09-.29.13-.44l1,.08.08-4.66v0l-3.95,1.25c.06.11.11.21.17.34l-1.79.51-1.65.47a.59.59,0,0,1-.18-.24l-6.76,2.14-.08,0-.09,5.44,1.38-.43a.68.68,0,0,0-.13-.18l.74-.2,2.94-.79c-2.14-1.46-2.72-1.55-4.86-.84,0-.45.09-.89.12-1.23l6.47-2.57-.57-.73.39-.17L83,121.63c-1.34.79-4.55.67-3.47,2.39.84-1.24,2.88-1.08,4.89-1.16l-2.65,2.25ZM73.81,142.63l2.62-1-2.53.8h-.08ZM26.53,254.79c.48.05.91.11,1.26.18l1.8-.66c-.44-.32-.71-.62.21-.78a4.93,4.93,0,0,1,1.79,0l1.2-.44h0a.4.4,0,0,1-.1-.15l-4.82-1.55.49,1.25a18.8,18.8,0,0,1-1.54-1.59h-.22l0,2.17.39.44-.4-.05Zm32.38,7.78.1.1.05-.12Zm-25.74-23-6.37-2-.05,3.59a5.88,5.88,0,0,1,1.48.08l-1.44-2.26c1.55.85,2.4,1.53,2.59,2ZM24.6,242.4v-.06h-.22Zm49-88.17v.39l14.24-4.49v0l.09-5.4v0l-6.43,2,.06,0-.7.16-7.09,2.23-.09,0-.06,4,.54,0a2.09,2.09,0,0,1-.21,1A.85.85,0,0,1,73.63,154.23ZM22.76,240.44l1.85,1.21,0-1.2L23,240.22A2.5,2.5,0,0,0,22.76,240.44ZM79.67,134.52l-1-.37L74,135.61l-.08,0,0,1.47a3.82,3.82,0,0,1,1-.39c1.71-.38,3.14-.81,5,0l-3.45,1.54a27,27,0,0,0,4.75,0c1.53-.11,1.61-.75,1.52-1.43,0-.23-.2-.55,0-.67,1.14-.72,2.2-1.61,4.54-1-.16.23-.23.55-.54.75-1.11.69-1.32.89-.42,1.19l1.76-.55,0-2.33L87,134.07c.25-.34.52-.57.57-.81a2.94,2.94,0,0,0-.12-.87,1.43,1.43,0,0,1,.27-1.1l-8.24,2.6a1.44,1.44,0,0,1,.73.21,2,2,0,0,1,.49,1.25c0,.18-.46.37-.71.56l-1.18-.48,1.38-.68C79.94,134.63,79.81,134.57,79.67,134.52Zm3.93,59.6L85,192.79l-8.69,2.74-1.81,2.09c-.64-.31-1.11-.52-1.56-.73L72.88,202l14.25-4.49.07-4.38L84,194.35Zm-5.46,2.34-.57-.2,1.86-1.55C80.1,195.77,78.93,196.05,78.14,196.46ZM27.05,221.59l1.57-.58c-.58-.44-.56-1.08-.67-1.59l2.29-1.25-3.12-1ZM64.82,172l.51.2.1,0a.7.7,0,0,1,.22.14l4.74,1.81a6,6,0,0,1,.81-.2l.06-3.92Zm3,5.83-3,.94,6.36,2.44.07-4.23-.32.77C69.24,178.13,68.36,178.17,67.77,177.8Zm-4.9-12-5.41,1.67-.09,5.42L66.86,170l-.64,0c.28-.69.48-1.16.67-1.64l.4-.12,1.14,1.3,2.25-.7L67,167.4c-.1,0-.22,0-.32.09a3.78,3.78,0,0,0-.85.59l-.59-.26,1-.71Zm-5.63,15.21-.08,5.42,13.3-4.11-7.81-3Zm5.2,11.87L57,194.59,57,200l13.3-4.11ZM71,188l.07-4.43-6.43,2ZM43.24,207.39l3.64,1.17.08-5.43L43.33,202ZM64.93,165.2l2.7,1a.75.75,0,0,1,.15-.09,4,4,0,0,1,1.77.17c.18.05.22.58,0,.66l1.72.66.07-4.43Zm5.94,29.52.07-4.43-6.44,2ZM72,260.39l1.09-.14a7.85,7.85,0,0,1-1.07-.58ZM56.73,213.55,70,209.44l-7.81-3-5.41,1.67Zm13.34,32.19,0-1.29-1.42.44Zm-5.68-46.69,6.37,2.44.07-4.43Zm22,47.21L72.2,250.72l-.08,0L72,256.17l4-1.26a8.27,8.27,0,0,0,1-1.82c.29-1.11,3.19-.52,3.05-1.64-.27-.23-.63-.53-.52-.75a1.59,1.59,0,0,1,.65-.66l-1-.76c.6.17,1.11.34,1.57.51,1-.28,2.22-.25,3.31-.45.3.58.57,1.09.93,1.76l1.29-.78Zm-4,2.72a6.78,6.78,0,0,1-1.52.07l-.06-.28,2.49-.73.51.26A7.44,7.44,0,0,1,82.36,249Zm3.92,2.7v-.54l-2.35,1.27ZM69.72,218.56c.49,1.16-1,1.55-2.35,2.06l2.43.93c-.34-.32-.67-.66-1.06-1,.64,0,1.22,0,1.72,0l0-2.57C70.15,218.17,69.66,218.41,69.72,218.56Zm.94-10.3.07-4.43-6.44,2Zm-6.48,4.33L70.55,215l.07-4.43Zm-7.34-5.81,13.3-4.11-7.81-3-5.4,1.67ZM44,161.32l-.09,5.45,3.63,1.17.09-5.22v-.23Zm-.11,6.79-.09,5.43,3.64,1.17.08-5.43Zm-.19,11.77a4.64,4.64,0,0,1,2.54-2.73L44,180.43l3.26,1,.09-5.43-3.64-1.17Zm8,82.4a3.39,3.39,0,0,0-.48-.1l.29-.27,1.22,0,1.18-.36v-.37a10,10,0,0,1-1.36,0l.49-.32c-.39-.11-.53-.29-.58-.48l-2.07-.51,0,2.31.61.28Zm-8-78.94-.06,3.74,3.64,1.17.08-5.43L44.71,182A1.88,1.88,0,0,1,43.62,183.34Zm-.17,10.51L47.09,195l.09-5.43-3.64-1.17Zm-.1,6.77L47,201.79l.08-5.43-3.64-1.17Zm.29-18.7.15-.22-.14,0Zm12.42,74.8c1.26.25,2.56.7,4,1-.3-.63-.63-1.29-1-2l-1.42.65-.78-.45.25-.72-.64.2c-.15.25-.3.51-.46.76Zm.07-4.68a1.66,1.66,0,0,1,.67.36c.88-.64,1.75-1.27,2.64-1.9.56.67.83,1.13.8,1.5l1.58.4,7.58-2.34-7.81-3-1,.3.42.14c-1.45,1.11-2.7,2.1-4,3.06a2.39,2.39,0,0,1-.88.16Zm8.26-25.75,6,2.27.06-4.42L64.52,226A2.26,2.26,0,0,1,64.39,226.29Zm-7.76-6,9.86-3a2.27,2.27,0,0,1,1.52-.46l1.92-.6-7.81-3-5.41,1.67ZM65,219.09l-.88.27.46.18A1,1,0,0,1,65,219.09Zm5.27,16.24,0-2.19s-.07.08-.11.11a5.55,5.55,0,0,1-1.22.57c-.15-.28-.51-.59-.41-.83a3.43,3.43,0,0,1,1.77-1.58v-.5l-6.44,2Zm-13.71-8.24,4.15-1.28,1.1-2.7.74.9c.81-.74,1.42-1.63,3.21-.68.19.09.73-.05,1,0s.68.16,1,.26l2.06-.64-3.77-1.44-.24.19c-.44-.16-1.5-.46-1.44-.56a.7.7,0,0,0,.09-.24L62,220l-5.41,1.67Zm-.35,22.14h0Zm13.44-12.71-7.81-3-5.41,1.67,0,2.73c.27-.14.53-.28.77-.43a8.15,8.15,0,0,1,2.61-1.23l1.21-.65.31.42-.39.23c.2.69.37,1.28.53,1.86l-1.76.31,1.29.41c.75-.12,1.56-.25,2.43-.41l.76-.23,0,0L67,236.58l.61.34-1,.56Zm-13.35,7.19a17.13,17.13,0,0,1,1.77.14l2-.89-.27-.18-.1.15a2.06,2.06,0,0,1-.16-.34l-.86-.58-.58.24h0l-.23.08-1.55.63h0Zm14-219.52,3.29,1.26,0-2.74h-.44c-.15-.34-.28-.66-.36-.83a13,13,0,0,1-2.22.21c-.11,0-.21,0-.32,0l-.29.09A16,16,0,0,1,70.6,24S70.4,24.15,70.24,24.19ZM64.59,37.28a.54.54,0,0,1-.15.26c-1.52,1.32-3.94,2.26-4.12,4.15,0,.36-.4.71-.9,1.05l0,1.43A6.18,6.18,0,0,1,63.84,41c-1.21-.46-.62-.79.34-.89a2.48,2.48,0,0,0,2-1,2.64,2.64,0,0,1,1.14-.93l-2.46-.94Zm6,25.41,2.38.29v-.77l-.54.06A16.15,16.15,0,0,0,70.56,62.69Zm2.22,10.15,0-2.12-1.89,1.41Zm.1-13.59.12-.08.07-4.3-6.44,2Zm-7.94-3.38.19.11,7.35-2.27-5.41-2.07-.59.37-.26-.69-1.54-.59-3.13,1,.71.95-.32.3c-.46-.15-1.18-.25-1.31-.47s.11-.34.35-.61l-1.71.53-.09,5.42,5.18-1.6Zm6.84,11.28.46.11h0l-7.81-3-5.41,1.67L59,71.36,71.5,67.49C71.59,67.38,71.69,67.27,71.78,67.15ZM70,78.57a4.23,4.23,0,0,1,.78-.25s0-.06,0-.09c.64-.53,1.26-1.06,1.94-1.56l0-1.49-6.44,2Zm1.87,2.14L70,81.42l2-.63Zm-.46,4.84a6.22,6.22,0,0,1-.6-1.26L72,84.13l-.2-.26-1.59-.14a14.45,14.45,0,0,1,.86-1.29l-4.86,1.5,5.9,2.26A4.18,4.18,0,0,1,71.39,85.55Zm1.29-6.29,0-1.76a.14.14,0,0,0,0,.06C72.45,78.54,72.38,79,72.68,79.26Zm-8.43-1.45-5.41,1.67-.08,5.42,9.18-2.84L67.85,82l1.66-1.48-.86,0c.14-.28.22-.58.34-.87Zm9.17-45.59.07-4.43-6.43,2ZM70.29,49l-3.55,1.09,6.36,2.44,0-1.8-.2-.21.21,0V49.6c-.75,0-1.52-.12-2.44-.19A.68.68,0,0,0,70.29,49Zm1.33-29.67-2.41-.92c-.61.4-1.39.76-1.11,1.39,0,0-.07.05-.16.08a4.56,4.56,0,0,0,1.31.4c.23,0,.42,0,.62.07C70.46,20,71,19.68,71.62,19.33Zm-8.2,30.44,9-2.76.1-.1L64.78,44l-5.37,1.66,0,0,0,2.35,1.76-.1c.37,0,.69-.2,1.06-.24,1.26-.15,2.53-.27,3.8-.4-.37.55-.72,1.1-1.1,1.64a1.92,1.92,0,0,1-.44.11c0-.26-.09-.5-.12-.67-2.33-.45-3.18.79-5,1.29v.58l4.12-.54Zm8.93,186.09,7.28-2.3c.14-.43.84-.8,1.76-.95,1.31-.21,2.85-.36,2.23-1.48,0-.07.43-.22,1.07-.53-.09.65-.15,1-.2,1.42h0l2.09-.65.08-5.42-1.09.34c-.07,1.18-.14,2.35-.2,3.51l-3.28.72c-.91-.66.83-1.93-1.79-2.12.3-.23.58-.48.87-.72l-8.67,2.73-.09,0v.16l1.16-.36a4.42,4.42,0,0,1,1.24,0c0,.1,0,.19.06.3a17.16,17.16,0,0,0-2.47.61ZM65.94,42.26l6.76-2.09-3.94-1.5c-.68.51-1.34,1-1.94,1.49-.26.22-.49.54-.42.78A1.53,1.53,0,0,1,65.94,42.26Zm7.27,3.5.07-4.42-6.44,2Zm.1-6.77.08-4.43-6.44,2Zm-14,12.06.79-.24-.78-.5ZM73.58,21.78l0-.75-.83.25C73.06,21.44,73.32,21.61,73.58,21.78ZM66.17,118a5.31,5.31,0,0,1,.38-.48l-.88.27h0ZM69,119.09l.75-.83-2.27.24Zm-10.88,6.45,9.07-2.8c-.3,0-.61,0-.92,0l4.85-1.43-4.24-1.62L65.17,121c-.18-.82-.27-1.29-.44-2l.87.2-1.21-.46a2,2,0,0,1-2.11.12L58.2,120.1Zm.1-6.77,5.14-1.58a2.1,2.1,0,0,1,.13-.26c.51-.7,1.12-1.38,1.68-2.06l-.41-.15-2,.57c.56-1.28,2-1.59,5-1.26l-2.84,2,1.74,0-.66.43,3.48-1.07h-.08l.82-.26c.29-.18.59-.36.86-.56,0,.12-.07.22-.11.33l.61-.19-4.67-1.79a3,3,0,0,1-3.53.23l3.24-.34-2.84-1.08-5.41,1.67ZM58,132.31l13.3-4.11h0l-5.85-2.24-2.33,1.31.27.19,2.32-.46c-.39.56-.54,1.13-.86,1.16a4.64,4.64,0,0,1-2-.34c-.31-.12-.51-.66-.31-.78a24.94,24.94,0,0,1,2.54-1.2l-1.62-.62-5.41,1.67Zm21.07,123,.68.21-1.52,1.69,1.23.62L77,259.43c.08-.72.85-1.28.69-1.81l-.77.79c-.2-.28-.66-.65-.55-.82a2.13,2.13,0,0,1,.74-.58,1.31,1.31,0,0,1,.31-.47c.28-.33.58-.66.88-1l-6.16,1.94-.09,0,0,1.19.32,0-.32.36v.32l6.87,1.34,7.32-2.31.09-5.41Zm.43,5c-1.55-.32-1.55-.49.35-1.43C79.74,259.28,79.63,259.75,79.51,260.24ZM71.72,140.5l0,0,0,0v-.06ZM58.33,112l1.66-.51c.08-.26.16-.53.25-.79l.58,0c-.07.19-.15.37-.22.55l4.81-1.49c-.57-1.42,2-1,2.93-1.52a1.57,1.57,0,0,1-.15.67l2.73-.84.34-.37-1.63-.62c-1.2.44-1.85.45-2,0-.06-.22.07-.45.33-.64l-4.16-1.59-5.41,1.67Zm7.31-6.3.73,1.43-3.29,1.27-1.1-.8Zm-.15,25.66h0l6.36,2.44v0l0-1.64-.06-.12h.06l.05-2.66-6.44,2Zm-5.33,135,1.28-.4-.23-.07-1.49.44ZM70.63,117.7a3.35,3.35,0,0,0,.34,1,1.06,1.06,0,0,1-.06,1.15l1.13.44.06-4.09a1.35,1.35,0,0,1-.65.54C70.58,117,70.62,117.32,70.63,117.7Zm.76,3.7,0,.06.07,0h0Zm-2.86-9.32,2.34-1c.09.66-.41,1.11-1.43,1.36l2.7,1,.07-4.43-6.43,2ZM65.6,124.57h0L71.93,127v0l.07-4.41v0l-6.43,2Zm6.07-30.18.17-.06,0,0Zm-.72-5a.83.83,0,0,1-.07-.13L66.1,90.71l6.27,2.4h.1l0-1.3L71.35,92C71.23,91,71.47,90.08,71,89.36Zm-.65,16.58h.49l-.31.06,1.18.45c-.3-.27-.55-.51-.51-.53.35-.14.72-.27,1.12-.4l0-3.27-6.43,2Zm-11.86-.73,13.3-4.11-7.81-3-5.41,1.67Zm13.92-5.29.07-4.43-6.44,2Zm-13-50.76.24-.3h-.24Zm10-25.31c-.36-.38-.68-.79-1-1.2L67.16,23l2.21.85ZM47.71,155.72l-3.64-1.17L44,160l3.63,1.17v0l.09-5.4Zm.53-33.85L44.6,120.7l-.08,5.45,3.63,1.17v0l.08-5.39Zm-3.85,12.37,0,1.14.67-.89c0,.73.06,1,.07,1.39l1.53-.35c0,1.54-1.47.83-2.29,1.05l0,3.11,3.63,1.17v0l.08-5.41v0Zm.43-27.08-.09,5.43,3.64,1.17.08-5.43Zm.53-33.84-.08,5.42,3.63,1.17L49,74.48Zm-.19,12.19,3.63,1.17.09-5.43-3.64-1.16Zm-1,61,3.64,1.17.08-5.45L44.29,141Zm.21-13.54,3.64,1.17v0l.08-5.4v0l-3.64-1.17Zm-16.25,56,4,1.29c.74-1.17,1-2.24,1.9-2.79s2.28-.46,3.94-.74c-1.08,1.18-3.46,1.23-2.31,2.9l-3.47.65,7.65,2.46,0-.51.35,0,.84.92.3.1.07-4.65c-.66.67-1.27,1.29-1.89,1.94-1-.6-1.3-1.3-.33-2a1.77,1.77,0,0,1,2.22-.2v-.52L36.07,186Zm-17.38,36.7L10.7,231l11.06,3.63-1.63-1.42.54-.1,2,1.63L24.5,233l.24.15.05-2.89-.09,0Zm2.38,2.59,1,2.17C11.74,229.06,11.68,228.19,13.16,228.22ZM23.28,238c-.49.09-.7.26-.48.55A4.11,4.11,0,0,1,23.28,238Zm-.52,5.16-.93.14c0,.27,0,.6,0,.92l-.81-.05c-.08-.35-.37-.76-.18-1a1.67,1.67,0,0,1,.62-.41l-3.95-1.3c.15.5.28.94.39,1.34l.31-.46,1.55.62-2,1.07-.63-.13.38-.57c-.5-.37-1.08-.75-1.2-1.1s.35-.55.78-.9l-6.53-2.14,0,1.37,1.83,1.06,1.47-.14c.85,1.07,2.2,2.11,2.28,3,.1,1.19,1.46,1.8,3.28,2.45l-.34.48,5.42,1.78.08-5.42-.08,0Zm1.94-7.53,0-1.87-1.5,1.39ZM24,239.48l.66.47V239c-.21.14-.4.29-.62.43Zm4.27-30.38c.28.13.64.33,1.12.6l-.05,0,9.6,3.08h0l.68.15,0,.08,1.42.46,0-3.2-1,.54c-.47-.81-.46-1.07,1-1.29l0-1.48-5.36-1.72ZM45.14,86.86l-.09,5.42,3.64,1.17L48.77,88ZM27,228.36l1.49-.55a3.08,3.08,0,0,1,.07-1c.09-.27.49-.49.76-.73l0,0h.08a6.27,6.27,0,0,0,1.26-.94L27,223.93l0,1.89.38.17-.39.33Zm2.32-2.29a2.53,2.53,0,0,1,.45,1.27L33.39,226l-2.07-.66a4.93,4.93,0,0,1-2,.71l0,0ZM44.71,113.93l-.08,5.45,3.63,1.17v0l.08-5.3v-.12ZM68.07,9.26l-.7.21.52.2.45-.34Zm-7.39,2.28.29-.06v0Zm4.16-1.28a5.15,5.15,0,0,1-1.73.75l-.28-.13-1.51.46,5.66,2c0-.32,0-.57,0-.84l.21,0a.44.44,0,0,0,.13-.15c.22-.36.42-.73.71-1.22l-2.7-1ZM61.3,15.9l2.33-1.11a4.53,4.53,0,0,0,.23.44,1.71,1.71,0,0,0,.11-.14c.34.16.75.32,1.12.49l.51-.16s0-.08,0-.09l.74-.35a3.66,3.66,0,0,1-1.12-1c-.65-1.1-2.19-1.5-4.17-1.85l-.32.25c.18,1.07.37,2.17.59,3.5C61.3,15.87,61.31,15.89,61.3,15.9ZM74.59,93.67l14.24-4.49.09-5.42-5.39,1.7-1.36,1.15,3.64-.28c.2,1-1,1.59-2.27,2a8.45,8.45,0,0,1-2.5-.5c.32.83-1,.85-2.34,1l2.65.75L79.16,92c-.09-1-.18-1.77-.25-2.53a23.08,23.08,0,0,1-2.63,1.41,14.76,14.76,0,0,1-1.66.48ZM62,18.52c.19.68,0,1.36.49,1.54a5.36,5.36,0,0,0,.74-.16,2.31,2.31,0,0,0,1-.45ZM65.8,17.1a1.92,1.92,0,0,0-.18.31l-.44-.52-2.37.73A8.26,8.26,0,0,1,65,18.73a9.32,9.32,0,0,1,2.76-.88Zm-1.62-1.24.12,0-.38-.46A4.88,4.88,0,0,1,64.18,15.86ZM65.26,22l1.55-1L67,19.92c-1.29-.09-2,.69-3.44.65.74.46,1,1,1.61,1.46ZM50.47,250.78l.13-.31-.12,0Zm14.59-92.36h0l4.3,1.65a1.44,1.44,0,0,0,.25-.33l.58.06c0,.18-.11.35-.17.52l1.41.54v0l.07-4.42-6.43,2ZM45,99.05l3.63,1.17.08-5.43L45,93.62ZM69.86,64.69c-1-.76-.52-1.42-.12-2l-3.22,1,6.37,2.44,0-2.6C71.61,63.62,69.94,63.5,69.86,64.69Zm-4.69,87h0l6.37,2.44.07-4.45-6.44,2ZM51,250.35l2.76.42c.19,1.11-1.16,2.31-3.32,3l0,.9.89.84-.9,0v.43l2-.61-1.16-1.2.71-.12.91.85c.1-.14.18-.28.29-.41a.5.5,0,0,1,.28-.1l.63-4v-.52a8.11,8.11,0,0,1-1.72.12ZM69.13,73a2.41,2.41,0,0,0,1.2.35l-1.41-.54Zm1.75-3.82-.22-.06L66.42,70.4l3.8,1.45,2.28-1.52.32.14,0-2.06L71,69Zm-5.6,75.73h0l5.88,2.25.48-.31a0,0,0,0,1,0,0l0-1.53-.84.3-.3-.27a3.27,3.27,0,0,1,1.15-.72l0-1.72-6.43,2Zm.07-6.78h0l6.19,2.37.18-.06,0-1.35-.39-.35a2.34,2.34,0,0,0,.4-.12l0-2.48v0ZM64,91.35,58.63,93l-.09,5.42,11.36-3.5-.1,0,.9-1ZM19.27,263.75l-.52.21,1.35.66s0-.07,0-.1ZM14.81,259v0L13,258.06l-.22.09a1.17,1.17,0,0,0-.05.11l1.82.71ZM10.23,261v0l0,.05.19.05Zm5.59-2.41.27.06a3,3,0,0,0,.19-.46C15.91,258.3,15.81,258.45,15.82,258.62Zm-.4-1.21.93.54a1.49,1.49,0,0,0,0-.42,1.12,1.12,0,0,0-.06-.23Zm1,8.17.53.11.09-.06a.89.89,0,0,1,.36-.31l-.89-.19C16.44,265.29,16.41,265.42,16.38,265.58ZM13,260.39l-.19-.07-.06.05Zm73,6.84V267a1.2,1.2,0,0,1-.2.11Zm-62.64-.74.82.46v-.48l-.57-.13Zm-8.23-12.21-4.23-1.39a1.56,1.56,0,0,1,.3.22c1.16,1.24,2.16,2.5,3.2,3.75l1.89.43a4.23,4.23,0,0,0-.62-1.36l-.91-.31C14.72,254.77,14.69,254.34,15.16,254.28Zm-5,9.37.29.05-.29-.21Zm68,7c.19,0,.39,0,.55.09a4.86,4.86,0,0,1,1.17.52l-.41-.76-1.78-.21h0Zm-.65-1.4-1.21.38a3.42,3.42,0,0,0,1.4.68v0h0C77.63,270,77.57,269.62,77.51,269.26Zm4-.17c.17-.43.34-.84.49-1.24l-2.41.76c.4.13.8.25,1.14.39Zm4.55-2.4v-.12h0S86,266.66,86,266.69Zm-71.13-.49.85.15A1,1,0,0,0,14.91,266.2Zm-.81-21.38-.4.81-1.53-.51h0l5.36,1.76Zm9.57,15.06a6.1,6.1,0,0,0-.44-.69l.49-.39a3.72,3.72,0,0,1-1-.37c-.17-.22-.32-.44-.48-.66a2.74,2.74,0,0,1-.3.28l-.12-.87-.62-.92h0l-1,.44c-.31-.29-.9-.63-.85-.86a.55.55,0,0,1,.08-.15l-.82-.27a1.15,1.15,0,0,0,0,.71,1.92,1.92,0,0,0,.41.5l1.86.54L19,258.87c-.17-.83-.29-1.37-.4-1.95l-1.26-.43a2.42,2.42,0,0,1-.16,2.44L22,260a18,18,0,0,1-3.12.38l-1.21-.1-.17.24.63.21a5.15,5.15,0,0,1,2.85.21.6.6,0,0,0,.27,0,1.6,1.6,0,0,0,.71-.43,2,2,0,0,1,.58-.05C22.93,260.25,23.33,260,23.67,259.88ZM75.34,278H77l-1.89-.16Zm-65-18.17v0l-.12-.07v.42l1.11.08ZM23.83,265,22,264.51l0,.06,1.67.62Zm38.5,5.14-.49.43a9.64,9.64,0,0,0,1.51.72C63,271,62.67,270.56,62.33,270.18Zm2.26.53a1.86,1.86,0,0,0,.19-.53,1.38,1.38,0,0,1,.15-.39,10.19,10.19,0,0,0-1.11-.34c-.07-.14-.13-.27-.19-.41l-.72.64a3.81,3.81,0,0,0,1,.5A1.75,1.75,0,0,1,64.59,270.71Zm-1.35-2.52s0,0,0,0h-.85c.23.45-.06.86.32,1.32l.26-.18-.34-.7.35,0A3.4,3.4,0,0,0,63.24,268.19ZM26.45,260l.42-.58-.35-.42a.18.18,0,0,1-.05-.07Zm35,10.37.66-.44a14.71,14.71,0,0,0-1.31-1.31,7.3,7.3,0,0,0-2-.42l-.12,0c.63.51,1.22,1,1.91,1.54C60.8,270,61.11,270.15,61.42,270.34ZM65,266.7l-.78,0c0-.06-.05-.12-.07-.17l-.78.24,1.24.47,1-.27A5.06,5.06,0,0,0,65,266.7Zm-6.06.08.75-.23-.4,0C59.13,266.59,59,266.69,58.9,266.78Zm6.46.74,1.29.5a1.62,1.62,0,0,0-.81-.92ZM62,263.13l0,0h0v0Zm-1.77-.72c-.2.21-.39.43-.59.65l-.42-.15L60.38,264l.29.06-.2,0,.26.23L62,263.11v-.06l-1.58-.66Zm-28.32.9a3.63,3.63,0,0,0,.44.19c.22-.05.36-.07.39-.11A1.72,1.72,0,0,0,33,263c-.05.22-.09.45-.13.67a5.29,5.29,0,0,1,.82.36.74.74,0,0,1,.16.12,2,2,0,0,1,.66-.18l-1.18-.84,1.89-.08a1.56,1.56,0,0,1,.11-.57c.17-.38.66-.7,1-1l-.61-.23L33,263a2,2,0,0,1,0-.55c.21-.67,1.15-1.19,1.48-1.87l-3.37,1.24Zm5.93,2.89,0,.08H38Zm-6.09-6,1.07-.4-.57-.18A1.19,1.19,0,0,1,31.79,260.23Zm-1.27.38,0,.07.43-.16C30.85,260.56,30.68,260.58,30.52,260.61Zm30.34,1.73c.41.05.78.11,1.12.17v-.3Zm-5,5,.63.19.82-.25a.75.75,0,0,1,.18-.82s0-.09.07-.13c-.6-.08-1.15-.17-1.64-.27l0,0Zm7.64-3.63-1.34-.56H62l1,.66ZM63.44,260l.93.35a2.48,2.48,0,0,1,.74-.59l-.78,0Zm-7.52,5,1.29.25c-.53-.58-.76-1.21-1.27-1.35ZM10.3,256.7v.59l1.53.6.39,0c.06-.06.11-.13.17-.2L10.9,257l-.37-.17h0ZM66.42,239c-.35.43-.7.87-1.06,1.29l4.76,1.82.07-4.42-3.64,1.13A1.18,1.18,0,0,1,66.42,239Zm3.08,4.3-5.14-2c-.17.16-.31.34-.5.49a12.22,12.22,0,0,1-2.73,1.48,2.5,2.5,0,0,0-1.28,1l.28.1c.46.21,1,.47,1.14.75a.85.85,0,0,1-.16.7l1.46-.45,0-.07c-.21,0-.38-.07-.39-.11a2.94,2.94,0,0,1,.37-1.05l.62.06a14,14,0,0,1,.87-1.43c.23-.33,1.12-.4,1.93-.66L63.87,245Zm-5.09-3.37a3.23,3.23,0,0,0,1-.75l-1.61.5Zm-2.16.6-.56-.22-1.45.45c0,.06,0,.1,0,.16a9.11,9.11,0,0,1,1.51-.34Zm4.58,4.94-3.18,1L70,248.87l0-2.36c-.91-.19-1.83-.37-2.73-.58C67.1,245.88,66.83,245.6,66.83,245.46ZM84.57,268c-.1.22-.18.42-.27.63l-.51.07-.48-.54a2,2,0,0,1-.29,1.09l.26,0a4.1,4.1,0,0,0-1,.58,5.71,5.71,0,0,1,.89.88,3.52,3.52,0,0,1,.41.65H84a7.39,7.39,0,0,1,2-2l0-1.95-1.33.61A.57.57,0,0,0,84.57,268Zm-10.3-7.31-.82.49c-.13-.29-.21-.5-.32-.77l-1.17.35,0,1.15.62-.22.29.23-.92.76v.25l5.88-1.85A10.28,10.28,0,0,1,74.27,260.7Zm-46.6-3.89-.19-.32-.38.14ZM10.57,265l.49.16a.65.65,0,0,1,0-.13l-.19-.07Zm32-17,3.64,1.17V249l-3.61-2.49Zm-5.16,9.89a4.31,4.31,0,0,1-2.16-.05c0,.14-.07.28-.1.42a5.44,5.44,0,0,1-.22.5l-.71,0c.09-.34.18-.68.28-1a5,5,0,0,0-1.52-.08c-.38-1-.7-1.9-1-2.78h-.05l-.56.21c0,.16,0,.37,0,.71l-.58-.49-1.33.49a1.42,1.42,0,0,1,.22.93l-1.16-.59-.15.06-.24.77h0L32,258.19l.48-.68a2.24,2.24,0,0,0,0,.82l1.3.42-.21-.18,3,.78v.28l2.86.93-1.92-1.42.24-.12,2.65,1.22,0-1.37C38.43,258.6,37.47,258.23,37.44,257.89Zm1.71-16.44c-.23.49-.45,1-.68,1.49a4.46,4.46,0,0,1-1.26-1.82,2,2,0,0,1-.05-.31l-1.95-.63L28,242.84l.13.09a1.64,1.64,0,0,1,.61.62l5.76,1.85a3.24,3.24,0,0,1-.13-.31,8.72,8.72,0,0,0,1.26-.49l.05,0c-.27-.38.38-.56.83-.79L34,242.31l2.7-.89c-.07.91-.12,1.62-.18,2.32.21-.11.36-.24.32-.4,2.58.9,2.1,1.18,1.26,1.4a3.22,3.22,0,0,0,2.41-1.06l0-1.45a4.12,4.12,0,0,1-.52-.5Zm-15.82,8.7c-.13.29-.27.57-.41.87l-1.6-.26c.08-.25.14-.46.21-.64-1.53.22-1.45.4-.12,1s1.65,1.23,1.15,1.93c-1.73-.33-3.93-1-3.42-1.59s-.54-1.24-.53-1.85l-.78.35c-.84-.51-1.59-1-2.32-1.42l1.2-.55,4.95,1.79s0-.12.06-.16l-11.25-3.7-.08,5a7,7,0,0,0,1.26.31c.43.06.82.6,1.22,1l1.17.38c.78-1.08-2.14-2.19-3-3.37,3.37,1.58,4.16,2.17,4.61,3.91l1.6.53v0a11.11,11.11,0,0,1,1.3-1.81l2.1,2.65-.13.26,3.82,1.25,0-2.56-.14,0a21.7,21.7,0,0,1-1.16-2c-.12-.27.1-.53.16-.8.38.19.86.36,1.18.56v-.6l-.09,0ZM40,256a4.85,4.85,0,0,0-.67-.44c-1.17-.55-2.08-.5-2.51-.11l2.39.84Zm20.68-3.3a6.85,6.85,0,0,1-1.13,0,5.23,5.23,0,0,1-.68.28c.06-.15.1-.27.15-.4a1.08,1.08,0,0,1-.58-.49c-.12.19-.24.39-.35.59a8.67,8.67,0,0,1,1.12.48Zm3.09.57h0l.21.09.1,0,.79-.32c.14.3.25.54.34.75l2,.76.12-.83,2.12-.25.44.22,0-2.55-6.43,2Zm-4.33-1.83L59,251.3l-.2.33.6.15Zm-8.77,8.17,1.6.38c-.05-.13-.16-.22-.44-.25Zm3.1.73.06,0,0-1.13c0-.15-.06-.24-.12-.28-.55-.38-1.43-.68-1.58-1.12s.63-.88,1-1.34c0,0,0,0,0-.05l-.94.29-.56.4-.29-.05.07-.11-.55.17c.88,1.09,2,2.14,2.83,3.23Zm-27.33-2.31,3.12.79.81,1.53.76-1.1-4.69-1.5Zm55.21,16.6-.16.06.3.08-.11-.12Zm-13.92-2.56.34,0a.61.61,0,0,1,0-.11Zm12.4-8.47-.39.05.56.62a2.33,2.33,0,0,1,1-.41l0-.06Zm-6.32,14.17.4-.06-.67-.05Zm2.32-1.39c0,.13,0,.26,0,.39l.72.13c.12-.28.24-.57.33-.81l3.46.85c-.18-.6-.34-1.2-.52-1.81Zm.15-1.4-.08-.12c0,.05,0,.1,0,.15Zm5.63-2.9-.56-.79-.82.37c.29.21.58.42.9.61Zm2.56,1.67-1,.31.52.16a1.55,1.55,0,0,1,.74-.15,4.41,4.41,0,0,1,1,.53l.08,0v-.51a1.38,1.38,0,0,1-.11.3Zm-2.76-.48.64-.2L81,272.73ZM36.83,247.5l-.27-.08.16.14Zm15.11,18.06,1.44-.49a11.48,11.48,0,0,0-1.74-.27c0,.11.08.22.13.33l-1-.19a.78.78,0,0,0-.41.52s0,0,0,0l-.09.39v.57l3,1.77a7.16,7.16,0,0,1-3-1l0,1.59.56.07,1.09-.56c.34.13.7.24,1.06.35l.84-.26,0-2.25A9,9,0,0,0,51.94,265.56Zm-9.5-7.21a6.64,6.64,0,0,1,3.65,0v-.16a10.06,10.06,0,0,1-2-1.57l-1.59-.51Zm-4.91-12,.9.29.11-.06a.69.69,0,0,0,.11.13l1.83.59v-.47c-.72-.37-1.43-.76-2.18-1.18C38.11,245.86,37.84,246.1,37.53,246.37ZM67.9,258.6l-.76.4a8.86,8.86,0,0,1,1.24-.19l1.43,1.05-1,.85a3.07,3.07,0,0,0-.46-.33.33.33,0,0,0-.08.11H68c0-.12-.09-.24-.13-.35-1.09-.42-1.89.12-2.73.5l4.66,1.78.06-3.3-1.17-.76ZM37.16,245.55c-.35.12-.7.27-1,.37l1.07.35C37.18,246,37.17,245.8,37.16,245.55Zm28.6,13.71h.47l0,0-.12-.07,0,0Zm4.11-.82V258l-1,.32Zm0-2.8,0-1.84-2,1.09Zm-1.29.93c0,.17,0,.33,0,.47l.7-.21ZM85.63,6a14.17,14.17,0,0,0,2,1.25,9.14,9.14,0,0,0,2,.17l-3.63-1.5ZM43,7.64l-.57.1c.07.72.14,1.44.21,2.11l1.59.51,0-1.12a2.42,2.42,0,0,1-.32-.32l-.38.17.19-.39C43.46,8.35,43.26,8,43,7.64Zm1.31-2.1v-.6l-.81-.26ZM42,153.87l-.05,0-1.65,1.81-.48-.2,1.35-1.86-4.52-1.45-7.9,2.91h0l13.17,4.24Zm-13.73-6.75,3-1.12-.16-.07c.51-.52,1.42-1,1.45-1.56a2.21,2.21,0,0,1,.07-.3l-4.33-1.39Zm-.1,6.77,6.44-2.37h0l-6.37-2.05ZM40.56.06h-.63c-.25.56-.51,1.13.07,1.76Zm-2.2,8.42,3,1c.5-.4.54-.83-.09-1.09a11.93,11.93,0,0,0-2.68-.48A6.36,6.36,0,0,0,38.36,8.48Zm5.89-.86V7L44,6.81C43,6.22,42.21,5.6,41.17,5.05l-.06,0-.47.65c1.22.65,2.43,1.29,3.61,1.94Zm-2-4.68.37,0L42.57,3l1.75.56V3.2L44,2.35l.35-.08V1.18L43.78.66c-.16.44-.32.87-.49,1.31l-.79-.12c-.07-.59-.13-1.19-.19-1.78H40.88l.6,2.62ZM28.65,120l6.44-2.37h0l0,0-6.37-2Zm13.84,0-5.36-1.72-5.47,2,.4.18L31,121.79l11.45,3.68Zm-8.63,24.45-2.19,1.38,3-1.1h0l0,0Zm-3.6-22.9c.3-.36.6-.71.89-1.07l-1.92.71h0l0,0ZM37.8,6a.61.61,0,0,0,.34.75,2.64,2.64,0,0,0,1.38-.09l-.22-.4Zm-9,107.3,6.44-2.37-6.37-2Zm-.32,20.33,6.44-2.37h0l0,0-6.37-2Zm13.53,19,.09-5.45-5.35-1.72-7.91,2.91h0Zm-13.38-29,.8-.94-.78-.25Zm-.05,3.25L35,124.44h0l-4.93-1.59-.9,1-.56-.21Zm14.05-13.56-5.35-1.72-7.9,2.91,2.16.7h-.08l11.09,3.56ZM34.77,138h0l-6.37-2.05v0l-.07,4.4v0Zm7,28.11.09-5.45-5.36-1.72L28,162.05v.58h3.07ZM29.09,106.38h0l6.2-2.28-6.37-2-.07,4.42.13,0A.31.31,0,0,1,29.09,106.38Zm.05-17.86-.07,4.42,6.45-2.37Zm5.22,19-.21-1.6-4.71,1.74,13.17,4.24.09-5.43-5.36-1.72-2.51.93c.65.51.86,1.1.17,1.78Zm-1.51,85c-.05-.26-.1-.52-.16-.79l-5.15-1.65-.06,4.42ZM27.4,210.45l-.07,0-.1-.07-.07,4.41,6.44-2.37ZM30.51,1.81v.42L30.74,2Zm3.83,163.25L28,163l-.07,4.42ZM33.52,0h-.29l.49.15ZM36,13.41l-.84.29-2-1a7.31,7.31,0,0,1-.85.61l.68.22.89-.38c0,.23.07.46.1.7l5.54,1.78c-.07-.27-.12-.48-.17-.69.91.48,2.29.94,2.49,1.43l.13,0c.66-1,1.5-1.24,2.13-.86V15l-.21,0,.21-.54V14.1l-1.45-.75c.55,0,1,.06,1.46.11l0-1.75L38.83,10l-3.35,1.24a11.86,11.86,0,0,0-.81,1l-.61.05A4.81,4.81,0,0,0,36,13.41Zm6.55-1.89.63.31L40.47,14.4,40,14.18Zm-4.33-.88.53,0c.17.71.35,1.42.53,2.13l-.51.11-1.86-1.08C37.4,11.35,37.8,11,38.2,10.64Zm-6.85,2.24-.18-.07-.24.09.4.12A.78.78,0,0,1,31.35,12.88Zm8.08-9.07c0-.14.07-.27.11-.4l-.6-.2-.29.11c0,.21-.1.41-.14.62A3.14,3.14,0,0,1,39.43,3.81Zm-.59.46-.39-.1c-.05.23-.11.47-.16.7A2.91,2.91,0,0,1,38,5.5l1-.11s0-.09,0-.14c.06-.28.15-.57.23-.85ZM38.65.07v0h-.92a4.63,4.63,0,0,0-.24.43l.25.05ZM31.37,12.73v.12l.29-.22Zm0,.12s0,0,0,0h0Zm1.11-1.93a2.2,2.2,0,0,0-1-.85c0,.4,0,.78,0,1.16l.15,0Zm.4-5.41-.06,0-1.1.4.52.29C32.46,6,32.67,5.73,32.88,5.51Zm-.83,35c.26-.44.54-.89.81-1.36L30.51,40ZM35.62,83.8l-3.23-1c-.42,1-.77,1.83-1.1,2.63Zm7.82-24.7-5.35-1.73-7.9,2.92,13.17,4.23Zm-.1,6.76L38,64.14l-6.59,2.43a2.09,2.09,0,0,1-.57.72l9.63,3.1c.1-.64.2-1.29.32-2,1.24.67,1.27,1.5.18,2.15l2.3.74Zm-.11,6.77-5.35-1.72L30,73.82l13.18,4.24ZM44,25.25l-4.52-1.46-.84,1.08-.55-.23.83-1-.19-.06c-.47.17-.94.34-1.43.49h0L36,24.5l-.15,1a2.29,2.29,0,0,1,.28.09l-.3.07c0,.17-.05.33-.08.51a2.82,2.82,0,0,0-.54-.36l-1.64.38h0c-.19.31-.38.62-.59.94l2.47.8.16-.12-.07.15,4.81,1.54a.5.5,0,0,1,0-.12l.7.13a.68.68,0,0,0-.07.2l2.92.94Zm-.42,27.07L38.2,50.6l-7.91,2.91,11.26,3.62v0a2.21,2.21,0,0,1,.82-1,10.41,10.41,0,0,1,1.13-.72Zm.21-13.54-4.88-1.56-.78,1.19a1.86,1.86,0,0,1-.47-1.06l-3.41,1.26-.36,2.44,9.82,3.16ZM43.87,32,41,31.1c.07.56-.05,1.08-1.16,1.4a3,3,0,0,1-1.11-.16c0-.05,0-.11,0-.16l1.1-.12c.08-.44.15-.85.22-1.26l-1.59-.51-7.9,2.91,7.72,2.49a7.09,7.09,0,0,1,2.6-1.63c-.46.7-.89,1.37-1.32,2l4.17,1.34Zm-.21,13.55L38.3,43.83l-.54.2-1.4,2.54a2,2,0,0,1-.28-1.92L30.4,46.74,43.57,51Zm-.18,10.89c-.39.18-.84.34-1.16.52l.17.46,1,.32ZM30.41,8l.22-.22-.22-.06Zm-.16,10.45,2.89-1.06H31c-.21-1-.37-1.47-.7-1.72Zm.05-3.76.9-.38-.88-.28Zm-.48,30.84,6.44-2.37L32.43,42l-1.64.65.59-1-1.49-.48v.5l.27.12c-.09.12-.18.24-.28.35ZM43,84.83l.06-4a2.85,2.85,0,0,0-.16.3l-1.08-.63-1.77,1-.3-.3c1.17-.35,1.44-1.58,2.54-2.08l-4.56-1.47L31,80.17a3.18,3.18,0,0,1-.41.66l5.6,1.81c.4-.42.8-.83,1.19-1.25l.64.36-1.18,1.09Zm1.08-69-1.44.85.94.31c.14-.08.31-.16.49-.24Zm-7.58.33-2.27-.52c.06.43.13.85.19,1.29Zm-2.31-.76.09-.05-.1,0A.19.19,0,0,1,34.23,15.39Zm-.64,5.16,6.18,2,.72-.87.46.19-.66.85L44,23.9l0-2.65-1.89-.8-.54.55-2-.92,1.13-.25-2.24-.95a8.86,8.86,0,0,1,3.89.6l.35-.07.31.21-.12.11a6,6,0,0,1,1.17.75l0-2-5.36-1.73-5.14,1.9.34.5-1.32.45A7.76,7.76,0,0,1,33.59,20.55ZM29.18,86.17l2-.73-.46-.12c.15-.84.26-1.67.47-2.5,0-.07.34-.11.81-.19l-2.74-.88Zm13.11,46.07.09-5.45L37,125.07,29.12,128h0l4.77,1.54a1.78,1.78,0,0,1-.17-1.06c.09-.3.92-.47,1.71-.84l-.67,2.18L39,131.18a6,6,0,0,1,1.94-1,6.35,6.35,0,0,0-.45,1.5ZM29.29,79l1.95-.94a4.09,4.09,0,0,1,.07.6L35.73,77l-6.37-2Zm.21-13.14,6.44-2.37-6.37-2.05Zm-.1,6.25a.91.91,0,0,1,.27.42l6.17-2.27-6.38-2.05ZM30,80.54l-.14,0,.09,0A.56.56,0,0,0,30,80.54ZM29,99.71l6.44-2.37-6.37-2Zm13.83,0L37.45,98l-7.9,2.91,13.17,4.24ZM43,86.17l-5.36-1.72-7.9,2.91L42.93,91.6Zm-.19,12.2.08-5.43-.48-.15-1.78,1.35a1.44,1.44,0,0,1,.83-1.66l-3.92-1.26-7.91,2.91ZM29.93,38.78l1.93-.71a1.7,1.7,0,0,1,1.87-.69l2.64-1-2.07-.67c-.33,1.43-1.91,0-2.89.16A1.27,1.27,0,0,1,31.9,35L30,34.36Zm.14-9.08a2.35,2.35,0,0,0,.22-.1c1.17-.93,1.94-1,2.64.13l1.18-.85-3.59-1.16c-.15.28-.29.55-.43.8Zm1.29-3.06a1.48,1.48,0,0,1-.13-.21l-.08.14ZM29.61,59.09l6.44-2.37-6.37-2ZM30,32l6.44-2.37-1.54-.5a2.18,2.18,0,0,1-2.51,1.16c-1-.29-2-.33-2.26.36a.57.57,0,0,1-.11.16Zm.13-7.73a4.14,4.14,0,0,1,1.51-.39l-.66,1,4.43-1.63a1.66,1.66,0,0,0,.25-.34l.35.12.54-.2L33.89,22c0,.3,0,.59.09.86l-3.67.42c.23-.48.72-1,.6-1.34a1.84,1.84,0,0,1-.06-.92l-.64-.2Zm2.08-5.13-1.41.51.63.21A7.82,7.82,0,0,1,32.24,19.15ZM29.71,52.32,36.16,50,29.78,47.9Zm2.06-3.26c.28,1.81-.32,2.46-1.78,2.35ZM11,212.09l-.09,5.41,14,4.59.09-5.42-.09,0ZM32.83,185c-.51.4-1,.8-1.55,1.17a6,6,0,0,1-2,.31l-.16-.42a7.35,7.35,0,0,1,.86-.81c.39-.26.81-.52,1.23-.77l-3.57-1.14-.07,4.42L34,185.37ZM23.74,17.54l1,.33.71-.28L24.94,17ZM28.41,0H27.18a10.93,10.93,0,0,1-1.09.35c0,.11-.07.22-.1.33l2.4.69ZM28.12,18.2l-.51.61.5.17ZM26.74,7.61l-.42.7,1.06-.11A7.33,7.33,0,0,0,26.74,7.61Zm.77,3.63-.52.57,1.23.4,0-1.71a3.27,3.27,0,0,0-2.49-.19Zm-3.7-4.73L23.17,7a1.75,1.75,0,0,1,.29.18A2.24,2.24,0,0,1,23.81,6.51Zm-.09,4.22c.23-.25.49-.5.7-.76a4,4,0,0,0-1.14.62ZM27.09,3l0-.06h.09l.3-.29-1.77-.44A3.21,3.21,0,0,0,26,4.08ZM25.5,7.4c.11-.16.22-.32.34-.47-.38-.26-.78-.52-1.19-.77.13.36.27.72.4,1.06ZM15.36,21.57h0l2.13.7a3.67,3.67,0,0,1,2.14-1l.94,1a6.26,6.26,0,0,1,.24-1.67,2.81,2.81,0,0,1,1-1.42,11.77,11.77,0,0,1,1.07-.52l-1-.32c-.85.29-1.74.52-2.62.78A2.26,2.26,0,0,1,20.53,18l.16-.08L17.77,17c-.65,1.42-1.26,2.76-1.88,4.1,0,.17,0,.37,0,.64l-.45-.16ZM25.8,9.17a.6.6,0,0,0,.11.06l.88-.43-.58-.31C26.08,8.72,25.94,8.94,25.8,9.17ZM20,46.1c.34-.3.71-.57,1.08-.85l-.8-.26-2,1.78.72.42A14.81,14.81,0,0,1,20,46.1Zm1.71-7.16.2-.22L20,38.09a11.55,11.55,0,0,1-2.78,1.48l.34.26ZM28,25.75l.09-5.43-.09,0-1.46-.47a3,3,0,0,1-2,.47l-1,2.42,1,.6c-.36.31-.7.64-1,1l1.53.5a16.73,16.73,0,0,1,2-.06l-.86.44ZM14.06,46.57c-.14.06-.31.1-.46.15l0,1.28c.19-.22.39-.43.57-.65S14.1,46.83,14.06,46.57Zm9.11-38.2-.1,0,.12,0,.15-.67a4.93,4.93,0,0,1-1.15.26,2.93,2.93,0,0,0-1.06,2l.73.24A2.46,2.46,0,0,0,23.17,8.37Zm5.21-6.78-1.6,0,1.59.88Zm0,2.55h0l-.64,0h0Zm-3.42,11.6a.6.6,0,0,1,.1-.25l-.16-.07h.19a13.11,13.11,0,0,1,1.6-1.64c.15.59.23.92.31,1.25l.35,0c.12-.53.23-1.06.37-1.69L26,12.85l-3.48,3.8.49.27C23.86,16.74,24.81,16.87,24.92,15.74ZM12.27,130.82v.78c.19-.19.4-.39.59-.59ZM21,137c-.07.68-.13,1.37-.2,2.1l5.35,1.76.09-5.45-.09,0L24.94,135c-.69.49-1.37,1-2,1.48a1.73,1.73,0,0,1,.93-1.85l-8.3-2.72L14,133.22a9.13,9.13,0,0,1-1.72.35v.83c.27-.16.59-.31.84-.47l.37.33L12.79,136c-.19-.2-.4-.39-.59-.56v.81l7.54,2.48C19.39,138.36,19.79,137.86,21,137ZM13.72,38.76v.48l.44-.24-.3-.29Zm5.21,62.44.64.31-2.18,2.41,9.17,3,.17-.17.08-5.2-.09,0L12.81,97l-.09,5.41,4.15,1.36C17.13,102.72,17.22,101.61,18.93,101.2Zm-4-.42-.61.15-.7-1.66C15.49,99.43,15.49,99.43,15,100.78Zm-1.51,21.66a3.33,3.33,0,0,1-1,.13v.15l4.1,1.35L16,123.7c3.27-.18,1.51-1.06,1.24-1.88.62.14,1.28.38,1.31.65a4.14,4.14,0,0,1-.37,1.87,8.5,8.5,0,0,1-1.21-.11l9.4,3.09.09-5.45-.09,0-4.16-1.37c-.54,1-2,1.22-2.77,2-.24-.36-.46-.6-.41-.64.67-.54,1.38-1.06,2.18-1.66l-3.91-1.29c-.43,1-1.75.94-2.83,1.09l2.22-1.29-4.23-1.38v0l-.08,4.74Zm8.46-.5c.19,0,.5.23.76.36l-1.38,1.5-.62-.32C20.34,122.67,20.88,122.18,21.9,121.94Zm-9.49,2.12h0v0ZM21.55,227.8c.19-1.89.68-2.23,2.32-2.21L22.19,228l2.62.86,0-1.24-.28.11.29-.49.05-3.8-.08,0-13.92-4.57-.08,5.42Zm-9.77-65.25,0,.79,4,1.31a6.77,6.77,0,0,1,1.47-.53l.37.42-.45.56,4.59,1.51c-.68-1-.29-1.43,1.35-2-.21.67-.42,1.35-.67,2.17l3.37,1.11.08-5.45-.08,0-9.61-3.15,0,.08c-.07.22-.33.4-.54.63l-.75-.67a5.56,5.56,0,0,1,0,1.5,2,2,0,0,1-.72.82.92.92,0,0,1-.6-.12,2.21,2.21,0,0,1,0-1,4.41,4.41,0,0,1,.5-1.44c.09-.14.21-.27.31-.41l-2.49-.82v0Zm6.49-1c-.12.39-.24.75-.35,1.11l1.67.52-2.94.39C16.61,161.76,16.61,161.76,18.27,161.59Zm1.09,79.1c-1-.84-1.27-1.55-.71-2.18l2.24,1.63.68-.11c.2-.5.43-.92.1-1.09-1.79-.95-.85-1.9-2.24-2.79l.51-.13,3.77,1.61a8.62,8.62,0,0,1,1-.65h0l-.08,0-13.92-4.57-.09,5.42Zm-6.69-5.82-.05.85a12.75,12.75,0,0,1,2.25.11c1.23.3,2.39.72,3.48,1.06-.39.52-.88,1.2-1.38,1.9a6.62,6.62,0,0,0-1.72-1c-2.85-.68-3.16-1.88-4.35-3.14Zm-.31-29.14-1.26-.42,0,1.28Zm1.51-130.2h0L24.45,79h0v0l2.68.88.09-5.43-.09,0-9.29-3c-.58.44-1.26.83-2,1.31.75.89,0,1.4-1.85,1.7.33-1.1.61-2,.87-2.86l2-.34,0-.12-2-.64-.13,0h0l-.29-.1c-.46.69-.91,1.38-1.38,2.07l0,2.69.57.17Zm0-46.25v.37c.06-.11.11-.22.16-.32Zm-2.32,147.6L17,178.66a2.46,2.46,0,0,1,2.89,0L18,179l7.52,2.47.09-5.43-.09,0-13.91-4.56ZM18,10.22l-.34-.12c-1.05,1.17-2.06,2.35-3.18,3.47a.67.67,0,0,1-.36.15v.66l.88.29Zm3.78,6.68a1.55,1.55,0,0,0,.06-.23,13.22,13.22,0,0,1,1.6-3.45c.14-.37-.12-.83-.2-1.28l-.95-.31c-.18.3-.23.58,0,.71,1.19.86.27,1.18-.51,1.71l-.5-.69-1,.64-.36-.17,1-1.73a11,11,0,0,1-1.74-.41,2.65,2.65,0,0,0,0,.27c0,.84.24,1.68.16,2.52-.05.39-.54.82-1,1.09-.18.11-.69-.09-1.26-.22Zm-.43-5.58-1.62-.53s-.07,0-.1,0a.56.56,0,0,0-.24.22l1.67.79ZM17.84,89.71l.58.28-.36.55,8.88,2.91L27,88l-.08,0-2.46-.81c-.25,1.39-.49,2.76-.75,4.21h-2c2.46-2,2.5-3.74,1-4.09.07-.22.13-.43.2-.64l-2-.65h0L18.1,87.45c.77-1.12,1.4-1.65,1.95-1.71l-7-2.3-.09,5.41,4.48,1.47C17.55,90.12,17.69,89.91,17.84,89.71Zm-.23-35.58s.1,0,.31-.13c.06-.25,0-.78.23-.89a13.78,13.78,0,0,1,3-.92c.26,0,.83.51,1.05.86.09.14-.36.47-.57.71l-.44.09c0-.3,0-.61-.06-.91l-.49.11-.59.59a20.26,20.26,0,0,1,2.15,2.79c.19.35-.14.86-.32,1.32l5.63,1.85.08-5.43-.08,0-.74-.24c-.77.34-1.77.55-2.6.85l-.33-.4,1.45-.9-.13-.08-6.51-2.13A14.61,14.61,0,0,1,17,52.56c-1.45-1.15.69-1.16.68-1.63l-4.09-1.34L13.47,55l.82.28C14.37,54.2,14.81,53.38,17.61,54.13ZM14.74,30l-.88-.15v.72A3,3,0,0,1,14.74,30Zm-.08-2,1.5.25v.43l11.15,3.65c.06-.8.11-1.53.17-2.23a3.41,3.41,0,0,1,.46-.05l0-1.91c0,.22-.09.45-.14.67l-1.7-.8-1.42.49c-.11-.14-.24-.27-.36-.4a5.11,5.11,0,0,1,1.46-.65,8.36,8.36,0,0,1,1.9.2c.06-.2.13-.38.19-.57h0L24.58,26l-.67.34h-.35c.13-.17.25-.36.37-.54l-1.51-.49a4.91,4.91,0,0,1-1.2.74,2.56,2.56,0,0,0-1.91,2.85l-1.5.18c.58-1.26,1.15-2.46,1.75-3.76l-1.46.27c0-.39-.05-.69-.07-1l-1.87.79c.24-.64.37-1.32.6-1.95L14,22.51l-.09,5.42.69.22Zm.23,96.89-.15.29c-.19.37-.39.74-.62,1.17l-1.77-.48v.93c.27.84.5,1.58.74,2.32,0,0,.21,0,.36.06l.75-1.14c.35.48.56.79.92,1.3l4.52-2.9Zm11.41,9.21.08-5.45-.08,0-5.91-1.94c-.18.6-.32,1.1-.65,1.18-1.34.34-1.33,1.09-1.6,1.81l0,0v0l5.29.24c-1,.24-2.4.26-2.85.76a2.56,2.56,0,0,1-2,.89l7.5,2.46h.13l0,0ZM12,147.71l.26-.34.54.2-.43,2.36,1.59.53a3,3,0,0,1,.13-.59c.6-1.65,2.48-1.36,4.29-1.36a5.86,5.86,0,0,1-1.59,1.63,10,10,0,0,1-1.53-.81l-.75,1.31L26,154.4l0-1-1,0c.11-.22.23-.44.37-.7l-1.84-.1L26,151.1l0-2.15-.09,0-9.59-3.15c0,.35-.07.69-.11,1l-.86,0-1.19,1.47-.45-.15c0-.41.08-.81.13-1.28l-1.43-.24.6-2-.85-.28-.17,0Zm4.66-16.78.87.28c.22-.54.43-1,.63-1.54h0Zm9.84-10.38.09-5.45-.09,0L20,113A2,2,0,0,0,21,114c-.41.38-.81.76-1.4,1.34l1.4-.16.12.32-3.49.57c.08-1.31.15-2.47.23-3.72l-1.6-.26c.12-.11.22-.19.33-.3l-4-1.3L12.51,116l.21.07c-.09-.14-.13-.38-.06-.44.87-.64,1.8-1.24,2.66-1.81l1.09,1.93c-.83.17-1.71.36-2.6.51a2.4,2.4,0,0,1-.47,0l2.56.84a2.27,2.27,0,0,1-.49-1l2.85,1.37c-.63,0-1.09-.06-1.44-.1ZM13.7,114c.13-2.11.13-2.11.66-2.42l1.06,1.12Zm10.14-6.57a6.8,6.8,0,0,0-3.9,4.16l6.68,2.2.08-5.43h-.05l-1.74.92-.34-.28,1-1ZM15.6,92.89l1-1.47-3.71-1.21-.09,5.41,14,4.59.09-5.42-.09,0-9.5-3.12c-.67,1-1.34,2.1-2,3.14a1.87,1.87,0,0,1-.81.41c-.06,0-.38-.17-.35-.22a2.4,2.4,0,0,1,.38-.65C14.86,93.85,15.25,93.38,15.6,92.89Zm8,1.93c-.22.74-.42,1.37-.61,2l-.58-.11C22.26,96,21.35,95.13,23.63,94.82Zm-1.56-.5a14.16,14.16,0,0,0-.91,1.7,7,7,0,0,0-.2,1.37l-.59-.06C20.73,96.29,19.84,94.9,22.07,94.32Zm-9.45,14.84.92.31-.92-.7ZM27.05,86.68l.08-5.43-.08,0-3.16-1L23,82.07c-.3-.82-.45-1.24-.63-1.77l.67-.4-9.87-3.23L13,82.08l10.19,3.34s0-.1,0-.15l1.48.37c0,.09,0,.18-.05.27Zm-14.42,21.4c1.3.47,2.1,1.2,2.08,1.77l2.94,1c.13-.11.28-.24.38-.34,0-.78.06-1.43.09-2.09h.32c.15.41.31.83.58,1.51a14.84,14.84,0,0,0,2.56-2.39,4.15,4.15,0,0,1,.5-.67l-9.38-3.07Zm-1.4,89.11,14,4.6.09-5.43-.09,0-13.91-4.57Zm.22-13.54,11.83,3.88c0-.91,0-1.82.13-2.72,0-.16.57-.28.88-.42a2.11,2.11,0,0,1,.28.77c-.05.83-.15,1.67-.27,2.51,0,.06,0,.12-.05.18l1.2.4.08-5.43-.09,0-13.91-4.56Zm-.11,6.77,14,4.59.09-5.42-.09,0L11.43,185Zm14.41-21.14-.09,0L11.75,164.7l-.09,5.41,14,4.6Zm.12-8.11.09-5.45-.09,0L12,151.13l-.09,5.21,2.11-.51.36.39-.65.95,1.61.53a.23.23,0,0,0,.07-.07,2,2,0,0,1,1,.22c0,.07,0,.14,0,.2Zm-8.18-6.92c.1,1,.21,2,.32,3.08C15.9,155.36,15.88,155.2,17.69,154.25Zm8.48-12.07-.08,0-13.92-4.57v0l-.08,5.2a.91.91,0,0,1,.07-.14l.91.68.77.25c.68-1,.77-1,1.83-.22l-.55.64.76.25.7-.26c0,.17,0,.31,0,.47l9.56,3.14.06-3.86-.09,0,.09,0Zm-13,14-1.13.47.89.29ZM11,210.73l14,4.59.09-5.42-.09,0-11.56-3.79a4.58,4.58,0,0,1-2.39,1.34Zm.11-6.77,2.34.77c.18-.25.39-.56.68-.94a4.32,4.32,0,0,1-.12,1.12l11.1,3.65.08-5.43-.08,0-13.92-4.57ZM21,47a14,14,0,0,0,1.59,0c.68-.09,1.36-.25,2.36-.45l-3.4-1.11a2,2,0,0,1-.15.37C21.24,46.18,21.13,46.59,21,47Zm6.59,5v-.18l-1.54-.25L26.3,51l1.31-.29.05-3.29-.08,0-2.37-.77-1.46,1.61-.69-.71a16.92,16.92,0,0,0-3.39,2.72l2.54.84c-.28-.56,0-1,.69-1.45a2.67,2.67,0,0,1,2,2.32l1.87.61Zm-3-2.3-.71-.35,2-2,.57.26Zm-8.24-.57-.38-.5-.54.2Zm2.75-4.54L17.3,44l-.82.67L16,44.46c.16-.23.36-.47.54-.7l-2.88-.94,0,2.55c.17.05.34.09.55.17,1.37.55,2.38.82,2.48,2.15A7.19,7.19,0,0,1,19.11,44.61Zm6.18,8.83-.05,0a.06.06,0,0,1,0,0Zm-10-5.65.65.86h0ZM14,32.12a2.19,2.19,0,0,1-.17.41l0,1c.26-.17.51-.35.77-.5a5.58,5.58,0,0,1,1.31-.37c-.09.34-.05.75-.3,1s-.77.8-1.2,1.21l1.73.57c1.34-1.42,1.49-1.39,2.64-1.16l-2.28,1.28,3.17,1a1.64,1.64,0,0,0-.18-.68c-.6-1.22.21-2.2,2-2.79-.16.32-.49.78-.41.82,2,1.08,0,1.21-.3,1.39-.13.56-.17,1.08-.25,1.54l2.34.77.53-.58.57.21c-.08.22-.17.44-.25.65l4.08,1.34,0-2.1-.63.74c-.58-1.3-.42-2,.66-2.44l0-1.08a6.92,6.92,0,0,1-2-.51L27,33.59,16.16,30c0,.59,0,1.21,0,1.89C14.49,31,14.21,31,14,32.12ZM18.25,38a4.72,4.72,0,0,0,.55-.26l-5-1.65,0,1.44c.23-.31.55-.51,1.21-.21.9.39,1.45,1.2.52,2-.6.54-1.22,1.07-1.78,1.62v.53l.63.21c1-1.1,1.91-2.19,2.91-3.25A3,3,0,0,1,18.25,38ZM15.31,69.22l.93.3.26-.16c-.23-.32-.44-.63-.66-.93h0C15.66,68.69,15.48,69,15.31,69.22ZM27.77,40.63l-.09,0-.39-.13-.94,1-2.45-.31-.13-.28,2.54-.68-3.06-1-.54,1.4c-1.27-.92-3.28-1.07-3.71-.36-.34.56,0,1.36.1,2.32l-.62.52,2,.64c.7-.44,1.42-.86,2.13-1.29l.39.24L21.41,44l6.27,2.06,0-1.25-.66-.3A1.45,1.45,0,0,1,27.73,43ZM15.88,42.19l1.21.39c0-.68-.47-1-1.22-1C15.87,41.78,15.88,42,15.88,42.19ZM13.34,63.13v.69a6.14,6.14,0,0,1,.17.68l.63-.08L14,63.7l.73-.12Zm6.74-6,1,.34c0-.39-.09-.79-.15-1.29Zm-2.76,5c.55-.2.86-.75,1.42-1.28.13.78.21,1.31.3,1.83l2.12-.23-1.5,1.3,7.7,2.53.09-5.43-.09,0-9.5-3.12c-.57,1-1.12,2.08-1.72,3.11-.1.17-.45.26-.65.41-.36.27-.74.52-1.1.79l.83.27-.23-.2A8.37,8.37,0,0,0,17.32,62.22ZM19,70.41l8.31,2.73.06-3.69c-.53.33-1.07.66-1.63,1-.21.11-.65,0-1.15-.05,1.06-.69,2-1.25,2.79-1.8v-.84l-.08,0-6.89-2.26a2.59,2.59,0,0,1-.85.73c-.18-.44-.33-.81-.48-1.16l-.7-.23a1.45,1.45,0,0,0,0,.77c.23.61.46,1-.76,1.2-1,.16-1.94.7-1.74,1.7h0L19.3,66.9a9.54,9.54,0,0,1,.14,2.63A2.29,2.29,0,0,1,19,70.41Zm-5.59-8.64.31.1a1.42,1.42,0,0,0,.08-2.34c-.25-.22-.26-.58-.34-1.07Zm6.14-5-2.25-1.21-.47.52,2.42.8Zm-3.68.36-.21.22.82,0Zm-1.57-.52-.8-.26v.46q.13.18.27.39c.25-.15.48-.22.5-.32A2.51,2.51,0,0,0,14.25,56.62ZM73,195.24l.19-.06L75.71,189l-2.55.81h-.09Zm-2.8-179-1.36.34c-.26-.18-.54-.35-.82-.52l-.74.23,6.37,2.44V17.35ZM73.92.72l-2.16.66,2.13.91ZM73.7,14.61,72,14.77h0l1.68.35ZM65.85,1.46c1.24-.33,2.44-.67,3.65-1L68.06.19H65.88c.11.31.18.6-.27.75L61.81.16h-1l4.37,1.22A2.16,2.16,0,0,0,65.85,1.46ZM70.13.54,69.6.47l.33.14Zm3.39,160.85,14.25-4.49.08-5.44L76,155.19c.27.48-.39,1-.85,1.52L75,155.53l-1.26.39-.08,0v0l-.09,5.4Zm-2.7-150.6h0l1.09-1.53L71.54,9,68.61,10ZM67.91,2.87,71,4.05l.19-.15L67.86,2.66C67.88,2.74,67.89,2.8,67.91,2.87ZM87,204.29l.09-5.42L73,203.34h-.09l-.09,5.43ZM79.18,7.76a2.1,2.1,0,0,0-.77,1L80,8ZM76.58.51c0-.09-.08-.19-.13-.28h-.4V.57h.52S76.59.54,76.58.51Zm3,5.4-.07,0-.8.25.26.1ZM76.87,7.28l1.19.4.27-.16c-.71-.2-1.4-.4-2.12-.59L76,7,76,7l0,.94Zm6.8,123.79,1.18-1.65.63.14c.08.67,0,1-.45,1.26l3.16-1,.07-4.31h0c-1.1.5-1.58.88-1.08,1.65l-1.71.21c.1-.33.18-.57.26-.81-3.07-.27-4,.1-5.38,1.72a9.8,9.8,0,0,1-2.41,1.29l-1.77-1.26-1.94,1.12a.69.69,0,0,1,.17-.68l-.27.09H74l0,2.77.58-.1c.08.15.16.31.23.47l-.82.12,0,2.17v0L84.6,131A8,8,0,0,1,83.67,131.07ZM75.15,57.75c.83-.47,1.81-.94,1.76-1.39-.11-1.29,1.37-2.12,2.11-3.15h0l-3.74,1.18-.09,0v0l1.27.68L75.19,55ZM75,83.83l-.28,0,0,3,.29-.09s0-.09,0-.14a5.64,5.64,0,0,1,1-.88,8.86,8.86,0,0,1,.92.4l2.51-.79.2-.33h.82l4-1.25c-.13-.29-.23-.52-.32-.76,3.51-.43,3.49-.43,4.46-2.37a2,2,0,0,1,.4-.5L89,77,78,80.48l.14.19a7.94,7.94,0,0,0-1.36.2c-.66.21-1.33.42-2,.65l0,2.17Zm6.1-2.24c1.08-.65,2.19-1.28,3.39-1.85A18,18,0,0,1,86.73,79l.22.21-5.61,3.16-.45-.14C81,82,80.89,81.72,81.12,81.59Zm8.65-52-3.26,1,.53.13a6.76,6.76,0,0,1-1.79,2.5l.62.62-1-.31c-.08,0-.14.11-.22.15l-.72-.19c.07-.08.14-.15.2-.23-1.06-.45-1.31-.91-1-1.59l-7.48,2.36-.09,0-.08,5.42L89.68,35ZM69.6.47l-.06,0h.06Zm1.94,73.32c-1,.8-1.76.92-3.36.72,0-.57,0-1.15,0-1.91l-2.71,1.18-.43-.3c.47-.26.92-.55,1.42-.8a2.85,2.85,0,0,1,1.22-.37L64.36,71,59,72.71l-.09,5.42L72.16,74ZM59.46,40v.56l0,0a25.16,25.16,0,0,0,3.32-2.73l-3.33,1v.72l.37.26Zm12.2,20.62a3.2,3.2,0,0,0,.15-.37L64.57,57.5l-5.41,1.67-.09,5.42,13.29-4.1ZM66.49,31a4.63,4.63,0,0,1,.86,1.22c0,.16-.63.39-1,.58l-1.31-1-.87.21-1-1.06-3.63,1.12-.09,5.42L72.8,33.4ZM65,35.1c1.6-1.48,1.6-1.48,2.85-1.14C66.5,34.08,66.91,35.39,65,35.1ZM57.69,152.62,71,148.51h0l-1.64-.63.12.43-2.25-1,.27-.15-4.3-1.65-5.41,1.68v0l-.09,5.4Zm.11-6.77,13.3-4.11h0l-.74-.28a5.83,5.83,0,0,1-3.06.27l2.15-.62-6.16-2.36-5.41,1.68v0l-.08,5.4ZM66.48,31l-.3-.12a2.14,2.14,0,0,1-.1.22ZM64.15,84.58l-5.41,1.67-.09,5.42L72,87.56ZM71.21,135h0l-7.81-3L58,133.64v0l-.09,5.4v0ZM59.91,11.78v.09l.62-.28ZM70.25,25.62c.06,1-1.13.91-2.46.7l-.61.67-.6-.08c.28-.44.36-1,.91-1.31a10.24,10.24,0,0,1,1.15-.6l-3.53-1.35L64,24l2.72,1.36-.48.18-2.82-1.36L60,25.23c-.09.13-.19.25-.29.37l-.08,5.14,13.3-4.1Zm-8.31,2.82-.77-.18,1.52-1.92.68.18Zm-2-18.35v.34l.71-.22ZM60.25,17l-.14,0a.47.47,0,0,0-.19.06Zm0-7.81a.61.61,0,0,1,.1.14l.58-.45,1.89.66,3.84-1.19C63.18,7.43,62.38,6.88,61,4.94l3.33-.11c-2.78,1.64.67,2.37,2.71,3.4l2-.62.23-.13a3.85,3.85,0,0,0-.79-.36h-.89a.69.69,0,0,0,0-.2L67,6.84l-.09.29-.8-.37A9.44,9.44,0,0,1,64.55,6L65,5.7a4.33,4.33,0,0,0,.81.4c.31-.23.68-.45,1-.67l.57.2c-.07.2-.13.41-.2.65.46,0,.9-.13,1.35-.2L69.78,5,68.2,4.4a5.76,5.76,0,0,1-.14,1.17,12.77,12.77,0,0,1-2.29-.66c-.62-.37-1.2-.75-1.78-1.13L60,5,60,8.9l.31.25Zm1.06-5.92,1.3-.4c-.75-.49-1.48-1-2.23-1.47l-.12.15-.16-.05,0,1.32L61.12,3ZM60.05,18.54l-.25.25v.26h1.57Zm2.29,4.62h0l1.29-.4a.52.52,0,0,1,.08-.53l-2.5-.57c.15.19.26.36.16.45-.51.46-1.08.9-1.66,1.33V24l2.54-.78Zm-2-1.69.22,0,.35-.15a.43.43,0,0,0,0,.07c1-.23,1.22-.53,0-1l-1.23-.51,0,2,.71-.31ZM87.32,185.33,75.75,189c.21,0,.42-.09.63-.11.69-.08,1.38-.14,2.07-.21,0,.4.36.86.1,1.19-.65.82-.09,1.2,1.54,1.35-.74.85-1.45,1.66-2.15,2.48l4.36-1.38A3.25,3.25,0,0,0,83.82,190c.17-1.25,1.29-1.94,3.46-2.06ZM74.8,80.13l.57-.18-.56-.3Zm3.43-4c-2.1.4-2.91,1.66-2.15,2.7a3.76,3.76,0,0,0,.92.61l12-3.8.08-4.48a2.08,2.08,0,0,1-.25,0,4.81,4.81,0,0,0-3.42.85c-.83.55-1.74,1.08-2.61,1.62l-.34-.19-4.1.72a4,4,0,0,1,.61-.75l-4,1.28-.09,0v.74a11.24,11.24,0,0,1,2.7-.78c1-.16,2-.29,3.17-.46A3,3,0,0,1,78.23,76.13Zm9.27,6.73,1.44-.45,0-1.18A6.63,6.63,0,0,1,87.5,82.86ZM70.85,155.27h0l-7.81-3L57.67,154l-.08,5.42v0l13.31-4.11Zm4-76.7c.07-.62.14-1.24.22-1.88h-.19ZM81,53.28c1,.06,1.78.14,2.59.15.3,0,.82-.14.85-.26.31-1,2-.93,3.42-1.42l-.28,1.08-2-.24,1.17,1.54c-.56.36-1.5.71-1.68,1.16-.12.29.68.68,1.18,1l3.16-1,.08-5.42L82.82,52a7.55,7.55,0,0,1,1.32.4C82.77,52.43,81.44,52.42,81,53.28ZM75,66.59l4.71-1.48-.78-.93L80.17,64l-.35-.27a5.44,5.44,0,0,0-1.45.71,4.53,4.53,0,0,1-3.22,1.71l-.13,0Zm-.1,6.77,6.66-2.1L80.94,71l1.31-1.08.75.29-1.25,1,3.8-1.2s0-.11,0-.16c-.06-.91-.2-1.6,1.2-1.81.21-.82.38-1.47.55-2.12a4.76,4.76,0,0,0,1.84.81l.06-3.27L75.07,67.92H75Zm1.15-9.24c.36-.71-.13-1.32-1-1.75l0,2.38.25-.19C75.51,64.39,76,64.29,76.06,64.12ZM87.24,190.75l0-1.94-1.51,1.51.57.71Zm-3.69,1.08-.21.14,2.54-.8A3.31,3.31,0,0,0,83.55,191.83Zm-10-29.12-.09,5.45,14.25-4.49v-.76l.08-4.66v0L73.58,162.7Zm.74-47.39-.08,5.45,14.25-4.49.08-5.44-14.16,4.47Zm8.15-1.47c.34-.65,1.73-1.13,2.66-1.68l.39.19c-.67.56-2.33.92-.91,1.91C83.32,114.39,82,114.6,82.39,113.85Zm-7.91-13.41L88.73,96l.08-5.42L78.15,93.89c-1,2-1,2-1.93,2.16l1.85-2.13L74.65,95h-.09Zm-.1,6.46,1.27-.78a.84.84,0,0,1,.38.57l12.59-4,.08-5.42-14.16,4.47-.08,0Zm2.34-4.33.38.22c-.57,1-.74,1.07-2.34.95Zm-3.41,72.36L82.65,172l.54-1.32c.36.21,1.1.54,1,.63s-.25.21-.37.31l1.47-.46h-.18l2.45-1.41.06-4.18-.46.18-.37-.21c.18-.13.34-.27.5-.4l-13.82,4.36-.09,0ZM75.65,26,81,24.28l0,0-4-.53c-.05.29-.12.57-.17.86h-.48c0-.21,0-.41.09-.74l-.8.3Zm13.51,42.4a1,1,0,0,0-.65.7l.64-.2ZM73.2,181.7l14.25-4.49.08-5.42-14.16,4.47-.08,0Zm8.57-7.56,1.55-.58c-.32.62-.6,1.16-.9,1.76l-1.12,0C81.46,174.91,81.61,174.52,81.77,174.14Zm-8.68,14.33L87.34,184l0-2.28-3.82.82c.64-.63,1.18-1.11,1.63-1.62a2.35,2.35,0,0,1,2.21-.46l0-1.88L79.61,181c.29.19.56.38.87.55,1.31.71.88,2.84-.59,3.48a18.76,18.76,0,0,0-2.23,1.33c-.31.19-.72.32-1.08.49l2.28-5.61L73.27,183l-.09,0ZM88.93,13.55a3.65,3.65,0,0,1,.64-.68L89,12.71,85.76,13.8l3,1.3.95-.3-.84-.47C88.57,14.15,88.8,13.8,88.93,13.55Zm1,3.67c-.81-.14-1.63-.26-2.45-.38l-.77.24L90,18.34Zm-5-.92.08,0-.05,0Zm5,2.76a2.67,2.67,0,0,0-1.36-.3c-1.86.36-2.13-.22-2.79-.79l1.35,0-.81-.71-2.23.7-.09.16,1,.38.42-.54.29,0-.06.75.92.35.48-.12-.21.19c.78.19,1.89.16,2.78.37l.31.1Zm-9,1.76c-.55,0-1.28,0-1.91-.05l.43.82a13.44,13.44,0,0,0-1.59.22C80.72,22.11,81,22,80.91,20.82Zm-5.21,2,.74-.85c-.16-.49-.53-1.14-.37-1.18a10.64,10.64,0,0,1,1.41-.26c-.17-.11-.34-.22-.54-.33l-1.12.36-.08,0Zm13.93,1.48L87,23.76l-1,.31A4.83,4.83,0,0,0,89.63,24.27Zm-6.8-9-5.59-1.93-1.31.41-.09,0,0,2a3.31,3.31,0,0,1,1.13.62,10.37,10.37,0,0,1,1.33,2l1-.31A6.54,6.54,0,0,1,78.47,17a11.38,11.38,0,0,1-.64-1.86,2.78,2.78,0,0,1,1.52,1c.31.47.47.78,1.86,1.09l.48.13L84,16.6c.14-.23.28-.46.43-.69a2.76,2.76,0,0,1-.25-.21c-.13-.13.49-.37.89-.65l-1.5-.77ZM88.08,45.5l-.54-1.44,2,.07v-1L80.61,46l.61.09c-1,.57-1.23,1.23-2.75.87l-.56-.1-2.52.79-.08,0,0,2.35,2.19-.51c-.45.62-.8,1.08-1.19,1.63l1.8-.09-2.36,1.51L75.24,52l0,1,14.25-4.49.06-3.84Zm-2-22.82,2.72-.86L85.48,20a2.94,2.94,0,0,1-1.59-.12l.41-.53c-.59-.31-1.17-.63-1.75-.95l-1.08.34-.06.23a3.91,3.91,0,0,0,.46.11A11.59,11.59,0,0,1,84.7,20.6l-2.27-.22-.18.16,3.71.95C86,21.8,86,22.23,86.08,22.68ZM75.26,50.79h.08l-.08-.09Zm.07-4.51.15-.05c.26-.49.57-1.1.89-1.72l.49.09c-.19.73-.25,1,.22,1.13l12.5-3.94.08-5.42L75.5,40.84l-.08,0v.69l.73,0,.16.27-.91.46Zm3.26-6.17.56.13-2.53,3.3-.74-.16Zm10.73,18-.9.08a2.31,2.31,0,0,1-.1-.28l1-.66v-.57L85.81,57.8a7.62,7.62,0,0,1-4.19,3.3c1,1.28.58,2.43-.53,3.57l8.17-2.57Zm-.75,2a6.43,6.43,0,0,1-3.65.78c1.07-.55,1.73-.92,2.45-1.25a6.89,6.89,0,0,1,1.13-.29C88.54,59.6,88.78,59.94,88.57,60.1Zm1.22-31.9c-1.44-.49-2.78-1-3.11-1.92-.11-.34-1.19-.68-1.82-1,0-.19.23-.4.06-.57a1.36,1.36,0,0,0-.25-.22l-5,1.57-.39.32a1.66,1.66,0,0,1,.06-.21L75.71,27.3l-.08,0v.59c1.32.64,1.32,1.15.24,1.29L75.6,29l-.06,3.79,14.25-4.49Zm-6.86,1.61-3.61-2.2.53-.16,3.82,2.13Zm1.38-6.57,1.53-.48-4.18-1,1.24,1.94.66-.21C83.47,23.22,83.77,23.16,84.31,23.24Zm2.1,7.42-2.88.91,1.12,1.1ZM55.13,180.36l.08-5.42L51.65,176l-.09,5.42ZM50,8.08l0,0,0,0ZM46.44,3.8v.47l.06,0A1.4,1.4,0,0,0,46.44,3.8ZM49.29,9a4.3,4.3,0,0,1-.36,1c.38,0,.74.06,1.07.12l0-1.7-.21-.23-2.41,1-.6-.53,2.67-.83h0l.3-.09L50,8l0-1.2L47.71,6c-.19.09-.38.16-.56.23.71.29,1.46.58.49.92a4.56,4.56,0,0,1-1.25.23l0,2.13a4.62,4.62,0,0,0,1.48.36ZM47.72,1.15A2.32,2.32,0,0,0,48.6.86,4.07,4.07,0,0,1,50.1.11l-3.56,0,.57.57A4,4,0,0,0,47.72,1.15Zm2.35,4.29v-1c-.14.14-.28.28-.43.41s-.24.18-.39.28Zm-.2,12.87.05-2.8c-.42-.09-1.4-.56-1.33-.71.12-.3.78-.52,1.35-.81v-.43l-3.64-1.17,0,1.62a1.12,1.12,0,0,1,.48,1.45l-.5-.26,0,1.45c.36.23.23.43,0,.63v.53l2.73.88Zm-2.73,1.15-.94-.3V20s0-.05.06-.07A8.29,8.29,0,0,1,47.14,19.46Zm-.8-9.32v.65l.78-.47Zm2.82.67-.77-.19a3.07,3.07,0,0,1-1.74.52L50,12.21v-.6C49.17,11.53,49.31,11,49.16,10.81ZM54.79,202l-3.57,1.1-.08,5.42,3.56-1.1Zm-5-178-.7.06c.23-.18.47-.34.71-.51v-.93c-.8-.15-1.47-.39-1.66-1,0-.18.41-.35.63-.53l.27.06-.13.61.9.22,0-1.69L48.68,20a1.91,1.91,0,0,0-.57.73c-.16.4-1.12.7-1.72,1l-.23,0,0,2.9,3.63,1.17Zm4.9,184.79-3.56,1.1L51,215.31l3.56-1.1Zm-.11,6.77L51,216.66l-.09,5.42,3.57-1.1Zm.32-20.31-3.56,1.1-.09,5.42,3.57-1.1ZM50.12,2.57A2.84,2.84,0,0,0,48.71,3c.6,0,1.06.09,1.4.13Zm1.26,246h1l.95-.3c-1.38-.55-2-1.33-1.52-2l2.22,1.47v-.38l-.52-.94-1.23-.19c.34-.83.69-1.67,1-2.51l.78,0v-.21l-.11-.09,0,0a3.56,3.56,0,0,1-.55,0l.25-.6-3.17,1-.08,5.42.73-.22Zm3.09-26.23-3.57,1.1-.09,5.42,3.57-1.1Zm-.21,13.54L50.69,237l-.09,5.42,3.57-1.1ZM55,188.48l-3.57,1.1,0,2.85a2.64,2.64,0,0,1,2.28,0l-2.29.75,0,1.8,3.56-1.1Zm2.48-22.32,10.82-3.34,3.07,0v-.58l-1.79-.68-.06.16-.82-.08a.61.61,0,0,1-.24-.51L63,159l-5.41,1.68v0l0,2Zm-29.68,8,6.44-2.37-6.37-2.05Zm18.74,56L42.9,229l-.09,5.43,3.64,1.17Zm-4.8-62.78-5.35-1.72-7.91,2.91,5.39,1.74.94-1.67c.21.82.37,1.42.57,2.15l2.47.79.35-.11.22.3,3.24,1Zm-2.59,16.23,1.76-2.89-4.74-1.52-7.9,2.91,4.38,1.41a10.21,10.21,0,0,0,1.31-1c1.18-1.12,2.52-1.27,4.42-1.09a11.93,11.93,0,0,0-2.19.9c-.73.53-1.42,1.09-2.12,1.64l7.37,2.37.07-4.21A2.94,2.94,0,0,1,39.15,183.66Zm2.48-9.46L39,173.36a11.4,11.4,0,0,1-1.61,1.95c-.54-.52-.45-1.14-.81-1.52A5.26,5.26,0,0,0,35,173l-4.25,1.56c.29.1.61.19,1,.31l-2.51.85,12.3,4v-1a1.8,1.8,0,0,1-.35.21c.83-1.85-1.16-1.91-2.47-2.56,1.82-.45,1.13-1.15.62-1.65l2.26.63Zm-13.55-18L28,160.66l6.44-2.37h0l0,0Zm.45,19.12-.15,0,.06,0ZM33.28,143a22,22,0,0,1,3.1-1.59,1.9,1.9,0,0,1-.79,1.21,7.47,7.47,0,0,1-1.62.6l8.11,2.61.09-5.45-1.92-.61-.06.14-1.81-.75-1.31-.42c-.22,1.18-1,1.51-2.46,1.12.14-.18.28-.37.43-.55l-6.13,2.26h0Zm-5.59,38,6.44-2.37-6.37-2Zm22-150-1.9-1.46,1.45-.76-.31,0-1.7-1.39L49.32,27l-3.23-1L46,31.35l3.63,1.17ZM44.09,153.23l3.64,1.17v0l.08-5.4v0l-3.63-1.17v0l-.08,5.41Zm3.77-95.76A1.92,1.92,0,0,1,47,58.88l.57.18,1.11-1.53a4.24,4.24,0,0,1,0,1.89l.56.18.08-5.43L45.67,53l-.09,5.43.38.12A3.24,3.24,0,0,1,47.86,57.47Zm1.5-6.8-.83,1.74-.46-.08c-.3-.69-.63-1.38-.86-2.08,0-.14.25-.43.47-.5a15.58,15.58,0,0,1,1.7-.34l0-2-3.63-1.17-.09,5.42,3.63,1.17Zm.26-16.81L46,32.7l0,2.45h0c.14,0,.59.3.89.46a5.94,5.94,0,0,1-.9.3l0,2.21,3.64,1.17Zm-.1,6.78-3.64-1.17-.08,5.42,3.63,1.17Zm-1,66.35.08-5.43-3.64-1.17-.08,5.43Zm.72-46-.35-.11-1.15.71a2.06,2.06,0,0,1,.49-.92l-.43-.14a3.22,3.22,0,0,1-1.4.22l.39-.54-1.19-.38,0,2.92.94-.41.24.19c-.34.32-.69.66-1.2,1.13l0,1.59,3.63,1.17Zm-.11,6.77-3.63-1.16L45.37,72,49,73.14ZM54.36,229.1l-3.57,1.1-.08,5.42,3.57-1.1ZM53.73,43.71l0,.85A6.6,6.6,0,0,1,55.18,44Zm3.72-11-3.57,1.1-.09,5.42,3.57-1.1ZM57.32,41l-.27.13-.57-.4.85-.37v-.84l-3.57,1.1,0,2.83c1.2-.57,2.42-1.12,3.58-1.68Zm.23-15-2.88.89.51-.05L54,28.26v.51a9.22,9.22,0,0,1,1.37-.47L54,29.43,53.9,32.5l3.57-1.1Zm-.36,23.35a3.13,3.13,0,0,0-1.5,2.41c-1.93-.54-2.1-1.06-.75-1.86.43-.26.59-.66.87-1l-.33-.26-1.84.21,0,3.18.2-.11.64.33-.85.4v.17l3.57-1.1Zm.41-26.21a19.89,19.89,0,0,0-2.7-.65l2.72-.82,0-2.44-1.56.48,1.48,1.18a18.45,18.45,0,0,1-2.39-.9l-1.1.34,0,1.4c.35-.08.68-.17,1.07-.23-.43.29-.79.5-1.08.7L54,25.74l3.56-1.11ZM57,58.48l.09-5.42-3.57,1.1-.08,5.43Zm.09-13.8.13.1V44q-.41.23-.75.45c-.2.13-.69.11-1,.22-.64.23-1.23.5-1.84.75v.18l.06.05ZM57,59.83l-3.57,1.1-.08,5.42,3.57-1.1ZM54.9,48.14a6.49,6.49,0,0,0,1.76,0l.55,0,0-1.81-2.12.65h0l-1.45.44v.16A4.38,4.38,0,0,0,54.9,48.14ZM55,15.59l-.2.08,1.36.27c-.05.62-.58,1.23,0,1.62a4.56,4.56,0,0,1,.65.57l.86-.27v-.22l-.79-.31.8-.07,0-2.09-.69.58-.46-.14,1.17-1.17v-.67a2.14,2.14,0,0,1-.52.52C56.56,14.75,55.8,15.17,55,15.59Zm.07,166.12-3.57,1.1,0,1.85,1-.38c-.33.39-.65.79-1,1.2l0,2.75,3.57-1.1Zm15.24,7.42-7.8-3-5.41,1.67-.09,5.42Zm-.18-13.41a.7.7,0,0,0-.06-.3l-4.81-1.84a5.76,5.76,0,0,1-.83.57,16,16,0,0,1-2.31.77c-.08-.11-.16-.21-.23-.32l1.85-1.28L61.39,173l-4,1.25-.08,5.42Zm-3.72-1.18.45.11c-.48,1.69-.48,1.69-1.51,1.53C65.74,175.63,66.09,175.08,66.45,174.54Zm-2.23,1c-1.68,1.15-2.64,1.3-4,.51C61.76,176.14,62.42,174.89,64.22,175.56ZM54.87,6.6a16,16,0,0,1,3,.36V6.27l-.6-.41Zm2.89,6.22v-.38l-3.57,1.1,0,1s.07-.07.13-.1C55.43,13.88,56.59,13.35,57.76,12.82ZM55.36,9.1l-1.08-.26-.06,3.36,1.28-.4c-.12-.16-.11-.39.09-.69a3.3,3.3,0,0,0,.58,0c.54,0,1.08-.1,1.62-.16v-.26l-1.44,0L57.8,10V9.71l-1.26-.22c.59-.17,1-.3,1.27-.41V8.85a4.38,4.38,0,0,1-1.86.2l1-.75,0,0c-1.69-.43-2.17-.94-2-1.68l-.55.17,0,.8a10.53,10.53,0,0,1,.84.74C55.38,8.55,55.3,8.84,55.36,9.1Zm-.71-5.78.74-.57c.43.24,1.17.48,1.23.7s-.31.64-.49,1l-1.78-.57,0,1.6L56,4.91V4.44l1.32.06.56-.18V4l-.3,0c-.13-.3-.14-.61-.43-.88a10.74,10.74,0,0,0-1.61-1l2.36.38L58,.14H55L54.4.72l0,2.38Zm-.29,13.84a2,2,0,0,1-.22-.09l0,1.5a1.11,1.11,0,0,1,.16-.12C55.11,18,55.48,17.54,54.36,17.16Zm9.41,210.32c-.66,1-1.16.84-3.73-.13h0l-3.54,1.1,0,2.11,1-1.24.69.38-1.72,1.54-.05,2.63,13.31-4.11ZM53.7,72.7l-.14.33,3.27-1,.09-5.42-3.57,1.1-.08,4.9Zm2.14-5c.63,1.31-.08,2.11-1.72,2.74Zm-.09,73.34v0l-3.56,1.1-.09,5.44,3.57-1.1Zm0-1.37.09-5.4v0l-3.57,1.1-.08,5.44,3.57-1.1Zm.11-6.75v0l.09-5.4v0l-3.57,1.1v0l-.08,5.4v0Zm-.55,35.2-3.57,1.1-.08,5.42,3.56-1.1ZM36.66,137.23l.4-.51a5.39,5.39,0,0,1,.06.66L42.19,139l0-2.43-1,.78c-.17-.15-.52-.41-.49-.44.49-.42,1-.81,1.54-1.21l0-2.15-2.34-.75a2.64,2.64,0,0,1-1.41.77,1.75,1.75,0,0,1-.25-1.3l-1.36-.44L29,134.75h0Zm0-4.72c.23,1,1.45,2.31-1.71,2.09Zm18.87,22.1L52,155.71v0l-.09,5.4v0l3.57-1.1Zm0-1.33v0l.09-5.4v0l-3.57,1.1L52,154.36v0Zm-.21,13.54.06-4.06,0-1.36v0l-3.57,1.1v.26l-.08,5.18ZM56.7,80.14l-3.56,1.1-.09,5.42,3.57-1.1Zm-.1,6.77L53,88l-.09,5.42,3.57-1.1Zm.21-13.54-3.57,1.1-.08,5.42,3.56-1.1ZM56.4,99.1l.09-5.42-3.57,1.1-.08,5.42ZM56,126.18l.08-5.4v0l-3.56,1.1-.09,5.44L56,126.2Zm.32-20.31.08-5.42-3.56,1.1L52.73,107Zm0,1.35-3.57,1.1-.09,5.42,3.57-1.1Zm-.2,12.19.07-4.16,0-1.26-3.57,1.1-.08,5.45,3.56-1.11Z"/><path class="cls-1" d="M92.74,274.75l-2,1.45-1.5-2.59c-.69,1.12-1.45,1.79-1.39,2.37.46,4-1.77,4.88-5.21,5.25A81.66,81.66,0,0,0,72,283.5,42.42,42.42,0,0,0,67.8,285c-.72.25-1.46.45-2.54.78l-1.19,3.36c-4.68-3.06-9-.74-14.74.51-2.84-.29-3.26-4.09-5-7.56l-.75,3.82-.73,0c-1.27-4-2.78-8-3.74-12.17-1.14-4.89-1.8-5.12-6.6-4.09-3,.66-6.43,1.12-9.08-2.2-1.11-1.38-3.8-1.49-6.48-2.43-.22-1.24-.66-3.41-1-5.61-.78-5.79-2.11-11.58-2.14-17.38-.07-12.19.45-24.38.92-36.57.18-4.8.65-4.93,5.85-2.84A16.71,16.71,0,0,1,21,199c1.71-5.29-.56-9.73-2.61-14.34-1.3-2.92-1.85-6.15-2.82-9.22-.71-2.27-1.18-4.72-3.88-5.74-.42-.16-.7-1.19-.69-1.82,0-1.2.36-2.39.41-3.6.12-3.44.93-4,3.93-2.42.46.24.9.52,1.42.82.22-.36.51-.6.48-.77-1-5.37-1.87-10.79-3.27-16.06-.43-1.63-2.2-3.14-3.72-4.17-1-.68-3.13-1-3.91-.38-1.46,1.13-2.38,3-3.4,4.66a27.79,27.79,0,0,0-1.51,3.27l-.79-.34c0-3.78-.25-7.58.05-11.33.53-6.58,1.5-13.12,2.07-19.69.27-3.11,1.06-5.17,4.5-4.09.57-1.65.66-3.68,1.62-4.24,1.25-.74,3.19-.32,5.08-.42a14.39,14.39,0,0,0-.24-2.78c-.43-1.52-.21-2.45,1.48-3a2.16,2.16,0,0,0,1.14-1.74A61.82,61.82,0,0,0,15,93.54c-.29-1.23-.58-2.91-2.71-2.73-.5,0-1.45-.84-1.58-1.43C10,86,8.51,82.36,9,79.07c.63-4.29-1.47-6.18-4.26-8.2C3.1,69.69,3.06,66.71,4.48,64q4.52-8.7,9-17.43c2.72-5.32,5.39-10.67,8.1-16a20.34,20.34,0,0,1,1.35-1.88c.12,1.83.2,3.05.23,3.53l8.45.85v.7L30,34.35c3,3.65,7,5.42,11.42,6.42,2.49.56,3.4-1.35,3.92-2.66.92-2.27,2.23-2.94,5.06-2.29-.74-1.53-1.17-2.56-1.71-3.54C47.44,30,46,27.86,44.89,25.52,43,21.32,43.82,19.81,48.26,19c5.47-1,10.93-2.09,16.4-3.11,6.48-1.2,13-2.32,19.43-3.58,2-.39,3,.38,3.57,2.13,1,2.78,2.24,3.42,5.31,2.7,3.89-.91,7.73-2.13,11.66-2.73q13.92-2.14,27.92-3.76c4.32-.51,8.71-.47,13.08-.61a20,20,0,0,1,3.23.51c-1.84,1.73-5.09,1.78-3.08,5.22l12.33.63c3.24.17,3.44,1,2.7,4.07s-2.25,6.15,1.51,8.71c2.44,1.66,4.22,4.25,6.41,6.3a2.78,2.78,0,0,0,2.3.72c2.88-1.18,3.76,1.3,5.41,2.56,2.49-1.45,4.74.28,7.11.93s4.68,1.21,7,1.93c1.77.55,3.28,1.58,2.92,3.72-.42,2.47-1.18,4.88-1.67,7.33-.38,1.88-.57,3.8-.88,5.69-.11.61-.16,1.52-.55,1.74-2,1.17-1.93,3-1.82,4.9.28,4.61.36,9.24.9,13.83.25,2.16,1.35,4.22,2.35,7.13V69.51l.48,0c.43,3.93,1.06,7.85,1.24,11.79.25,5.3.25,10.62.14,15.92,0,1.55-.82,3.08-1.28,4.61-.1.35-.41.73-.33,1,.63,2.37,1.36,4.72,2,7.09.12.48-.19,1.07-.11,1.57a11.64,11.64,0,0,0,.67,2.75,26.44,26.44,0,0,1,2.36,11.19c0,.8-.81,1.65-1.4,2.34-3.09,3.6-2.43,8.11-2.89,12.29-.35,3.11-.07,6.28-.62,9.45v-6l-1,0c0,2.1,0,4.21,0,6.31,0,1.91,1.09,3.74-.73,5.69-.71.75,0,3,.3,4.51.67,3.49,1.49,6.95,2.25,10.42l-.71.2c-.16-.43-.32-.87-.56-1.55-.55,11.42-1.08,22.57-1.62,33.93l-1.19-.41a3.07,3.07,0,0,0-.34.71c-1.68,9.4-1.89,8.07,6.72,8.07,2.5,0,3.88.79,3.57,3.57-.68,6.29-1.33,12.57-1.87,18.87-.09,1.06.39,2.17.32,3-1.29,6.2-2.57,12.39-4,19.2l-2.86-2.29c-3.8,3.52-3.95,4.19-2.28,8.15-.54,2.19-.91,3.7-1.22,5l-3.53,3.75H168.48l-.22,1.12c4.83,2.05,10.65.92,15.28,3.61l-.07.75c-.53.07-1.12.33-1.57.18-8.08-2.71-16.51-3.05-24.87-3.27-9.61-.26-19.24.13-28.86.24-.46,0-1-.15-1.37.07a33.39,33.39,0,0,0-2.57,2.19,10.65,10.65,0,0,0,2.79,1.81c2.19.62,5.1-.12,5.16,3.66,0,.56,1.49,1.13,2.33,1.64.69.42,1.43.77,2.15,1.15l-.23.72a8.75,8.75,0,0,1-1.69.09c-8.27-1.2-16.56-2.26-24.79-3.72a129,129,0,0,1-14-3.61C94.79,276.94,93.89,275.7,92.74,274.75ZM13.62,140.29c-1.33-4.75-2.38-8.8-3.66-12.77-.17-.54-1.45-.92-2.24-1-.4,0-1.12.81-1.24,1.35-.47,2.09-.26,4.49-1.22,6.27-1.66,3,.61,3.88,2.27,4.76C9,139.69,10.83,139.71,13.62,140.29Z"/></g></g></svg>